<svg xmlns="http://www.w3.org/2000/svg" xmlns:xlink="http://www.w3.org/1999/xlink" viewBox="0 0 125.48 77.35"><defs><style>.cls-1{fill:url(#Degradado_sin_nombre_8);}.cls-2{fill:#f3faff;}.cls-3{fill:url(#Degradado_sin_nombre_8-2);}.cls-4{fill:#282828;}.cls-5{fill:url(#Degradado_sin_nombre_9);}.cls-6{fill:#ebf7f3;}.cls-7{fill:#f7a215;}.cls-8{fill:#b82d28;}.cls-9{fill:#ce2525;}.cls-10{fill:url(#Degradado_sin_nombre_9-2);}.cls-11{fill:url(#Degradado_sin_nombre_9-3);}.cls-12{fill:url(#Degradado_sin_nombre_9-4);}.cls-13{fill:#fff;}.cls-14{fill:#fff8fe;}</style><linearGradient id="Degradado_sin_nombre_8" x1="122.67" y1="29.7" x2="-127.57" y2="17.15" gradientTransform="translate(103.14 -32.26) rotate(90)" gradientUnits="userSpaceOnUse"><stop offset="0" stop-color="#f7a215"/><stop offset="1" stop-color="#ec0000"/></linearGradient><linearGradient id="Degradado_sin_nombre_8-2" x1="53.34" y1="32.42" x2="-45.11" y2="23.77" gradientTransform="matrix(0, 1, -1, 0, 105.05, -21.11)" xlink:href="#Degradado_sin_nombre_8"/><linearGradient id="Degradado_sin_nombre_9" x1="-2.28" y1="59.5" x2="87" y2="26.28" gradientTransform="translate(105.64 -24.43) rotate(90)" gradientUnits="userSpaceOnUse"><stop offset="0" stop-color="#650d01"/><stop offset="1" stop-color="#ec0000"/></linearGradient><linearGradient id="Degradado_sin_nombre_9-2" x1="10.31" y1="9.61" x2="10.66" y2="9.61" gradientTransform="matrix(1, 0, 0, 1, 0, 0)" xlink:href="#Degradado_sin_nombre_9"/><linearGradient id="Degradado_sin_nombre_9-3" x1="66.82" y1="32.08" x2="42" y2="19.81" gradientTransform="matrix(1, 0, 0, 1, 0, 0)" xlink:href="#Degradado_sin_nombre_9"/><linearGradient id="Degradado_sin_nombre_9-4" x1="5.21" y1="32.75" x2="14.78" y2="32.75" gradientTransform="matrix(1, 0, 0, 1, 0, 0)" xlink:href="#Degradado_sin_nombre_9"/></defs><g id="Capa_2" data-name="Capa 2"><g id="Capa_1-2" data-name="Capa 1"><ellipse class="cls-1" cx="75.92" cy="40.96" rx="21.19" ry="49.57" transform="translate(34.73 116.75) rotate(-89.82)"/><ellipse class="cls-2" cx="74.45" cy="44.97" rx="21.19" ry="49.57" transform="translate(29.25 119.29) rotate(-89.82)"/><ellipse class="cls-3" cx="71.28" cy="47.49" rx="21.19" ry="49.57" transform="translate(23.58 118.62) rotate(-89.82)"/><path class="cls-4" d="M42,70.53a1.44,1.44,0,0,1-.71.18.86.86,0,0,1,.39.45,1,1,0,0,1,0,.62l-.08.18a1.31,1.31,0,0,1-.8.69,1.86,1.86,0,0,1-1.21,0l-1.87-.57L39.8,68l1.79.55a1.51,1.51,0,0,1,.84.53.84.84,0,0,1,.11.77,1,1,0,0,1-.08.2A1.17,1.17,0,0,1,42,70.53Zm-1.17.94a.46.46,0,0,0,0-.4.69.69,0,0,0-.4-.26l-.86-.27-.58,1.13.88.28a.92.92,0,0,0,.57,0,.69.69,0,0,0,.39-.36Zm.76-1.73a.41.41,0,0,0,0-.38.69.69,0,0,0-.38-.25l-.79-.24-.54,1,.79.25a.87.87,0,0,0,.55,0,.63.63,0,0,0,.37-.33A.66.66,0,0,0,41.55,69.74Z"/><path class="cls-4" d="M47,70.26a1.06,1.06,0,0,1,.15.89,2.25,2.25,0,0,1-.08.24,1.64,1.64,0,0,1-.58.68,1.7,1.7,0,0,1-1,.28l.29,2-1-.26-.23-1.88-.42-.11-.73,1.65-.9-.23,1.89-4.21L46,69.7A1.53,1.53,0,0,1,47,70.26Zm-.79.77a.48.48,0,0,0-.06-.41.72.72,0,0,0-.43-.25L45,70.19l-.56,1.26.74.19a.89.89,0,0,0,.61,0,.81.81,0,0,0,.39-.42C46.16,71.11,46.18,71.06,46.19,71Z"/><path class="cls-4" d="M48.46,74.71a1.76,1.76,0,0,1-.54-.8,2,2,0,0,1-.05-1,2.89,2.89,0,0,1,.61-1.31,2.49,2.49,0,0,1,1.14-.78A2.72,2.72,0,0,1,51,70.71a2.23,2.23,0,0,1,1,.43,1.7,1.7,0,0,1,.54.79,2.06,2.06,0,0,1,.05,1A2.86,2.86,0,0,1,52,74.28a2.56,2.56,0,0,1-1.13.78,2.79,2.79,0,0,1-1.44.08A2.13,2.13,0,0,1,48.46,74.71Zm2.13-.45a1.6,1.6,0,0,0,.7-.54,2,2,0,0,0,.37-.86,1,1,0,0,0-.9-1.35,1.58,1.58,0,0,0-.89.08,1.74,1.74,0,0,0-.69.55,2.06,2.06,0,0,0-.38.85,1.24,1.24,0,0,0,.13.89,1.12,1.12,0,0,0,.77.46A1.48,1.48,0,0,0,50.59,74.26Z"/><path class="cls-4" d="M56.17,75.34l-1.8-.26-.56.8-1-.14,3.06-4.16,1,.15.18,4.62-1-.13Zm0-.72,0-2-1.27,1.77Z"/><path class="cls-4" d="M59,76.3a1,1,0,0,1-.35-.91.67.67,0,0,1,0-.17l.93.09a.5.5,0,0,0,.1.46.65.65,0,0,0,.48.23.91.91,0,0,0,.54-.09.48.48,0,0,0,.23-.38.44.44,0,0,0-.16-.4,2.87,2.87,0,0,0-.59-.38c-.24-.13-.45-.26-.6-.36a1.25,1.25,0,0,1-.37-.42,1,1,0,0,1-.11-.64,1.14,1.14,0,0,1,.29-.7,1.29,1.29,0,0,1,.64-.42,2.12,2.12,0,0,1,.88-.09,2.14,2.14,0,0,1,.82.25,1.08,1.08,0,0,1,.57,1.2l-1-.1V73.4a.49.49,0,0,0-.12-.37.68.68,0,0,0-.43-.18.75.75,0,0,0-.51.1.45.45,0,0,0-.23.37.44.44,0,0,0,.08.29.88.88,0,0,0,.24.23l.43.27a6.92,6.92,0,0,1,.59.38,1.35,1.35,0,0,1,.38.44,1.05,1.05,0,0,1,.12.62,1.19,1.19,0,0,1-.28.67,1.47,1.47,0,0,1-.65.42,2.07,2.07,0,0,1-.91.08A2,2,0,0,1,59,76.3Z"/><path class="cls-4" d="M67.14,72.67l-.18.7-1.2-.08-.93,3.78L63.91,77l.93-3.78-1.21-.08.18-.7Z"/><path class="cls-4" d="M69,73.44l-.25,1.17,1.53,0-.15.7-1.53,0-.26,1.22,1.73.06-.16.72-2.64-.09,1-4.53,2.64.09-.15.72Z"/><path class="cls-4" d="M75,73.12a1.05,1.05,0,0,1,.36.83,2.29,2.29,0,0,1,0,.25,1.59,1.59,0,0,1-.4.81,1.64,1.64,0,0,1-.86.5l.76,1.84H73.73l-.68-1.77h-.44l-.31,1.77h-.92l.81-4.55H73.9A1.55,1.55,0,0,1,75,73.12Zm-.58.94a.5.5,0,0,0-.16-.38.71.71,0,0,0-.48-.14H73l-.24,1.36h.76a.9.9,0,0,0,.59-.18.85.85,0,0,0,.27-.5C74.36,74.14,74.37,74.09,74.37,74.06Z"/><path class="cls-4" d="M82.2,76l1,1-1.12.06-.44-.46a2.59,2.59,0,0,1-1.6.65,1.7,1.7,0,0,1-1.1-.25,1,1,0,0,1-.44-.83,1.5,1.5,0,0,1,.29-1,2.39,2.39,0,0,1,.9-.71,1.07,1.07,0,0,1-.24-.61,1.26,1.26,0,0,1,.16-.69,1.32,1.32,0,0,1,.52-.5,1.87,1.87,0,0,1,.78-.21,1.29,1.29,0,0,1,.84.22.86.86,0,0,1,.33.63,1.21,1.21,0,0,1,0,.18l-.89,0a.17.17,0,0,0,0-.08.33.33,0,0,0-.11-.22.38.38,0,0,0-.26-.07.48.48,0,0,0-.35.16.49.49,0,0,0-.13.35.78.78,0,0,0,.09.27,1.5,1.5,0,0,0,.24.33l1,1.09,0-.07.45-.64,1,0-.55.83C82.42,75.68,82.31,75.85,82.2,76Zm-1.09.1-1-1.06a1.49,1.49,0,0,0-.55.42.8.8,0,0,0-.18.54.52.52,0,0,0,.21.4.79.79,0,0,0,.52.13A1.64,1.64,0,0,0,81.11,76.09Z"/><path class="cls-4" d="M89.45,75.53l-1.81.21-.34.92-1,.11L88.24,72l1.06-.13,1.35,4.43-1,.11Zm-.2-.69L88.7,73l-.77,2Z"/><path class="cls-4" d="M92.52,75.72a1,1,0,0,1-.57-.79.72.72,0,0,1,0-.17l.92-.15a.52.52,0,0,0,.22.42.64.64,0,0,0,.52.09.86.86,0,0,0,.5-.22.5.5,0,0,0,.13-.43.46.46,0,0,0-.26-.34,2.89,2.89,0,0,0-.67-.22,5.64,5.64,0,0,1-.67-.2,1.11,1.11,0,0,1-.47-.31,1,1,0,0,1-.27-.58,1.21,1.21,0,0,1,.09-.76,1.49,1.49,0,0,1,.52-.57,2.28,2.28,0,0,1,.83-.31,2,2,0,0,1,.85,0,1.13,1.13,0,0,1,.6.36,1.11,1.11,0,0,1,.26.65l-1,.16V72.3a.44.44,0,0,0-.21-.32.71.71,0,0,0-.47-.06.8.8,0,0,0-.46.22.48.48,0,0,0-.13.42.43.43,0,0,0,.16.26.9.9,0,0,0,.29.16l.48.15a4.38,4.38,0,0,1,.67.22,1.54,1.54,0,0,1,.49.32,1.09,1.09,0,0,1,.27.57,1.25,1.25,0,0,1-.1.72,1.35,1.35,0,0,1-.52.57,2.14,2.14,0,0,1-.86.32A1.91,1.91,0,0,1,92.52,75.72Z"/><path class="cls-4" d="M99.39,73.85l-1.78.37-.26.94-.94.2,1.46-5,1-.22,1.74,4.29-.94.2Zm-.26-.67-.72-1.82-.58,2.09Z"/><path class="cls-4" d="M104.28,69.06a1.68,1.68,0,0,1,.84.42,1.87,1.87,0,0,1,.49.86,2.67,2.67,0,0,1,.08.48,2.78,2.78,0,0,1-.18,1.29,2.73,2.73,0,0,1-.74,1,3.1,3.1,0,0,1-1.2.61l-1.53.41-.41-4.6,1.54-.41A2.54,2.54,0,0,1,104.28,69.06Zm.23,3.24a1.93,1.93,0,0,0,.28-1.24,2.56,2.56,0,0,0-.07-.36,1.08,1.08,0,0,0-.53-.74,1.37,1.37,0,0,0-1,0l-.61.16.27,3.08.62-.16A1.76,1.76,0,0,0,104.51,72.3Z"/><path class="cls-4" d="M108.35,72.15a1.7,1.7,0,0,1-.86-.42,2,2,0,0,1-.55-.87,2.86,2.86,0,0,1-.13-1.44,2.51,2.51,0,0,1,.59-1.24,2.77,2.77,0,0,1,1.2-.79,2.1,2.1,0,0,1,1-.1,1.77,1.77,0,0,1,.87.42,2.07,2.07,0,0,1,.54.85,2.86,2.86,0,0,1,.14,1.46,2.53,2.53,0,0,1-.6,1.24,2.72,2.72,0,0,1-1.2.79A2.09,2.09,0,0,1,108.35,72.15ZM110,70.7a1.7,1.7,0,0,0,.33-.82,2.18,2.18,0,0,0-.1-.94,1.16,1.16,0,0,0-.56-.69,1.09,1.09,0,0,0-.89,0,1.5,1.5,0,0,0-.74.51,1.7,1.7,0,0,0-.33.82,2.12,2.12,0,0,0,.1.93,1.15,1.15,0,0,0,.56.7,1.09,1.09,0,0,0,.89,0A1.57,1.57,0,0,0,110,70.7Z"/><ellipse class="cls-5" cx="73.24" cy="46.13" rx="21.19" ry="49.57" transform="translate(26.89 119.23) rotate(-89.82)"/><path class="cls-6" d="M49.86,25.8s0-.08-.06-.08l0-.06-.11-.15c-.31-.43-.54-.72-.71-.93l.15-.06a3.15,3.15,0,0,0,2.26-3.71c-.16-.94-.83-2.17-3.07-2.61l-.61-.1c-.45-.08-.82-.15-1.15-.24a15.52,15.52,0,0,0,2.09-1.8h0a2.56,2.56,0,0,0,.75-1.11,1.27,1.27,0,0,0-.19-1.14,1.1,1.1,0,0,0-.88-.44.83.83,0,0,0-.22,0l-3.55.7a10.38,10.38,0,0,0-1.86-2.49.76.76,0,0,0-.09-.09L42.06,11a11.78,11.78,0,0,0,.5-4.87A7.92,7.92,0,0,0,40,.67,2.39,2.39,0,0,0,38.37,0a2,2,0,0,0-1.93,2.06,8.88,8.88,0,0,0,0,.89l-.24-.17A10.23,10.23,0,0,0,29.89.67a12.72,12.72,0,0,0-1.62.11c-.73.1-2.48.84-2.46,2.08a3.45,3.45,0,0,0,1.47,2.56,13.15,13.15,0,0,0,1.3.78,9,9,0,0,0-4.44,6.46A3.12,3.12,0,0,0,25,15.49a2.16,2.16,0,0,0,1.36.41,7.31,7.31,0,0,0,1.1-.11l.21,0,.14,0c.34,1.93.89,3.24,2.79,3.43a4.91,4.91,0,0,0,.57,0s0,.15,0,.15c-.05.37-.1.74-.16,1.1-.17,1.08-.37,2.17-.57,3.24a5.24,5.24,0,0,1-2.65,3.46,16.86,16.86,0,0,1-8.42,2c-1,0-2-.05-3.12-.16a5.84,5.84,0,0,1,1.62-3c.69-.81,1.44-1.55,2.24-2.34.46-.46.93-.93,1.39-1.41A7.38,7.38,0,0,0,23.78,16c-.1-.74-.31-2.29-1.94-2.29a3,3,0,0,0-.62.07l.48-.7a1.12,1.12,0,0,0-.12-1.42,24.06,24.06,0,0,0-5.95-4.47A14.55,14.55,0,0,0,12.3,5.9a4.49,4.49,0,0,0-1-.11A4.11,4.11,0,0,0,8,7.49l0,0a4.14,4.14,0,0,0-.6,1.28l0,.1A3.37,3.37,0,0,0,7.55,11a1.15,1.15,0,0,0,1,.62h0a1.12,1.12,0,0,0,1-.57c.13-.23.55-.32.79-.35h1l.16,0,.15,0h0l.11,0,.07,0a4.09,4.09,0,0,1,3.14,5,14.37,14.37,0,0,1-.59,2.05,10.25,10.25,0,0,0-2.12-4.18h0a1.78,1.78,0,0,0-.29-.3,2.77,2.77,0,0,0-.29-.22.75.75,0,0,0-.2-.1l0,0L11.27,13a1.92,1.92,0,0,0-.74-.15,1.54,1.54,0,0,0-.5.07,1.15,1.15,0,0,0-.61-.54,5.59,5.59,0,0,0-1.57-.27,2.51,2.51,0,0,0-1.46.4,1.24,1.24,0,0,0-.28.28,1,1,0,0,0-.57-.16,1.24,1.24,0,0,0-.27,0A6.91,6.91,0,0,0,1.8,15.21,7.83,7.83,0,0,0,.77,17a5.81,5.81,0,0,0-.36,1.22C-.81,23,1,25.14,2.12,26a4.36,4.36,0,0,0,1.23.64,1.17,1.17,0,0,0,.32,0,1.1,1.1,0,0,0,.86-.4,1.13,1.13,0,0,0,.24-.92s-.83-4.55,1.68-5.85l.06,0a4,4,0,0,1,1.92-.68c.3,0,1.21,0,1.61,2.39a40.8,40.8,0,0,0,1,4.17l-.11-.06a4.37,4.37,0,0,0-2.09-.52,4.71,4.71,0,0,0-4.71,4.51A2.52,2.52,0,0,0,5,31.06l.39.34a1.1,1.1,0,0,0-.68.57,1.11,1.11,0,0,0,0,1l.32.56.06.1c.09.16.18.32.28.47.23.37.46.72.67,1l.18.26.16.22.34.45.22.27,0,0,.41.49.1.11,0,0,.12.13.12.14c.19.21.39.42.62.65l.22.22c.11.1.22.21.33.3l.3.27.18.15.06.06.2.16.1.08.15.13a15.19,15.19,0,0,0,2,1.3,1.11,1.11,0,0,0,1.25-.14,1.11,1.11,0,0,0,.32-1.22c-.09-.24-.18-.47-.3-.72a1.13,1.13,0,0,0-.16-.26,11.65,11.65,0,0,1-1.63-2.67l-.05-.1a5.24,5.24,0,0,1-.44-1.07v0a5.94,5.94,0,0,1-.17-2.33c.1-.95.53-.95.69-.95h.2a2.73,2.73,0,0,1,.78.16l.06,0,.12,0,.74.28a1.76,1.76,0,0,1,.4.29l1,1.52c.76,1.14,1.54,2.31,2.35,3.45,1.07,1.51,2.18,3,3.26,4.48L21.61,43c1.69,2.31,3.67,4.58,6.61,5.58l.09,0a11.53,11.53,0,0,0,1.12.29Q29,53.2,28.6,57.47a1.11,1.11,0,0,0,.77,1.17l.32.1a1.26,1.26,0,0,0,.33,0,1.12,1.12,0,0,0,1.08-.86,35.29,35.29,0,0,1,4-9.74l0,0,1-.63.86-.51.08,0,0,0c.51-.31,1-.58,1.45-.83.94-.52,1.91-1,2.84-1.52C43,43.75,44.63,42.9,46.19,42a16.05,16.05,0,0,0,3.68-2.84C53.85,34.86,52.35,29.28,49.86,25.8ZM28.37,43.44,28,43.33h0A7.93,7.93,0,0,1,25.63,42h0l-.24-.17,0,0a18.62,18.62,0,0,1-3.11-3,14.1,14.1,0,0,0,3.52,2.45l.25.1.41.15h0a6,6,0,0,0,1.43.26h0l.13,0-.35-.11h0a12.48,12.48,0,0,1-5.21-3.45,13.52,13.52,0,0,1-1.21-1.61,9.53,9.53,0,0,1-1.08-2.2,10.29,10.29,0,0,0,1.2,1.43,10.16,10.16,0,0,0,2.8,2,.09.09,0,0,0,.06,0,8.19,8.19,0,0,0,2.86.88l.09,0-.1-.07H27a18.35,18.35,0,0,1-6.79-5h0l-.05-.06-.07-.08a1.47,1.47,0,0,1-.25-.36h0a2,2,0,0,1-.1-.26,1,1,0,0,1,0-.24l0-.14h0v0h0a.64.64,0,0,1,.08-.19h0s0,0,0,0v0l0-.06.05,0,0,0,0,0a.69.69,0,0,1,.22-.16h0l0,0,.08,0h.12a1.34,1.34,0,0,1,.37,0h0a6.25,6.25,0,0,1,2.42.75l.06,0a6.23,6.23,0,0,1,.93.47,2.66,2.66,0,0,0,3.21-.15A32,32,0,0,0,30.91,30a6.52,6.52,0,0,1,7.93-1.08,4.71,4.71,0,0,1,2.35,5.76,12.24,12.24,0,0,1-8,8.62,8,8,0,0,1-4.5.24h0ZM19.71,32.5v0Z"/><path class="cls-7" d="M49,26.44l0-.06,0,0-.13-.18a9.8,9.8,0,0,0-1-1.18,1.21,1.21,0,0,1,1-1.51A2.05,2.05,0,0,0,50.26,21c-.17-1-1-1.47-2.19-1.72h0l-.23,0-.23,0c-.23,0-.46-.07-.69-.12l-.47-.1h0l-.15,0-.16-.05-.32-.11s0,0,0,0l-.18-.09-.1-.05a4.29,4.29,0,0,1-.59-.39l-.09-.09-.09-.08-.18-.2h0a19.84,19.84,0,0,0,3.28-2.6h0a1.52,1.52,0,0,0,.46-.62c0-.12,0-.16,0-.16h0L44,15.33h-.1a9,9,0,0,0-2-3h0l-.06-.06h0a.08.08,0,0,0,0,0l0,0-.4-.37h0l0,0c-.18-.16-.38-.32-.57-.46v0a10.39,10.39,0,0,0,.7-5.11A6.86,6.86,0,0,0,39.22,1.5a1.72,1.72,0,0,0-.33-.24l-.11-.05-.11,0-.08,0h-.05l-.18,0h-.22l0,0L38,1.2l-.05,0h0l0,0s0,0,0,0l-.08.06-.05.07a1.37,1.37,0,0,0-.24.73A21.1,21.1,0,0,0,37.69,5h0c-.17-.11-.35-.21-.54-.31h0l-.39-.22-.22-.12-.22-.13-.23-.14-.18-.12-.2-.13-.2-.14-.33-.24h0c-.11-.07-.21-.15-.32-.21l-.17-.11-.33-.19-.26-.14-.25-.12-.34-.16c-.23-.1-.46-.18-.7-.26l-.35-.11-.18,0h0L31.77,2l-.15,0-.3-.05-.38,0-.21,0-.22,0h-.24c-.24,0-.47,0-.71,0h-.45l-.24,0-.18,0h0l-.26,0h-.06L28.13,2l-.05,0L28,2,28,2l-.1,0-.09,0-.09,0-.11.07h0l-.2.13c-.26.18-.45.37-.45.52a2.43,2.43,0,0,0,1,1.66,31.6,31.6,0,0,0,3.34,1.78h0l-.31.1-.3.1h-.05l-.19.08-.05,0-.55.23-.1,0-.1,0-.2.1-.19.11-.19.1-.24.15-.12.08-.12.08-.22.16a5,5,0,0,0-.43.34l-.11.09h0l-.06.06,0,0a1.7,1.7,0,0,0-.19.19l-.19.19-.19.21a8.57,8.57,0,0,0-1.87,4.06,2.14,2.14,0,0,0,.4,1.74l.05,0,0,0h0l.05,0a.05.05,0,0,0,0,0h0l.16,0,.18,0h.12a7.1,7.1,0,0,0,1.14-.13l.11,0,.11,0,.12,0,.24-.12.31-.18.2-.11.09,0h0c.34,2.37.58,3.39,1.33,3.78l.08,0,.09,0,.1,0,.1,0,.1,0,.23,0A8.41,8.41,0,0,0,32,18h0a6,6,0,0,1,.27,1v.15l-.06.35c0,.37-.1.74-.16,1.12-.18,1.09-.37,2.19-.58,3.28a6.22,6.22,0,0,1-3.2,4.2.56.56,0,0,1-.17.09l-.16.1h0c-.34.17-.67.34-1,.49h0l-.68.28c-.23.08-.46.17-.69.24s-.37.12-.55.18a24.55,24.55,0,0,1-9.9.48C14.82,28,15.8,26.54,17,25.2s2.45-2.52,3.67-3.8a6.27,6.27,0,0,0,2.06-5.29A2.1,2.1,0,0,0,22.31,15l-.06,0-.05,0-.05,0-.1,0h0a.78.78,0,0,0-.22,0h-.06a2.25,2.25,0,0,0-.4.07l-.1,0-.09,0a1.66,1.66,0,0,0-.21.06l-.74.17-.43.09-.26.06-.46.1-.34.07h0c.82-1.19,1.43-2.09,2.09-3a23.32,23.32,0,0,0-5.68-4.27,12.22,12.22,0,0,0-1.89-.81c-.26-.09-.52-.17-.79-.24L12,7h0a2.91,2.91,0,0,0-.87-.08H11l-.18,0-.14,0-.11,0-.11,0-.13,0-.06,0h0l-.07,0-.11,0-.19.1a3.12,3.12,0,0,0-.68.53,3,3,0,0,0-.28.33h0a2.81,2.81,0,0,0-.44.94v.06h0a2.11,2.11,0,0,0,.09,1.38h0a1.61,1.61,0,0,1,.68-.64l.09,0,.09,0,.27-.09h.05l.09,0,.1,0,.23,0,.1,0h1l.22,0,.13,0h.18l.19,0,.07,0h0l.2,0h0a5.81,5.81,0,0,1,.63.21,2.87,2.87,0,0,1,.4.18l.2.1.19.11.19.12.17.12.18.14.16.14a1.07,1.07,0,0,1,.16.14c.11.1.21.21.3.31a2.09,2.09,0,0,1,.14.17,2.88,2.88,0,0,1,.26.35l.12.18a1.18,1.18,0,0,1,.11.19l.11.19a1.76,1.76,0,0,1,.09.2,1.42,1.42,0,0,1,.08.18v0a3.43,3.43,0,0,1,.21.64.75.75,0,0,1,0,.16.36.36,0,0,1,0,.11h0l0,.17A6,6,0,0,1,16,16a18.31,18.31,0,0,1-.89,2.87c-.22.59-.46,1.18-.7,1.77h0l0,.09,0,.09a7.19,7.19,0,0,0-.4,2.08v-.05a18.26,18.26,0,0,0-.43-3.63h0v0l0-.19a10.54,10.54,0,0,0-2.07-4.56l0,0h0v0h0l-.11-.15h0s.05,0,.07.06l0,0h0v0h0v0l-.19-.18L11,14.1h0v0h0l-.09-.06L10.85,14h0l-.09,0h-.31a.28.28,0,0,0-.13,0h-.05l-.06,0a.76.76,0,0,0-.19.12.94.94,0,0,0-.1.1h0a.65.65,0,0,0-.15.18l-.49.67h0l-.38.54,0,0h0v0a5.61,5.61,0,0,1-.07-1.23,2.62,2.62,0,0,1,.12-.68A1.64,1.64,0,0,1,9,13.41h-.1l-.18-.05-.07,0-.15,0-.12,0-.13,0-.18,0h0a3.09,3.09,0,0,0-.43,0h0l-.21,0,0,0h0l-.11,0-.2.11,0,.24H7a4.64,4.64,0,0,0-.1,1h0a1.84,1.84,0,0,0,.1.6.61.61,0,0,0,0,.12c.05.1.06.15,0,.16s0,0-.1,0h0l0,0a1.77,1.77,0,0,1-.18-.15l0-.05h0c-.06,0-.11-.11-.17-.17L6.43,15h0l-.12-.14a4.27,4.27,0,0,1-.73-1.11h0l0-.07H5.46l-.09,0-.15.05h0a6.39,6.39,0,0,0-2.53,2.05,7.09,7.09,0,0,0-.88,1.5h0l0,.07v0a4,4,0,0,0-.26.9v0h0a.43.43,0,0,1,0,.05h0c-1,4.09.28,5.88,1.27,6.63h0a3.22,3.22,0,0,0,.74.41l.07,0h.08a11.2,11.2,0,0,1-.06-3.27l0-.16s0-.06,0-.1,0-.05,0-.08V21.9s0-.07,0-.11v0h0v-.05h0l0-.13h0a3,3,0,0,1,.09-.32s0,0,0,0l.06-.2h0a0,0,0,0,0,0,0c0-.08.06-.17.1-.26H4l0-.05,0-.12,0-.09,0-.05.09-.17.07-.13,0,0,.1-.17a1.63,1.63,0,0,0,.11-.17h0l.12-.16h0l.11-.13h0a.6.6,0,0,1,.08-.08.08.08,0,0,1,0,0v0l0,0,0,0,.09-.09.06-.05a.39.39,0,0,1,.1-.08.39.39,0,0,1,.1-.08l.07-.06.21-.14h.05l.12-.08.13-.07L6,18.47l.09,0,.17-.09.34-.17L7,18l.32-.12.3-.09.15,0,.15,0a2.65,2.65,0,0,1,1,0l.24.06.1,0a3.59,3.59,0,0,1,.34.17l.16.11h0l.15.13h0l.11.11.1.11a5.13,5.13,0,0,1,1,2.54c.4,2.36,1.15,4.67,1.75,7h0a27.86,27.86,0,0,0-2.5-1.73l-.19-.09L10,26.11l-.09,0-.1,0-.07,0-.12,0-.1,0-.1,0-.12,0-.13,0H9a4,4,0,0,0-.85.06L8,26l-.14,0h0l-.14.05-.14.05-.41.17-.26.15a3.41,3.41,0,0,0-1.68,2.85,1.51,1.51,0,0,0,.55.94c.43.38.89.73,1.36,1.07l.42.32.62.47h0l-2.27.34-.15,0h0c.1.19.21.37.31.55l0,.05.29.48c.21.34.42.67.64,1a1.88,1.88,0,0,0,.16.23l.16.23.32.42.22.28c.13.17.27.32.39.47l.13.15.15.16.06.07c.2.22.39.42.59.61l.21.21.3.28.29.26.24.21.13.11.13.1.14.11.18.15.21.15h0l.2.14a.51.51,0,0,0,.13.09l.22.15.41.26.45.26h0a5.9,5.9,0,0,0-.25-.63h0a13.41,13.41,0,0,1-1.81-3h0a.43.43,0,0,0,0-.07h0a5.7,5.7,0,0,1-.45-1.09v0a.38.38,0,0,1,0-.1.08.08,0,0,1,0,0,7,7,0,0,1-.2-2.75,2.42,2.42,0,0,1,.64-1.51l.16-.13.05,0,0,0,.23-.12.05,0,.09,0L11,30H12l.36.07.21.05.21.06h0l.15.05,0,0a3.52,3.52,0,0,1,.42.15c.13,0,.26.1.38.15h0l0,0h0a2.18,2.18,0,0,1,.77.62h0c1.12,1.66,2.21,3.35,3.37,5,1.47,2.07,3,4.1,4.49,6.15a16.91,16.91,0,0,0,4,4.15h0l.35.23h0l.37.21.18.1h0l.68.32.48.18h0l.06,0,.3.09a7.45,7.45,0,0,0,1,.22h0c.22,0,.44.06.67.08h0l-.93,9.6.31.1h0A36.31,36.31,0,0,1,34.2,47.52h0l.26-.26.57-.35.58-.35h0s0,0,0,0l.8-.48h0l.06,0h0c.5-.3,1-.59,1.53-.88,2.51-1.37,5.08-2.64,7.55-4.08a15,15,0,0,0,3.43-2.64C52.6,34.56,51.24,29.62,49,26.44ZM11.44,15.15h0ZM12.9,28h0Zm34,.51h0l0,0,.1-.09h0l0,0h0l-.1.1S46.86,28.54,46.86,28.53ZM47.79,25c0,.07.05.31.07.64h0v-.09c0-.15,0-.3-.05-.45s0,0,0-.06Zm-3.2-7.18h0a5.63,5.63,0,0,1,.45-.38l0,0h0l-.52.45Zm-4.19-2.7.09,0H40.4Zm-3.46-3.88h0Zm3.56.21ZM28,43.33A7.93,7.93,0,0,1,25.63,42h0l-.24-.17,0,0a18.62,18.62,0,0,1-3.11-3,14.1,14.1,0,0,0,3.52,2.45l.25.1.41.15h0a6,6,0,0,0,1.43.26h0l.13,0-.35-.11h0a12.48,12.48,0,0,1-5.21-3.45,13.52,13.52,0,0,1-1.21-1.61,9.53,9.53,0,0,1-1.08-2.2,10.29,10.29,0,0,0,1.2,1.43,10.16,10.16,0,0,0,2.8,2,.09.09,0,0,0,.06,0,8.19,8.19,0,0,0,2.86.88l.09,0-.1-.07H27a18.35,18.35,0,0,1-6.79-5h0l-.05-.06-.07-.08a1.47,1.47,0,0,1-.25-.36h0a2,2,0,0,1-.1-.26,1,1,0,0,1,0-.24l0-.14h0v0h0a.64.64,0,0,1,.08-.19h0s0,0,0,0v0l0-.06.05,0,0,0,0,0a.69.69,0,0,1,.22-.16h0l0,0,.08,0h.12a1.34,1.34,0,0,1,.37,0h0a6.25,6.25,0,0,1,2.42.75l.06,0a6.23,6.23,0,0,1,.93.47,2.66,2.66,0,0,0,3.21-.15A32,32,0,0,0,30.91,30a6.52,6.52,0,0,1,7.93-1.08,4.71,4.71,0,0,1,2.35,5.76,12.24,12.24,0,0,1-8,8.62,8,8,0,0,1-4.5.24h0l-.33-.1L28,43.33ZM19.71,32.5v0Z"/><path class="cls-7" d="M34.19,47.52ZM49,26.44a.25.25,0,0,1,0-.06l0,0a1.29,1.29,0,0,0-.13-.18L48.61,26c-.16-.2-.5-.24-.76-.35A3.33,3.33,0,0,1,47,28.39H47s0,0,0,0l-.07.05h0s0,0,0,0h0A2.36,2.36,0,0,1,45.7,29a2.32,2.32,0,0,1-2.85-1.78,10.27,10.27,0,0,1,0-3.41c.53-2.81,1.28-5.57,1-8.46a9.23,9.23,0,0,0-2-3h0l-.07-.06h0l0,0,0,0-.43-.39-.21-.13L41,11.68l-.1-.06-.16-.07-.11-.05-.13-.05h0l-.28-.09c-.45,0-.89-.11-1.33-.14h0c-.37,0-.74-.05-1.11-.05l-.47,0H37.1l-.19,0-.1,0-.11,0-.2.05-.18,0h0l-.09,0h0l-.07,0-.29.11-.16.08-.11.05-.27.15-.08.06-.14.09-.16.12a2.61,2.61,0,0,0-.31.27l-.12.12h0l-.13.14a4.52,4.52,0,0,0-.37.47.86.86,0,0,0-.07.1l-.07.11-.08.13a2,2,0,0,0-.14.25s-.05.08-.06.11l0,0a2.56,2.56,0,0,1-.11.24v0a1.21,1.21,0,0,1,0,.14l0,.11-.09.23a1.42,1.42,0,0,1,0,.16v0c0,.06,0,.12-.07.19v0c-.07.21-.14.44-.21.7,0,.1,0,.21-.08.32l-.09.34c0,.12,0,.24-.08.37s0,.25-.08.38l-.06.32c0,.25-.09.51-.13.79l0,.22c0,.1,0,.21,0,.32a3.06,3.06,0,0,0,0,.32h0v0a.49.49,0,0,1,0,.12c0,.12,0,.23-.05.35,0,.37-.11.74-.17,1.12-.17,1.09-.37,2.19-.58,3.28a6.2,6.2,0,0,1-3.19,4.2l-.17.09-.16.1h0l-1,.49h0l-.68.28c-.23.08-.46.17-.69.24s-.37.12-.55.18a24.55,24.55,0,0,1-9.9.48h0A7.15,7.15,0,0,1,14.2,28c-.17-1.36-.24-2.74-.32-4.11a.53.53,0,0,0,0-.13h0l-.06-1.15c-.05-.29-.09-.59-.15-.88h0a1.06,1.06,0,0,1,0-.19h0c-.13-.65-.26-1.31-.4-2a.08.08,0,0,1,0,0h0c-.12-.55-.24-1.1-.38-1.64s-.25-.9-.39-1.34a3.16,3.16,0,0,0-.86-1.25l-.14-.12h0L11.3,15a5.43,5.43,0,0,0-.61-.41c-.34-.17-1,.27-1.44.48h0c-.24.35-.34.48-.37.54h0a5.61,5.61,0,0,1-.07-1.23.5.5,0,0,0-.27-.28c-.69-.23-1.34-.15-1.63.52h0a1.85,1.85,0,0,0,.09.6l0,.12,0,0a.25.25,0,0,1,0,.07s0,0,0,.05,0,0-.1,0h0l0,0a1.77,1.77,0,0,1-.18-.15l0,0v0c-.06,0-.11-.11-.17-.17L6.43,15h0l0,0-.09-.1a3.81,3.81,0,0,0-4,1.51l-.06.11a2.41,2.41,0,0,0-.15.33c-.08.2-.14.39-.2.58a11.47,11.47,0,0,0-.35,1.49,9.27,9.27,0,0,0,.67,5.29,3.55,3.55,0,0,0,.51.89h0a1.32,1.32,0,0,0,.87.45h0v-.05a0,0,0,0,0,0,0v0h0s0-.05,0-.08a1,1,0,0,0,0-.15.13.13,0,0,0,0-.06v0a.28.28,0,0,0,0-.09c0-.13,0-.28,0-.45s0-.1,0-.16a8.48,8.48,0,0,1,0-.89v-.3q0-.31.06-.66a1.11,1.11,0,0,1,0-.17,2.51,2.51,0,0,1,0-.27s0-.06,0-.1,0-.05,0-.08V21.9s0-.07,0-.11h0v0h0v-.05l0-.12v0h0c0-.06,0-.12,0-.18l0-.09,0-.1a.24.24,0,0,1,0-.08s0-.08,0-.12h0a0,0,0,0,0,0,0c0-.08.06-.17.1-.26H4a1.11,1.11,0,0,1,.07-.16.36.36,0,0,1,0-.09l0-.05,0-.06.09-.17,0-.07,0,0a.57.57,0,0,1,.08-.13l0,0v0l.1-.15h0l0,0,.1-.15.11-.12h0l.06-.07.06-.05v0l0,0,0,0H5l.15-.14L5.23,19h0l.06-.05.06-.05.11-.09.11-.07h.07l.09-.06.18-.1L6,18.47l.09,0,.17-.09.34-.17L7,18l.32-.12.3-.09.15,0a.8.8,0,0,1,.15,0,2.65,2.65,0,0,1,1,0l.24.06.1,0a3.59,3.59,0,0,1,.34.17l.16.11h0l.15.13h0l.11.11.1.11a5.13,5.13,0,0,1,1,2.54c.39,2.36,1.15,4.67,1.74,7h0v0h0l0,0,0,0,.06.09a.77.77,0,0,0,.09.13l.21.31.11.15,0,0a.18.18,0,0,1,.05.07l.1.14c.2.3.41.59.61.88s.2.3.29.45l0,0v0l.25.38s0,.14,0,.24h0l-.09.2h0c1.12,1.66,2.21,3.35,3.37,5,1.47,2.07,3,4.1,4.5,6.15a16.39,16.39,0,0,0,4,4.15h0l.35.23h0l.37.21.18.1h0c.22.12.45.22.68.32l.48.18h0l.06,0,.3.09a7.45,7.45,0,0,0,1,.22h0c.22,0,.44.06.67.08h0l.3,0,1.68-.21h0a12.12,12.12,0,0,0,3-1.16h0s0,0,0,0L36.5,46l0,0h0c.5-.3,1-.59,1.52-.88,2.51-1.37,5.09-2.64,7.56-4.08a15.17,15.17,0,0,0,3.42-2.64C52.6,34.56,51.23,29.62,49,26.44Zm-7.76,8.24a12.24,12.24,0,0,1-8,8.62,8,8,0,0,1-4.5.24h0c-.24-.06-.47-.13-.71-.21h0A7.93,7.93,0,0,1,25.63,42h0l-.24-.17,0,0a18.62,18.62,0,0,1-3.11-3,14.1,14.1,0,0,0,3.52,2.45l.36.08,1.2.3.23.06.3.07.13,0-.35-.11h0a12.48,12.48,0,0,1-5.21-3.45,4.88,4.88,0,0,1-1.21-1.61,9.53,9.53,0,0,1-1.08-2.2,10.29,10.29,0,0,0,1.2,1.43,13.84,13.84,0,0,0,2.8,2,.09.09,0,0,0,.06,0,8.19,8.19,0,0,0,2.86.88l.09,0-.1-.07H27a18.35,18.35,0,0,1-6.79-5h0l-.05-.06-.07-.08-.17-.18a.39.39,0,0,1-.11-.15l0,0h0v0a.14.14,0,0,1,0-.06,2.12,2.12,0,0,1-.12-.45,1.16,1.16,0,0,1,0-.18l0-.12,0-.11.39-.15.4-.15,0,0h.22a.51.51,0,0,1,.21,0h.06a6.25,6.25,0,0,1,2.42.75l.06,0a6.23,6.23,0,0,1,.93.47,2.66,2.66,0,0,0,3.21-.15A32,32,0,0,0,30.91,30a6.52,6.52,0,0,1,7.93-1.08A4.71,4.71,0,0,1,41.19,34.68Zm.21-19.1v0l0,0a1,1,0,0,1-.2.2c-.69.49-1.94,0-3.06-1.07a13.68,13.68,0,0,0,2.11.38l.18,0,.09,0,.07,0,.07,0,.06,0,.07,0,.07,0s0,0,0,0l.05,0,.09-.09.07-.06.06-.08a1,1,0,0,0,.11-.15.22.22,0,0,0,0-.08.75.75,0,0,0,.07-.12.93.93,0,0,0,.05-.1l0-.1,0,.05a1.57,1.57,0,0,0,.13-.32h0a2.86,2.86,0,0,1,.05.55c.06.07.12.13.17.2C41.7,14.88,41.59,15.29,41.4,15.58Z"/><path class="cls-8" d="M34.2,47.52h0A36.31,36.31,0,0,0,30,57.68l-.32-.11c.31-3.19.62-6.4.93-9.6l.3,0a7.73,7.73,0,0,0,1.68-.21h0a11.88,11.88,0,0,0,3-1.16l-1.14.7A3.19,3.19,0,0,0,34.2,47.52Z"/><path class="cls-9" d="M40.73,11.4l.58.46a3.86,3.86,0,0,0-1.11-.51,7.19,7.19,0,0,0-3-.17,3.89,3.89,0,0,0-3.24,1.89h0a4.68,4.68,0,0,0-.33.61.3.3,0,0,0-.06.11l0,0A18,18,0,0,0,32.25,19,4.76,4.76,0,0,0,32,18a8.41,8.41,0,0,1-1.31,0c-1.34-.14-1.61-1-2-4a4.18,4.18,0,0,1-1.18.56c-.61.09-1.43.27-1.82,0a2.07,2.07,0,0,1-.4-1.74,8,8,0,0,1,6-6.58,32.43,32.43,0,0,1-3.33-1.78,2.36,2.36,0,0,1-1-1.66c0-.33.93-.89,1.49-1A9.31,9.31,0,0,1,35.5,3.67c.7.51,1.49.89,2.19,1.31a21.07,21.07,0,0,1-.15-2.83c.08-1.06.88-1.36,1.67-.65a6.83,6.83,0,0,1,2.24,4.76A10.4,10.4,0,0,1,40.73,11.4Z"/><path class="cls-7" d="M20.32,31.85h0l-.08,0,0,0h0a.69.69,0,0,0-.22.16l0,0,0,0-.05,0,0,.06v0s0,0,0,0h0a.64.64,0,0,0-.08.19h0v0h0l0,.14v.16s0,.06,0,.09,0,.07,0,.1v0c0-.13-.07-.27-.1-.41a1.16,1.16,0,0,1,0-.18l0-.12,0-.11.39-.15.4-.15Z"/><path class="cls-8" d="M19.78,33.2A.71.71,0,0,1,19.7,33,1.42,1.42,0,0,0,19.78,33.2Z"/><path class="cls-8" d="M40.2,11.35l-1.33-.14h0c-.37,0-.74-.05-1.11-.05a4.63,4.63,0,0,0-.54,0,4.35,4.35,0,0,0-2.88,1.44l.17-.25a2.56,2.56,0,0,0-.57.69,3.89,3.89,0,0,1,3.24-1.89A7.19,7.19,0,0,1,40.2,11.35Z"/><path class="cls-8" d="M34.5,12.38l-.17.25a5.51,5.51,0,0,0-.73,1.06A3.53,3.53,0,0,1,34.5,12.38Z"/><path class="cls-8" d="M20.61,21.4c-1.21,1.28-2.53,2.46-3.67,3.8S14.81,28,15.08,30A7.15,7.15,0,0,1,14.2,28c-.17-1.36-.24-2.74-.32-4.11,0-.43-.05-.86-.07-1.29a12.54,12.54,0,0,1,.12,1.27,8.9,8.9,0,0,1,.43-3l0-.09,0-.09h0c.25-.59.49-1.18.71-1.77A18.27,18.27,0,0,0,16,16a5.22,5.22,0,0,0-4-6.31L12,9.7l-.19,0-.6-.06h-.51l-.35,0-.16,0a2,2,0,0,0-1.6.91,2.25,2.25,0,0,1-.09-1.44v0a3.07,3.07,0,0,1,.45-.94A3,3,0,0,1,12,7a13.08,13.08,0,0,1,3.07,1.15,23.46,23.46,0,0,1,5.67,4.27l-2.08,3c.94-.21,1.59-.33,2.22-.49,1.34-.36,1.57-.21,1.75,1.15A6.21,6.21,0,0,1,20.61,21.4Z"/><path class="cls-10" d="M10.66,9.6l-.35,0Z"/><path class="cls-11" d="M48.74,23.47a1.22,1.22,0,0,0-1,1.51h0c0,.22.06.44.07.66h0A3.33,3.33,0,0,1,47,28.39h0a.78.78,0,0,0-.16.15h0A2.36,2.36,0,0,1,45.7,29a2.32,2.32,0,0,1-2.85-1.78,10.27,10.27,0,0,1,0-3.41c.53-2.81,1.28-5.57,1-8.46l3.79-.71.18.4c-.71,1.31-2.26,1.77-3.32,2.84,1,1.14,2.32,1.18,3.53,1.41s2,.77,2.19,1.72A2,2,0,0,1,48.74,23.47Z"/><path class="cls-8" d="M47,28.41l-.15.14A1,1,0,0,1,47,28.41Z"/><path class="cls-8" d="M47,28.4h0a0,0,0,0,1,0,0Z"/><path class="cls-8" d="M30.93,47.93l1.68-.21A7.73,7.73,0,0,1,30.93,47.93Z"/><polygon class="cls-8" points="34.2 47.52 34.19 47.52 34.2 47.52 34.2 47.52"/><path class="cls-8" d="M27,38.73h0Z"/><path class="cls-7" d="M27.56,41.69a3.25,3.25,0,0,1-1.13-.19L26,41.35l-.25-.1.36.08,1.2.3Z"/><path class="cls-7" d="M22.42,38.23a4.88,4.88,0,0,1-1.21-1.61A13.52,13.52,0,0,0,22.42,38.23Z"/><path class="cls-8" d="M24.13,37.87a10.16,10.16,0,0,1-2.8-2A13.84,13.84,0,0,0,24.13,37.87Z"/><path class="cls-8" d="M28.7,43.54c-.24-.06-.47-.13-.71-.21l.38.11Z"/><path class="cls-7" d="M41.87,14.56c-.17.32-.28.73-.47,1a2.41,2.41,0,0,0,.3-1.22Z"/><path class="cls-8" d="M11.77,9.67c-.16,0-.37-.05-.6-.06Z"/><path class="cls-7" d="M15.08,30l-1.15-.81-.36-2-.4-2.86L13,22.62l.54-.75.09-.13c.06.29.1.59.14.88a10.33,10.33,0,0,1,.13,1.27c0,.14,0,.28,0,.42v0A20.46,20.46,0,0,0,15.08,30Z"/><path class="cls-7" d="M13.94,24.31v0l-.06-.42-.31-2-.36-2.34s0,0,0,0c0,.22.24,1,.4,1.95v0l0,.2c.06.29.1.59.14.88a10.33,10.33,0,0,1,.13,1.27A3,3,0,0,1,13.94,24.31Z"/><path class="cls-7" d="M13.94,24l-.07-.23-2.41-8.21-.08-.26L11.3,15l-.26-.9,0,0a1.4,1.4,0,0,1,.18.13l.05.07.15.18c.19.25.37.49.53.75h0C14.34,19,13.94,24,13.94,24Z"/><path class="cls-7" d="M8.84,15.65l-6.56.87.06-.11a6.81,6.81,0,0,1,3.23-2.62h0A4.84,4.84,0,0,0,6.3,14.9c.48.55.92.87.71.49l0-.12a1.85,1.85,0,0,1-.09-.6,5.58,5.58,0,0,1,.09-1,5.49,5.49,0,0,1,1.93.09,3.13,3.13,0,0,0-.12.68A5.61,5.61,0,0,0,8.84,15.65Z"/><path class="cls-7" d="M11.94,15.24l-.36,0-.14,0-2.57.35c0-.06.13-.19.37-.54l.49-.67a1.43,1.43,0,0,1,.15-.18h0a1.05,1.05,0,0,1,1.5.16v0A3.16,3.16,0,0,1,11.94,15.24Z"/><path class="cls-7" d="M11.52,16.7H9.87l-4,.83L1.58,18.92l-.12,0a4.76,4.76,0,0,1,1.22-3.07,5.83,5.83,0,0,1,2.86-2.17l0,.07h0A4.84,4.84,0,0,0,6.3,14.9c.48.55.92.87.71.49l0-.12a1.85,1.85,0,0,1-.09-.6,5.58,5.58,0,0,1,.09-1l0-.24c.7-.47,2,0,2,0a1.66,1.66,0,0,0-.15.33,3.13,3.13,0,0,0-.12.68,5.61,5.61,0,0,0,.07,1.23v0l0,0c0-.06.13-.19.37-.54l.49-.67a1.43,1.43,0,0,1,.15-.18h0A.83.83,0,0,1,11,14.1a1.4,1.4,0,0,1,.18.13l.18.18v0h0v0l0,.67v.15l0,.27Z"/><path class="cls-7" d="M13.54,19.26s-.79-4.16-2.7-5.26Z"/><path class="cls-7" d="M3.67,25.57h0a3,3,0,0,1-.89-.46c-1-.74-2.34-2.54-1.27-6.7q.12-.48.3-1l.13,0,2.29.63,1.72.47C2.64,20.22,3.67,25.57,3.67,25.57Z"/><path class="cls-8" d="M13.21,40a5,5,0,0,1-.77-.35,13.78,13.78,0,0,1-1.81-1.2l-.14-.11-.12-.1a.69.69,0,0,1-.13-.11c-.18-.14-.35-.3-.54-.47l-.3-.28-.21-.21a16.15,16.15,0,0,1-1.31-1.46c-.07-.09-.15-.18-.22-.28L7.33,35l-.16-.22L7,34.51c-.21-.3-.43-.63-.64-1-.09-.16-.19-.32-.29-.48s0,0,0-.05l-.32-.55,4.09,2.22h0s0,0,0,0,.23.64.52,1.29h0a12.69,12.69,0,0,0,1.81,3A6,6,0,0,0,13.21,40Z"/><path class="cls-7" d="M14.63,31.23a3,3,0,0,0-1.71-1c-1.32-.37,1.58-.35,1.58-.35l1.13.87Z"/><path class="cls-12" d="M9.63,31.93a7.36,7.36,0,0,0,.2,2.75s0,0,0,0A7.11,7.11,0,0,0,10.36,36h0a12.69,12.69,0,0,0,1.81,3c.09.21.18.42.26.64a13.78,13.78,0,0,1-1.81-1.2l-.14-.11-.12-.1a.69.69,0,0,1-.13-.11L10,37.88l-.3-.26-.3-.28-.21-.21c-.19-.19-.39-.39-.58-.61l-.21-.23c-.17-.2-.35-.4-.52-.62s-.15-.18-.22-.28L7.33,35l-.16-.22L7,34.51c-.21-.3-.43-.63-.64-1-.09-.16-.19-.32-.29-.48s0,0,0-.05l-.32-.55.16,0,2.27-.34-.62-.47-.43-.32c-.46-.34-.92-.69-1.36-1.07a1.51,1.51,0,0,1-.55-.94,3.58,3.58,0,0,1,5.16-3A26.64,26.64,0,0,1,12.88,28h0c.55.8,1.1,1.58,1.63,2.38l.25.38s0,.14,0,.24a8.19,8.19,0,0,0-3.2-1C10.44,29.94,9.76,30.69,9.63,31.93Z"/><path class="cls-8" d="M15.57,31.45c-.07,0-.39-.21-.84-.43a8.19,8.19,0,0,0-3.2-1l1.35-2h0a27.81,27.81,0,0,0,1.63,2.38A4.09,4.09,0,0,0,15.57,31.45Z"/><path class="cls-8" d="M12.88,28a24.42,24.42,0,0,0,2.69,3.44L12.74,30Z"/><path class="cls-8" d="M19.8,33.17,19.71,33h0v-.11A2,2,0,0,0,19.8,33.17Z"/><path class="cls-8" d="M27.14,38.8l-.1,0-.06,0H27Z"/><path class="cls-9" d="M41.19,34.68a12.24,12.24,0,0,1-8,8.62,8,8,0,0,1-4.5.24h0l-.33-.1L28,43.33h0A7.93,7.93,0,0,1,25.63,42h0l-.24-.17,0,0a18.62,18.62,0,0,1-3.11-3,14.1,14.1,0,0,0,3.52,2.45l.25.1.41.15h0a6,6,0,0,0,1.43.26h0l.13,0-.35-.11h0a12.48,12.48,0,0,1-5.21-3.45,13.52,13.52,0,0,1-1.21-1.61,9.53,9.53,0,0,1-1.08-2.2,10.29,10.29,0,0,0,1.2,1.43,10.16,10.16,0,0,0,2.8,2,.09.09,0,0,0,.06,0,8.19,8.19,0,0,0,2.86.88l.09,0-.1-.07H27a18.35,18.35,0,0,1-6.79-5h0l-.05-.06-.07-.08a1.47,1.47,0,0,1-.25-.36h0a2,2,0,0,1-.1-.26,1,1,0,0,1,0-.24l0-.14h0v0h0a.64.64,0,0,1,.08-.19h0s0,0,0,0v0l0-.06.05,0,0,0,0,0a.69.69,0,0,1,.22-.16h0l0,0,.08,0h.12a1.34,1.34,0,0,1,.37,0h0a6.25,6.25,0,0,1,2.42.75l.06,0a6.23,6.23,0,0,1,.93.47,2.66,2.66,0,0,0,3.21-.15A32,32,0,0,0,30.91,30a6.52,6.52,0,0,1,7.93-1.08A4.71,4.71,0,0,1,41.19,34.68Z"/><path class="cls-8" d="M27.05,38.78a8.19,8.19,0,0,1-2.86-.88,8.25,8.25,0,0,0,2.79.82H27v.05Z"/><path class="cls-8" d="M19.71,32.5v0Z"/><path class="cls-8" d="M19.87,32.18l0,.06,0,0S19.86,32.19,19.87,32.18Z"/><path class="cls-8" d="M19.71,32.5v0Z"/><path class="cls-8" d="M19.7,32.53l0,.14a.09.09,0,0,0,0-.05A.29.29,0,0,1,19.7,32.53Z"/><path class="cls-8" d="M20.06,33.53l-.17-.18a.53.53,0,0,1-.11-.15l0,0h0v0a.14.14,0,0,1,0-.06l0,0s0,0,0-.07,0-.06,0-.09a.86.86,0,0,1,0-.16,1,1,0,0,0,0,.24,2,2,0,0,0,.1.26h0A1.47,1.47,0,0,0,20.06,33.53Z"/><path class="cls-8" d="M20.8,31.8a1.34,1.34,0,0,0-.37,0h.11a.51.51,0,0,1,.21,0h.05Z"/><polygon class="cls-8" points="20.81 31.8 20.81 31.8 20.8 31.8 20.81 31.8"/><path class="cls-8" d="M27.89,41.77a6,6,0,0,1-1.43-.26h0a3.25,3.25,0,0,0,1.13.19l.3.07Z"/><path class="cls-7" d="M28,43.33a6.61,6.61,0,0,1-2.61-1.5l.24.17h0A7.93,7.93,0,0,0,28,43.33Z"/><path class="cls-7" d="M27.89,41.77a6,6,0,0,1-1.43-.26h0a.84.84,0,0,1-.3-.17c-.12-.1,0-.18,0-.18l.34.15,1.42.46Z"/><path class="cls-8" d="M20.32,31.85h0l-.08,0,.05,0Z"/><path class="cls-8" d="M20.38,31.84h0Z"/><polygon class="cls-8" points="20.81 31.8 20.81 31.8 20.8 31.8 20.81 31.8"/><path class="cls-7" d="M20.13,33.61l-.64.58-.64-.62L19,32.1s.77-.27.87-.08c0,0,0,.11,0,.2l0,0v0s0,0,0,0h0a.64.64,0,0,0-.12.33.09.09,0,0,1,0,.05,1,1,0,0,0,0,.24,2,2,0,0,0,.1.26h0a1.47,1.47,0,0,0,.25.36Z"/><path class="cls-7" d="M34.5,12.38l-.17.25-.77,1.14a.3.3,0,0,1,0-.08A3.53,3.53,0,0,1,34.5,12.38Z"/><path class="cls-7" d="M40.86,12.13c-.16.39-1,.73-1,.73L35.32,14,34,13.1l0,0h0a3.89,3.89,0,0,1,3.24-1.89,7.47,7.47,0,0,1,1.69,0h0C40.64,11.43,41,11.79,40.86,12.13Z"/><path class="cls-7" d="M41.87,12.38h0l-1-.25-3.65-.94h0a7.19,7.19,0,0,1,3,.17,3.86,3.86,0,0,1,1.11.51A2.27,2.27,0,0,1,41.87,12.38Z"/><path class="cls-8" d="M41.51,14.14a1.64,1.64,0,0,1-1.29,1c.48,0,.91-.29,1.25-1.05Z"/><path class="cls-8" d="M41.37,15.63l0,0,0,0Z"/><path class="cls-8" d="M41.7,14.36a2.41,2.41,0,0,1-.3,1.22v0l0,0a1,1,0,0,1-.2.2c-.69.49-1.94,0-3.06-1.07a15,15,0,0,0,2.11.38,1.64,1.64,0,0,0,1.29-1,1.84,1.84,0,0,0,.13-.32h0A2.86,2.86,0,0,1,41.7,14.36Z"/><path class="cls-7" d="M41.65,13.81h0a1.84,1.84,0,0,1-.13.32,1.64,1.64,0,0,1-1.29,1Z"/><path class="cls-7" d="M36.55,46h0c-.06,0-.4.27-.94.56a11.88,11.88,0,0,1-3,1.16h0a7.73,7.73,0,0,1-1.68.21,7,7,0,0,1-.79,0l-.2,0h0a5.05,5.05,0,0,1-1.26-.31l-.07,0Z"/><path class="cls-7" d="M49,26.44l-.6,3.47s-2.3-.49-1.51-1.36h0a1,1,0,0,1,.15-.14,0,0,0,0,1,0,0,3.33,3.33,0,0,0,.83-2.75,4.6,4.6,0,0,0-.07-.66h0a8.91,8.91,0,0,1,1,1.18l.13.18,0,0A.25.25,0,0,0,49,26.44Z"/><path class="cls-8" d="M44.53,17.88s3.09-2,3.75-3.24Z"/><path class="cls-8" d="M43.88,15.35l4.4-.87s.15.19-.46.79Z"/><path class="cls-9" d="M33.11,14.92a5.17,5.17,0,0,1,5.41-3.82c4.52.14-1.35-1.9-1.35-1.9H30.46l.4,3.18Z"/><path class="cls-7" d="M40.73,11.4s-.69-.69-3.81-.16l.81.85Z"/><path class="cls-7" d="M40,11.12a3.76,3.76,0,0,1,2.28,1.51Z"/><path class="cls-8" d="M48.22,14.79S45.09,18,43.88,18.1a13.28,13.28,0,0,0,0-2.75"/><path class="cls-6" d="M81,63.34s3.8.18,4-.52"/><path class="cls-13" d="M113.59,36.59a2.44,2.44,0,0,1,.92.94,2.72,2.72,0,0,1,.34,1.34,2.75,2.75,0,0,1-.34,1.34,2.38,2.38,0,0,1-.92.94,2.58,2.58,0,0,1-1.33.34,2.63,2.63,0,0,1-1.35-.34,2.38,2.38,0,0,1-.92-.94,2.74,2.74,0,0,1-.33-1.34,2.72,2.72,0,0,1,.33-1.34,2.44,2.44,0,0,1,.92-.94,2.73,2.73,0,0,1,1.35-.34A2.68,2.68,0,0,1,113.59,36.59Zm.16,3.8a2.09,2.09,0,0,0,.57-1.52,2.13,2.13,0,0,0-.57-1.53,2,2,0,0,0-1.49-.59,2,2,0,0,0-1.49.59,2.12,2.12,0,0,0-.56,1.53,2.08,2.08,0,0,0,.56,1.52,1.93,1.93,0,0,0,1.49.59A2,2,0,0,0,113.75,40.39Zm-.5-1.54a.87.87,0,0,1-.44.3l.72,1.06-.81,0-.62-1h-.21v1h-.67V37.47h1.23a1.05,1.05,0,0,1,.7.23.83.83,0,0,1,.26.63A.81.81,0,0,1,113.25,38.85Zm-1.36-.2h.52a.32.32,0,0,0,.24-.08.27.27,0,0,0,.1-.21.27.27,0,0,0-.1-.22.43.43,0,0,0-.24-.07h-.52Z"/><path class="cls-13" d="M60.17,62.81a5.18,5.18,0,0,1-1.59-.13,2.07,2.07,0,0,1-1.75-2.08,6,6,0,0,1,.09-1.68q1.44-10.83,2.14-21.75a1.12,1.12,0,0,1,.46-1.05.79.79,0,0,1,.22-.06,1.39,1.39,0,0,1,.49,0,6.09,6.09,0,0,1,1.41.45,2.56,2.56,0,0,1,1.51,2.24,6.79,6.79,0,0,1,0,1.56l-.9,9.48a5,5,0,0,0,2.4-1.1,6.69,6.69,0,0,0,1.69-2.09,8.56,8.56,0,0,0,.86-2.57,16.72,16.72,0,0,0,.15-4.36,7.56,7.56,0,0,0-2.18-5,4.93,4.93,0,0,0-2.07-1.15,4.38,4.38,0,0,0-1.44-.09,5.42,5.42,0,0,0-3.49,1.77,8.33,8.33,0,0,0-2,5,19.7,19.7,0,0,0,0,3.26c.09,1,.18,1.78.27,2.3a.5.5,0,0,1,0,.23c0,.08-.14.15-.32.22a3.39,3.39,0,0,1-.48.08,3,3,0,0,1-2-.53,4.47,4.47,0,0,1-1.95-3.55A8.79,8.79,0,0,1,52,38.8a12.91,12.91,0,0,1,1.34-3.08,10.17,10.17,0,0,1,6.09-4.58,9.19,9.19,0,0,1,1.39-.25,9.88,9.88,0,0,1,3.91.44,10,10,0,0,1,3.47,1.93,9.48,9.48,0,0,1,1.62,1.83,11.06,11.06,0,0,1,1.65,5,14,14,0,0,1-.63,5.69,11.74,11.74,0,0,1-1.94,3.56A10.25,10.25,0,0,1,66,51.79a8.8,8.8,0,0,1-3.59,1.15l-.54,0-.86,8.81a1.33,1.33,0,0,1-.21.74A1.15,1.15,0,0,1,60.17,62.81Z"/><path class="cls-13" d="M77.71,57.57a4.59,4.59,0,0,1-1,0,5.14,5.14,0,0,1-2.88-1.34,7.2,7.2,0,0,1-2.33-4.88,11.82,11.82,0,0,1,.36-4.16,11.72,11.72,0,0,1,1.85-4.39,6.61,6.61,0,0,1,3.9-2.67A2.82,2.82,0,0,1,78.2,40a3,3,0,0,1,1.75.29,2.64,2.64,0,0,1,1.1,1.12A4.2,4.2,0,0,1,81.52,43a5.66,5.66,0,0,1-.78,3.32,9.43,9.43,0,0,1-2,2.21,25.37,25.37,0,0,1-2.48,1.77.84.84,0,0,0-.31.28,3.31,3.31,0,0,0,0,1.24,7,7,0,0,0,.92,2.87,2.15,2.15,0,0,0,1.53.44,3.78,3.78,0,0,0,2.09-1.08,12.23,12.23,0,0,0,2.34-3,26.12,26.12,0,0,0,1.61-3.48c.25-.65.57-1,1-1A.69.69,0,0,1,86,47a.86.86,0,0,1,.13.4c0,.5-.46,1.8-1.53,3.87a22.74,22.74,0,0,1-1.34,2.34A9.12,9.12,0,0,1,79.79,57,5.78,5.78,0,0,1,77.71,57.57Zm-1.71-9a9.28,9.28,0,0,0,3-2.69,4.31,4.31,0,0,0,.8-1.67,2.65,2.65,0,0,0-.23-1.49.57.57,0,0,0-.59-.38,1.07,1.07,0,0,0-.76.48,8.91,8.91,0,0,0-1.87,3.84C76.24,47.27,76.1,47.9,76,48.54Z"/><path class="cls-13" d="M95.44,46.14c0-.48,0-1-.06-1.43A7.59,7.59,0,0,0,93.55,40a3.54,3.54,0,0,0-2.88-1.1,4.62,4.62,0,0,0-3.22,2.23,2.55,2.55,0,0,0-1-1.61A4,4,0,0,0,85.19,39l-.47-.17a1.06,1.06,0,0,0-.49-.07.78.78,0,0,0-.53.27.66.66,0,0,0-.2.54l0,.37a8.3,8.3,0,0,1,0,1.41c-.06,1.75-.2,3.72-.42,5.93-.12,1.24-.24,2.53-.37,3.86s-.25,2.44-.37,3.7v0c-.38,3.63-.66,6.43-.91,9.54a9.15,9.15,0,0,0,4.11-.53c.12-1.51.14-1.45.4-4.29l.33-3.84c0,.09.21.22.61.39a4.11,4.11,0,0,0,1.53.27l.56,0a7.49,7.49,0,0,0,4.15-2.81l-.14.08a10.3,10.3,0,0,0,1.25-2,10.1,10.1,0,0,0,.8-2.38,17.08,17.08,0,0,0,.3-2c0-.12,0-.22,0-.32s0-.1,0-.14v-.16c0-.16,0-.33,0-.49v-.15Zm-4.09.07A18.23,18.23,0,0,1,90.49,51a7.53,7.53,0,0,1-1.08,2.14,2.2,2.2,0,0,1-1.57,1c-.66.06-1-.45-1.15-1.54a6,6,0,0,1,0-.94l.43-5a10.45,10.45,0,0,1,1.56-4.18,3.75,3.75,0,0,0,.27-.36,4.69,4.69,0,0,1,.42-.55.88.88,0,0,1,.57-.29.67.67,0,0,1,.52.21l.14.23.26.58c.09.22.17.41.22.58a8.68,8.68,0,0,1,.22,1.29A20.26,20.26,0,0,1,91.35,46.21Z"/><path class="cls-13" d="M107.53,49.11a6.74,6.74,0,0,0-.94.9c-.17.23-.35.46-.54.68h0a0,0,0,0,1,0,0,10.88,10.88,0,0,1-.94,1,3.62,3.62,0,0,1-.42.36h0c-2.54,1.58-3.6-.56-3.64-.65h0a6.57,6.57,0,0,1-.48-1.94,3.54,3.54,0,0,1,0-1.24.76.76,0,0,1,.32-.27,29.11,29.11,0,0,0,2.47-1.77,10,10,0,0,0,2-2.22,5.57,5.57,0,0,0,.77-3.32A4,4,0,0,0,105.7,39a2.68,2.68,0,0,0-1.09-1.12,3,3,0,0,0-1.76-.29,4.19,4.19,0,0,0-.57.09,6.59,6.59,0,0,0-3.89,2.67,11.55,11.55,0,0,0-1.86,4.4,11.74,11.74,0,0,0-.36,4.15,7.14,7.14,0,0,0,2.34,4.88,4.81,4.81,0,0,0,3.85,1.35,5.73,5.73,0,0,0,2.08-.61,7,7,0,0,0,1.07-.66h0A4.78,4.78,0,0,0,107.53,49.11Zm-6.48-4.88a8.78,8.78,0,0,1,1.88-3.83,1,1,0,0,1,.76-.49.56.56,0,0,1,.58.38,2.37,2.37,0,0,1,.25.86,2.63,2.63,0,0,1,0,.64,4.3,4.3,0,0,1-.8,1.67,9.27,9.27,0,0,1-3,2.68C100.76,45.51,100.89,44.87,101.05,44.23Z"/><path class="cls-13" d="M107.53,49.11a6.74,6.74,0,0,0-.94.9,11,11,0,0,0,.84-1.29A3.07,3.07,0,0,1,107.53,49.11Z"/><path class="cls-13" d="M95.37,47.4a17.08,17.08,0,0,1-.3,2,10.1,10.1,0,0,1-.8,2.38A14.35,14.35,0,0,0,95.37,47.4Z"/><path class="cls-13" d="M95.4,47.08c0,.1,0,.2,0,.32Z"/><path class="cls-13" d="M87.68,56.36s3.5,1.23,6.26-4"/><path class="cls-14" d="M85.9,29.4a.22.22,0,0,1-.18.13,11.14,11.14,0,0,0,3.92,2.71,3,3,0,0,0-.39.54A12.46,12.46,0,0,1,85.33,30a11.89,11.89,0,0,1-3.86,2.87,3.36,3.36,0,0,0-.35-.49,10.23,10.23,0,0,0,3.89-3Zm-.39,5.76a4,4,0,0,0,.86.93,16.29,16.29,0,0,0,2.13-1.35l.56.43a.23.23,0,0,1-.2,0,18,18,0,0,1-2,1.19,7.24,7.24,0,0,0,2.68.9,2.45,2.45,0,0,0-.38.53,5.63,5.63,0,0,1-4.23-2.68H83.45V37l2.37-.21v.51c-1.38.15-2.87.3-3.77.38a.16.16,0,0,1-.13.13l-.23-.67,1.16-.1,0-5H85V31l.79.05c0,.06,0,.11-.18.12v.94h2.23v3.1Zm-2.06-1.34v.83h3.79v-.83Zm3.8-1.26h-3.8v.8h3.8Z"/><path class="cls-14" d="M90.61,37.83V33.89h3.29v3.86h-.61v-.37h-2.1v.45Zm2.69-3.35H91.2v2.31h2.1Zm3.49-4.73v3.19h-4.7V29.74Zm-.63,2.61v-2H92.68v2ZM94.88,33.9h3.4v3.87h-.61v-.39h-2.2v.45h-.59Zm.58,2.9h2.2V34.5h-2.2Z"/></g></g></svg>