<svg xmlns="http://www.w3.org/2000/svg" xmlns:xlink="http://www.w3.org/1999/xlink" viewBox="0 0 27.96 17.22"><defs><style>.cls-1{fill:url(#Degradado_sin_nombre_8);}.cls-2{fill:#f3faff;}.cls-3{fill:url(#Degradado_sin_nombre_8-2);}.cls-4{fill:#fff;}.cls-5{fill:url(#Degradado_sin_nombre_9);}.cls-6{font-size:1.95px;fill:#fff8fe;font-family:KozGoPr6N-Regular-90ms-RKSJ-H, Kozuka Gothic Pr6N;}.cls-7{fill:#ebf7f3;}.cls-8{fill:#f7a215;}.cls-9{fill:#b82d28;}.cls-10{fill:#ce2525;}.cls-11{fill:url(#Degradado_sin_nombre_9-2);}.cls-12{fill:url(#Degradado_sin_nombre_9-3);}.cls-13{fill:url(#Degradado_sin_nombre_9-4);}</style><linearGradient id="Degradado_sin_nombre_8" x1="24.69" y1="-4.9" x2="-31.08" y2="-7.7" gradientTransform="translate(11.46 -4.54) rotate(90)" gradientUnits="userSpaceOnUse"><stop offset="0" stop-color="#f7a215"/><stop offset="1" stop-color="#ec0000"/></linearGradient><linearGradient id="Degradado_sin_nombre_8-2" x1="9.24" y1="-4.3" x2="-12.7" y2="-6.23" gradientTransform="matrix(0, 1, -1, 0, 11.89, -2.06)" xlink:href="#Degradado_sin_nombre_8"/><linearGradient id="Degradado_sin_nombre_9" x1="-3.16" y1="1.74" x2="16.74" y2="-5.67" gradientTransform="translate(12.02 -2.79) rotate(90)" gradientUnits="userSpaceOnUse"><stop offset="0" stop-color="#650d01"/><stop offset="1" stop-color="#ec0000"/></linearGradient><linearGradient id="Degradado_sin_nombre_9-2" x1="2.3" y1="2.14" x2="2.38" y2="2.14" gradientTransform="matrix(1, 0, 0, 1, 0, 0)" xlink:href="#Degradado_sin_nombre_9"/><linearGradient id="Degradado_sin_nombre_9-3" x1="14.89" y1="7.15" x2="9.36" y2="4.41" gradientTransform="matrix(1, 0, 0, 1, 0, 0)" xlink:href="#Degradado_sin_nombre_9"/><linearGradient id="Degradado_sin_nombre_9-4" x1="1.16" y1="7.3" x2="3.29" y2="7.3" gradientTransform="matrix(1, 0, 0, 1, 0, 0)" xlink:href="#Degradado_sin_nombre_9"/></defs><g id="Capa_2" data-name="Capa 2"><g id="Capa_1-2" data-name="Capa 1"><ellipse class="cls-1" cx="16.92" cy="9.13" rx="4.72" ry="11.05" transform="translate(7.74 26.01) rotate(-89.82)"/><ellipse class="cls-2" cx="16.59" cy="10.02" rx="4.72" ry="11.05" transform="translate(6.52 26.58) rotate(-89.82)"/><ellipse class="cls-3" cx="15.88" cy="10.58" rx="4.72" ry="11.05" transform="translate(5.25 26.43) rotate(-89.82)"/><path class="cls-4" d="M9.34,15.71a.29.29,0,0,1-.16,0,.28.28,0,0,1,.09.1.17.17,0,0,1,0,.14l0,0a.27.27,0,0,1-.17.16.5.5,0,0,1-.27,0l-.42-.13.47-.91.4.12a.39.39,0,0,1,.19.12.2.2,0,0,1,0,.17.08.08,0,0,1,0,0A.19.19,0,0,1,9.34,15.71Zm-.26.21a.1.1,0,0,0,0-.09L9,15.77l-.19,0L8.66,16l.2.06H9A.14.14,0,0,0,9.07,16Zm.17-.38a.09.09,0,0,0,0-.09.12.12,0,0,0-.08,0L9,15.34l-.12.24.18.05a.13.13,0,0,0,.12,0,.11.11,0,0,0,.08-.07A0,0,0,0,0,9.25,15.54Z"/><path class="cls-4" d="M10.46,15.65a.24.24,0,0,1,0,.2s0,0,0,.06a.37.37,0,0,1-.13.15.4.4,0,0,1-.22.06l.07.44L10,16.5l-.05-.42-.1,0-.16.37-.2-.05.42-.94.37.09A.36.36,0,0,1,10.46,15.65Zm-.18.18s0-.07,0-.09a.14.14,0,0,0-.1-.06l-.16,0-.13.28.17,0a.22.22,0,0,0,.14,0,.24.24,0,0,0,.08-.09Z"/><path class="cls-4" d="M10.79,16.65a.36.36,0,0,1-.12-.18.44.44,0,0,1,0-.23A.61.61,0,0,1,10.8,16a.54.54,0,0,1,.57-.19.4.4,0,0,1,.21.09.36.36,0,0,1,.12.18.41.41,0,0,1,0,.22.6.6,0,0,1-.14.3.49.49,0,0,1-.25.17.58.58,0,0,1-.32,0A.5.5,0,0,1,10.79,16.65Zm.47-.1a.34.34,0,0,0,.16-.13.37.37,0,0,0,.08-.19.2.2,0,0,0,0-.19.24.24,0,0,0-.17-.11.37.37,0,0,0-.35.14.46.46,0,0,0-.08.19.23.23,0,0,0,.2.3A.31.31,0,0,0,11.26,16.55Z"/><path class="cls-4" d="M12.49,16.78l-.4-.05L12,16.9l-.21,0,.68-.92.23,0,0,1-.21,0Zm0-.16v-.43l-.28.39Z"/><path class="cls-4" d="M13.17,17a.22.22,0,0,1-.08-.2s0,0,0,0l.21,0a.14.14,0,0,0,0,.11.16.16,0,0,0,.11,0,.23.23,0,0,0,.12,0,.13.13,0,0,0,0-.09.12.12,0,0,0,0-.09l-.13-.08-.13-.08a.43.43,0,0,1-.09-.1.21.21,0,0,1,0-.14.44.44,0,0,1,.06-.16.38.38,0,0,1,.15-.09.43.43,0,0,1,.2,0,.48.48,0,0,1,.18.06.29.29,0,0,1,.11.11.26.26,0,0,1,0,.15l-.21,0h0a.1.1,0,0,0,0-.09.19.19,0,0,0-.09,0,.24.24,0,0,0-.12,0s0,0-.05.08a.14.14,0,0,0,0,.06s0,0,.06.05l.09.07a.74.74,0,0,1,.13.08.28.28,0,0,1,.09.1.21.21,0,0,1,0,.14.24.24,0,0,1-.06.15.34.34,0,0,1-.14.09.68.68,0,0,1-.21,0A.44.44,0,0,1,13.17,17Z"/><path class="cls-4" d="M15,16.17l0,.16-.27,0-.2.84h-.21l.21-.84-.27,0,0-.16Z"/><path class="cls-4" d="M15.44,16.35l-.06.26h.34l0,.16h-.34l-.06.27h.39l0,.16-.59,0,.22-1,.58,0,0,.16Z"/><path class="cls-4" d="M16.79,16.28a.23.23,0,0,1,.08.18.13.13,0,0,1,0,.06.48.48,0,0,1-.08.18.43.43,0,0,1-.2.11l.17.41h-.23l-.15-.39h-.1l-.07.39H16l.18-1h.38A.33.33,0,0,1,16.79,16.28Zm-.13.21a.1.1,0,0,0,0-.09.15.15,0,0,0-.1,0h-.17l-.06.31h.17a.17.17,0,0,0,.13-.05.14.14,0,0,0,.07-.11Z"/><path class="cls-4" d="M18.45,16.89l.22.23-.25,0-.1-.1a.52.52,0,0,1-.35.14.39.39,0,0,1-.25-.05.24.24,0,0,1-.1-.18.36.36,0,0,1,.07-.22.46.46,0,0,1,.2-.16.19.19,0,0,1-.06-.13.29.29,0,0,1,0-.16.23.23,0,0,1,.11-.11.48.48,0,0,1,.17-.05.27.27,0,0,1,.19.05.18.18,0,0,1,.08.14.08.08,0,0,1,0,0h-.19v0s0,0,0-.05h-.06a.09.09,0,0,0-.07,0,.13.13,0,0,0,0,.08.14.14,0,0,0,0,.06l.05.08.23.24v0l.1-.14h.21l-.12.18A1,1,0,0,1,18.45,16.89Zm-.24,0L18,16.68a.4.4,0,0,0-.12.1.16.16,0,0,0,0,.12.14.14,0,0,0,.05.09A.13.13,0,0,0,18,17,.33.33,0,0,0,18.21,16.92Z"/><path class="cls-4" d="M20.11,16.77l-.4.05-.07.21-.21,0L19.84,16l.23,0,.31,1-.21,0Zm0-.15-.13-.42-.17.46Z"/><path class="cls-4" d="M20.81,16.84a.23.23,0,0,1-.13-.17v0l.21,0a.13.13,0,0,0,0,.09.16.16,0,0,0,.12,0,.23.23,0,0,0,.11-.05.1.1,0,0,0,0-.1.11.11,0,0,0-.06-.07.37.37,0,0,0-.15,0l-.15,0-.1-.07a.16.16,0,0,1-.06-.13.2.2,0,0,1,0-.17.33.33,0,0,1,.11-.13.48.48,0,0,1,.18-.07.39.39,0,0,1,.19,0,.31.31,0,0,1,.14.07.34.34,0,0,1,.06.15l-.22,0v0a.08.08,0,0,0,0-.07.15.15,0,0,0-.1,0l-.1,0a.12.12,0,0,0,0,.1s0,0,0,.06l.06,0,.11,0,.15,0a.41.41,0,0,1,.11.07.26.26,0,0,1,.06.13.29.29,0,0,1,0,.16.37.37,0,0,1-.12.13.47.47,0,0,1-.19.07A.38.38,0,0,1,20.81,16.84Z"/><path class="cls-4" d="M22.33,16.42l-.4.08-.05.21-.21.05L22,15.65l.23-.05.4,1-.21.05Zm-.06-.15-.16-.41-.13.47Z"/><path class="cls-4" d="M23.42,15.33a.39.39,0,0,1,.19.1.49.49,0,0,1,.13.29.56.56,0,0,1,0,.29.53.53,0,0,1-.16.23.72.72,0,0,1-.26.14l-.35.09-.1-1,.35-.1A.69.69,0,0,1,23.42,15.33Zm.06.73a.43.43,0,0,0,.06-.28s0-.06,0-.08a.37.37,0,0,0-.12-.17.3.3,0,0,0-.23,0l-.13,0,.07.68.13,0A.39.39,0,0,0,23.48,16.06Z"/><path class="cls-4" d="M24.31,16a.37.37,0,0,1-.2-.09.41.41,0,0,1-.12-.19.6.6,0,0,1,0-.32.55.55,0,0,1,.12-.28.64.64,0,0,1,.27-.18.46.46,0,0,1,.23,0,.34.34,0,0,1,.19.09.43.43,0,0,1,.13.19.6.6,0,0,1,0,.32.49.49,0,0,1-.13.28.61.61,0,0,1-.26.18A.46.46,0,0,1,24.31,16Zm.35-.32a.46.46,0,0,0,.08-.19.51.51,0,0,0,0-.21.28.28,0,0,0-.13-.15.21.21,0,0,0-.19,0,.34.34,0,0,0-.17.11.44.44,0,0,0-.07.19.35.35,0,0,0,0,.2.26.26,0,0,0,.12.16.23.23,0,0,0,.2,0A.31.31,0,0,0,24.66,15.7Z"/><ellipse class="cls-5" cx="16.32" cy="10.28" rx="4.72" ry="11.05" transform="translate(5.99 26.57) rotate(-89.82)"/><text class="cls-6" transform="translate(17.76 8.24) rotate(0.18)">食品</text><path class="cls-7" d="M11.11,5.75v0h0l0,0-.16-.2,0,0a.69.69,0,0,0,.5-.82c0-.21-.18-.49-.68-.58l-.14,0L10.37,4a3.47,3.47,0,0,0,.46-.4h0A.58.58,0,0,0,11,3.33a.28.28,0,0,0,0-.25.23.23,0,0,0-.2-.1h0l-.79.16a2.78,2.78,0,0,0-.41-.56h0l-.12-.11a2.55,2.55,0,0,0,.11-1.09A1.73,1.73,0,0,0,8.9.15.52.52,0,0,0,8.55,0a.44.44,0,0,0-.43.46.67.67,0,0,0,0,.2l-.06,0A2.27,2.27,0,0,0,6.66.15L6.3.17c-.16,0-.55.19-.55.47a.78.78,0,0,0,.33.57l.29.17a2,2,0,0,0-1,1.44.7.7,0,0,0,.18.63.49.49,0,0,0,.3.09l.25,0h.08c.07.43.19.73.62.77h.12v0c0,.08,0,.16,0,.24,0,.25-.08.49-.13.73a1.17,1.17,0,0,1-.59.77,3.8,3.8,0,0,1-1.87.44,5.8,5.8,0,0,1-.7,0A1.39,1.39,0,0,1,4,5.78c.16-.18.33-.35.5-.53s.21-.2.31-.31A1.63,1.63,0,0,0,5.3,3.56c0-.17-.07-.51-.43-.51H4.73l.11-.15a.27.27,0,0,0,0-.32,5.24,5.24,0,0,0-1.33-1,2.76,2.76,0,0,0-.74-.28.76.76,0,0,0-.21,0,.9.9,0,0,0-.74.38h0A.84.84,0,0,0,1.65,2V2a.8.8,0,0,0,0,.48.28.28,0,0,0,.22.14h0a.24.24,0,0,0,.21-.13c0-.05.12-.07.18-.08h.33a.91.91,0,0,1,.7,1.11A3.47,3.47,0,0,1,3.2,4a2.34,2.34,0,0,0-.47-.93h0L2.66,3l-.07,0,0,0h0l0,0a.45.45,0,0,0-.16,0H2.23a.21.21,0,0,0-.13-.11,1,1,0,0,0-.35-.07.58.58,0,0,0-.33.09l-.06.06a.28.28,0,0,0-.13,0H1.17a1.56,1.56,0,0,0-.77.57,2,2,0,0,0-.23.39,1.38,1.38,0,0,0-.08.27C-.18,5.12.21,5.6.47,5.79a.85.85,0,0,0,.28.15H.82A.28.28,0,0,0,1,5.86a.23.23,0,0,0,.05-.21s-.18-1,.38-1.3h0a.92.92,0,0,1,.43-.15c.07,0,.27,0,.36.53a9,9,0,0,0,.21.93h0A.94.94,0,0,0,2,5.52a1.06,1.06,0,0,0-1,1,.57.57,0,0,0,.21.39L1.21,7a.23.23,0,0,0-.15.12.24.24,0,0,0,0,.23.54.54,0,0,1,.07.13l0,0,.06.1a2.3,2.3,0,0,0,.15.23.21.21,0,0,0,0,.06l0,.05.07.1.05.06h0l.09.11,0,0h0l0,0,0,0,.13.14,0,.05L2,8.57l.06.06,0,0h0l0,0,0,0,0,0A2,2,0,0,0,2.66,9a.2.2,0,0,0,.11,0A.27.27,0,0,0,2.94,9,.26.26,0,0,0,3,8.74l-.07-.16a.21.21,0,0,0,0-.06,2.87,2.87,0,0,1-.36-.59v0a2.44,2.44,0,0,1-.1-.24h0a1.47,1.47,0,0,1,0-.52c0-.21.12-.21.16-.21h0a.46.46,0,0,1,.18,0h0L3,7l.09.06.23.34c.17.26.34.52.52.77s.49.67.73,1l.27.38a3.22,3.22,0,0,0,1.48,1.24h0l.25.06c-.06.64-.13,1.27-.19,1.91a.26.26,0,0,0,.17.26l.08,0h.07l.12,0a.24.24,0,0,0,.12-.16,7.9,7.9,0,0,1,.89-2.17h0l.23-.14.19-.12h0l.32-.19.64-.34c.35-.18.71-.37,1-.57a3.49,3.49,0,0,0,.82-.64A2.3,2.3,0,0,0,11.11,5.75ZM6.32,9.68l-.08,0h0a2,2,0,0,1-.53-.3h0l-.06,0h0A4.18,4.18,0,0,1,5,8.65a3.44,3.44,0,0,0,.78.54l.06,0,.09,0h0a1.2,1.2,0,0,0,.32.06h0l-.08,0h0A2.73,2.73,0,0,1,5,8.52a3.36,3.36,0,0,1-.27-.36,2.5,2.5,0,0,1-.25-.49A3,3,0,0,0,4.75,8a2.18,2.18,0,0,0,.63.45h0A2.08,2.08,0,0,0,6,8.64h0l0,0H6A4.07,4.07,0,0,1,4.5,7.5h0v0a.18.18,0,0,1-.06-.08h0s0,0,0-.06a.43.43,0,0,1,0,0,0,0,0,0,0,0,0h0l0,0h0a.1.1,0,0,1,0,0h.14a1.3,1.3,0,0,1,.54.16h0a1.06,1.06,0,0,1,.21.11.6.6,0,0,0,.71,0,6.8,6.8,0,0,0,.78-.64,1.45,1.45,0,0,1,1.76-.25,1.07,1.07,0,0,1,.53,1.29A2.71,2.71,0,0,1,7.4,9.65a1.83,1.83,0,0,1-1,0h0ZM4.39,7.24h0Z"/><path class="cls-8" d="M10.91,5.89h0l0,0a1.29,1.29,0,0,0-.21-.26.28.28,0,0,1,.21-.34.46.46,0,0,0,.34-.55c0-.21-.21-.33-.49-.38h-.1l-.16,0-.1,0h-.08l-.07,0h0l0,0h0L10,4.06h0l0,0,0-.05h0a4.75,4.75,0,0,0,.73-.58h0a.36.36,0,0,0,.1-.14s0,0,0,0h0l-1,.19h0a2.15,2.15,0,0,0-.45-.66h0l-.09-.08h0l-.13-.1h0a2.33,2.33,0,0,0,.16-1.14A1.58,1.58,0,0,0,8.74.33l-.08,0H8.45l0,0v0a.23.23,0,0,0-.05.16,4.57,4.57,0,0,0,0,.63h0L8.28,1h0L8.19,1l0,0-.05,0L8,.91l0,0,0,0,0,0L7.84.76h0l-.07,0,0,0-.07,0L7.6.62l-.06,0-.07,0L7.31.5l-.08,0,0,0h0l-.11,0H6.32l-.05,0H6.14l0,0C6,.56,6,.6,6,.64A.52.52,0,0,0,6.22,1,6.45,6.45,0,0,0,7,1.4H7l-.07,0-.06,0h0l0,0h0l-.12.05h0l0,0,0,0,0,0,0,0,0,0s0,0,0,0a.1.1,0,0,0-.05,0l-.1.07,0,0h0v0h0l0,0,0,0L6,2a2,2,0,0,0-.42.91.51.51,0,0,0,.09.39h.15l.26,0h.07l.06,0,.06,0,.05,0h0c.08.53.13.76.3.84h.15a1.4,1.4,0,0,0,.29,0h0c0,.07,0,.15.06.21h0v0s0,.05,0,.07l0,.25c0,.25-.09.49-.13.74a1.41,1.41,0,0,1-.71.93l0,0,0,0h0L6,6.41H6l-.16.06-.15.06-.12,0a5.47,5.47,0,0,1-2.21.11,1.31,1.31,0,0,1,.42-1.06c.25-.3.54-.57.81-.85a1.36,1.36,0,0,0,.46-1.18A.44.44,0,0,0,5,3.33H4.66l-.16,0-.1,0H4.35l-.11,0H4.17l.46-.67a5.26,5.26,0,0,0-1.26-1A3.79,3.79,0,0,0,3,1.63l-.18,0-.09,0h0a.62.62,0,0,0-.19,0H2.24l0,0a.58.58,0,0,0-.15.11L2,1.82H2a.41.41,0,0,0-.1.21h0a.56.56,0,0,0,0,.31h0a.29.29,0,0,1,.15-.14h0l.06,0h.57l.14,0,.09,0,0,0,0,0,0,0,0,0,0,0,0,0,0,0,.07.07,0,0,.06.08,0,0,0,0,0,0a.08.08,0,0,1,0,0l0,0h0A.58.58,0,0,1,3.56,3v.06h0a.08.08,0,0,1,0,0,1.07,1.07,0,0,1,0,.47,4.71,4.71,0,0,1-.19.64c0,.13-.11.26-.16.4h0v0a2.09,2.09,0,0,0-.09.46h0A4,4,0,0,0,3,4.29H3s0,0,0,0a2.4,2.4,0,0,0-.46-1h0l0,0h0l0,0,0,0h0v0H2.27l0,0,0,0h0l0,0-.11.15h0C2,3.44,2,3.47,2,3.49H2a1.8,1.8,0,0,1,0-.28.77.77,0,0,1,0-.15A.25.25,0,0,1,2,3H1.61L1.56,3a.18.18,0,0,1,0,0h0a1.3,1.3,0,0,0,0,.23h0a.51.51,0,0,0,0,.13,0,0,0,0,1,0,0s0,0,0,0,0,0,0,0h0l0,0h0l0,0,0,0h0l0,0a.85.85,0,0,1-.17-.25H1.16a1.4,1.4,0,0,0-.56.46,1.25,1.25,0,0,0-.2.34h0a.84.84,0,0,0,0,.2h0C.1,5,.39,5.43.62,5.59h0a.89.89,0,0,0,.16.1h0A2.33,2.33,0,0,1,.81,5V4.89h0v0h0v0h0a.25.25,0,0,1,0-.07h0v0h0a.14.14,0,0,1,0-.06h0v0h0l0,0v0H1l0,0,0,0H1l0,0h0l0,0h0l0,0h0l0,0h0l0,0,0,0h0l.05,0h0l0,0h.06l0,0,.08,0,.07,0,.07,0,.07,0h.07A.88.88,0,0,1,2,4L2,4h0l.08,0,0,0h0l0,0h0l0,0,0,0a1.26,1.26,0,0,1,.22.57c.09.53.26,1,.39,1.56h0a4.24,4.24,0,0,0-.56-.38l0,0,0,0H1.69l-.09,0-.06,0a.79.79,0,0,0-.38.64.37.37,0,0,0,.13.21l.3.24.09.07.14.1h0l-.51.08h0s.05.09.07.13h0l.06.1.14.22,0,0,0,0a.61.61,0,0,0,.07.1L1.76,8l.08.1,0,0,0,0,0,0,.13.13.05.05.06.06.07.06,0,.05,0,0,0,0,0,0,0,0,0,0h0l0,0,0,0,.05,0,.09.06.1.06h0a.58.58,0,0,0,0-.14h0A3.14,3.14,0,0,1,2.31,8h0a1.86,1.86,0,0,1-.1-.25h0v0h0a1.55,1.55,0,0,1,0-.61.49.49,0,0,1,.14-.34l0,0h0l0,0h.39l0,0h.05l.09,0,.09,0h0A.57.57,0,0,1,3.26,7h0c.25.37.49.74.75,1.11L5,9.44a3.75,3.75,0,0,0,.9.92h0l.08.06H6l.08,0,0,0h0l.15.07.11,0h0l.06,0,.22.05h0l.15,0h0l-.21,2.14.07,0h0a8.29,8.29,0,0,1,.93-2.26h0l.06-.06.13-.08.12-.07h0l.18-.11h0l.34-.2c.56-.3,1.14-.59,1.69-.91a3.1,3.1,0,0,0,.76-.59A2.06,2.06,0,0,0,10.91,5.89ZM2.55,3.38Zm.32,2.86h0Zm7.57.12h0l0,0h0l0,0Zm.21-.79s0,.07,0,.14h0s0-.06,0-.1h0ZM9.94,4h0l.1-.09h0L9.93,4ZM9,3.37H9ZM8.23,2.5h0Zm.8,0H9ZM6.24,9.66a2,2,0,0,1-.53-.3h0l-.06,0h0A4.18,4.18,0,0,1,5,8.65a3.44,3.44,0,0,0,.78.54l.06,0,.09,0h0a1.2,1.2,0,0,0,.32.06h0l-.08,0h0A2.73,2.73,0,0,1,5,8.52a3.36,3.36,0,0,1-.27-.36,2.5,2.5,0,0,1-.25-.49A3,3,0,0,0,4.75,8a2.18,2.18,0,0,0,.63.45h0A2.08,2.08,0,0,0,6,8.64h0l0,0H6A4.07,4.07,0,0,1,4.5,7.5h0v0a.18.18,0,0,1-.06-.08h0s0,0,0-.06a.43.43,0,0,1,0,0,0,0,0,0,0,0,0h0l0,0h0a.1.1,0,0,1,0,0h.14a1.3,1.3,0,0,1,.54.16h0a1.06,1.06,0,0,1,.21.11.6.6,0,0,0,.71,0,6.8,6.8,0,0,0,.78-.64,1.45,1.45,0,0,1,1.76-.25,1.07,1.07,0,0,1,.53,1.29A2.71,2.71,0,0,1,7.4,9.65a1.83,1.83,0,0,1-1,0h0l-.07,0-.08,0ZM4.39,7.24h0Z"/><path class="cls-8" d="M7.62,10.59Zm3.29-4.7h0l0,0,0,0s-.11,0-.17-.08a.76.76,0,0,1-.18.62h0a.58.58,0,0,1-.89-.3,2.16,2.16,0,0,1,0-.76,6.63,6.63,0,0,0,.22-1.88,2.15,2.15,0,0,0-.45-.66h0l0,0h0l-.1-.09,0,0H9.11l0,0H9L9,2.53l-.3,0H8.05L8,2.57l0,0h0l-.06,0v0l0,0,0,0-.07.06,0,0h0l0,0a.76.76,0,0,0-.08.11l0,0V3l0,0,0,.06,0,0h0l0,.05h0v.05s0,0,0,0v0h0l0,0h0c0,.05,0,.1,0,.16l0,.07,0,.08s0,.05,0,.08l0,.08,0,.08,0,.17v.12a.2.2,0,0,0,0,.07h0v0a.17.17,0,0,1,0,.07l0,.25c0,.25-.09.49-.13.74a1.4,1.4,0,0,1-.72.93l0,0,0,0h0L6,6.41H6l-.16.06-.15.06-.12,0a5.47,5.47,0,0,1-2.21.11h0a1.72,1.72,0,0,1-.2-.44c0-.3-.05-.61-.07-.91v0h0c0-.09,0-.17,0-.26a1.77,1.77,0,0,0,0-.2h0v0H3L3,4.36h0c0-.12,0-.25-.08-.37l-.09-.3a.61.61,0,0,0-.19-.27l0,0h0l0,0-.14-.09c-.07,0-.22.06-.32.11h0C2,3.44,2,3.47,2,3.49H2a1.8,1.8,0,0,1,0-.28L1.9,3.15c-.16,0-.3,0-.37.12h0a.51.51,0,0,0,0,.13s0,0,0,0h0s0,0,0,0h0l0,0h0l0,0,0,0h0l0,0a.87.87,0,0,0-.89.34v0l0,.08s0,.08,0,.12-.06.23-.08.34A2.06,2.06,0,0,0,.5,5.39a.56.56,0,0,0,.12.2h0a.25.25,0,0,0,.19.11h0V5.6h0v0s0-.06,0-.1v0a1.15,1.15,0,0,1,0-.19.15.15,0,0,1,0-.07A.76.76,0,0,1,.8,5V5s0,0,0-.06v0h0v0h0v0h0V4.68h0a.14.14,0,0,1,0-.06h0s0,0,0,0v0h0v0l0,0v0H1l0,0H1l0,0H1l0,0,0,0h0v0h0l0,0,0,0h0l0,0,0,0h0l0,0h0l0,0,.08,0,.07,0,.07,0,.07,0h.07A.88.88,0,0,1,2,4L2,4h0l.08,0,0,0h0l0,0h0l0,0,0,0a1.26,1.26,0,0,1,.22.57c.09.53.26,1,.39,1.56h0l0,0,0,0a.43.43,0,0,1,0,.07l0,0H3l0,0,.13.19a.86.86,0,0,0,.07.1h0a.41.41,0,0,0,0,.09s0,0,0,0h0l0,0h0c.25.37.49.74.75,1.11L5,9.44a3.75,3.75,0,0,0,.9.92h0l.08.06H6l.08,0,0,0h0l.15.07.11,0h0l.06,0,.22.05h0l.15,0h.06l.38,0h0a2.69,2.69,0,0,0,.66-.25h0l.19-.11h0l.34-.2c.56-.3,1.14-.59,1.69-.91a3.31,3.31,0,0,0,.76-.59A2.06,2.06,0,0,0,10.91,5.89ZM9.18,7.73A2.71,2.71,0,0,1,7.4,9.65a1.83,1.83,0,0,1-1,0h0l-.15,0h0a2,2,0,0,1-.53-.3h0l-.06,0h0A4.18,4.18,0,0,1,5,8.65a3.44,3.44,0,0,0,.78.54l.08,0,.27.07h0l.07,0h0l-.08,0h0A2.73,2.73,0,0,1,5,8.52a1,1,0,0,1-.27-.36,2.5,2.5,0,0,1-.25-.49A3,3,0,0,0,4.75,8a3.45,3.45,0,0,0,.63.45h0A2.08,2.08,0,0,0,6,8.64h0l0,0H6A4.07,4.07,0,0,1,4.5,7.5h0v0l0,0,0,0h0l0-.1V7.17l.09,0,.09,0h.12a1.3,1.3,0,0,1,.54.16h0a1.06,1.06,0,0,1,.21.11.6.6,0,0,0,.71,0,6.8,6.8,0,0,0,.78-.64,1.45,1.45,0,0,1,1.76-.25A1.07,1.07,0,0,1,9.18,7.73Zm.05-4.26h0s0,0-.05,0-.43,0-.68-.24A2.2,2.2,0,0,0,9,3.37h.16s0,0,0,0h0l0,0,0,0v0l0,0v0h0a.17.17,0,0,0,0-.07h0a.68.68,0,0,1,0,.12l0,0C9.29,3.32,9.27,3.41,9.23,3.47Z"/><path class="cls-9" d="M7.62,10.59h0a8.29,8.29,0,0,0-.93,2.26l-.07,0,.21-2.14h.06a1.58,1.58,0,0,0,.38,0h0a2.86,2.86,0,0,0,.66-.25l-.25.15Z"/><path class="cls-10" d="M9.08,2.54l.12.1A.67.67,0,0,0,9,2.53a1.56,1.56,0,0,0-.68,0,.87.87,0,0,0-.72.42h0s0,.09-.07.14l0,0h0a3.93,3.93,0,0,0-.29,1.17A1.87,1.87,0,0,0,7.12,4a1.4,1.4,0,0,1-.29,0c-.3,0-.36-.21-.45-.88a1.57,1.57,0,0,1-.26.13.7.7,0,0,1-.41,0,.51.51,0,0,1-.09-.39A1.77,1.77,0,0,1,7,1.4,6.45,6.45,0,0,1,6.22,1,.52.52,0,0,1,6,.64c0-.08.2-.2.33-.22a2,2,0,0,1,1.58.4c.16.11.33.2.49.29a3.4,3.4,0,0,1,0-.63c0-.24.19-.3.37-.15a1.58,1.58,0,0,1,.5,1.06A2.37,2.37,0,0,1,9.08,2.54Z"/><path class="cls-8" d="M4.53,7.1h0a.1.1,0,0,0,0,0h0l0,0h0a0,0,0,0,1,0,0v.08h0l0-.09V7.17l.09,0,.09,0Z"/><path class="cls-9" d="M4.41,7.4l0,0S4.4,7.39,4.41,7.4Z"/><path class="cls-9" d="M9,2.53l-.3,0H8.29a1,1,0,0,0-.64.32l0-.05a.53.53,0,0,0-.13.15.87.87,0,0,1,.72-.42A1.56,1.56,0,0,1,9,2.53Z"/><path class="cls-9" d="M7.69,2.76l0,.05a1,1,0,0,0-.16.24A.72.72,0,0,1,7.69,2.76Z"/><path class="cls-9" d="M4.59,4.77c-.27.28-.56.55-.82.85a1.33,1.33,0,0,0-.41,1.06,1.72,1.72,0,0,1-.2-.44c0-.3-.05-.61-.07-.91,0-.1,0-.19,0-.29,0,.1,0,.2,0,.28a2,2,0,0,1,.1-.67v0h0c0-.14.11-.27.16-.4a4.71,4.71,0,0,0,.19-.64,1.15,1.15,0,0,0-.89-1.4H2.26a.47.47,0,0,0-.36.2.55.55,0,0,1,0-.32h0A.48.48,0,0,1,2,1.82a.66.66,0,0,1,.7-.26,2.85,2.85,0,0,1,.69.25,5.26,5.26,0,0,1,1.26,1l-.46.67.49-.11c.3-.08.35,0,.39.26A1.36,1.36,0,0,1,4.59,4.77Z"/><path class="cls-11" d="M2.38,2.14h0Z"/><path class="cls-12" d="M10.86,5.23a.27.27,0,0,0-.21.34h0s0,.09,0,.14h0a.76.76,0,0,1-.18.62h0l0,0h0a.58.58,0,0,1-.89-.3,2.16,2.16,0,0,1,0-.76,6.63,6.63,0,0,0,.22-1.88l.84-.16,0,.09c-.15.29-.5.4-.74.63a1.17,1.17,0,0,0,.79.32c.27,0,.45.17.49.38A.46.46,0,0,1,10.86,5.23Z"/><path class="cls-9" d="M10.47,6.33l0,0Z"/><polygon class="cls-9" points="10.47 6.33 10.47 6.33 10.48 6.33 10.47 6.33"/><path class="cls-9" d="M6.89,10.68l.38,0A1.58,1.58,0,0,1,6.89,10.68Z"/><polygon class="cls-9" points="7.62 10.59 7.62 10.59 7.62 10.59 7.62 10.59"/><polygon class="cls-9" points="6.03 8.63 6.02 8.63 6.02 8.63 6.03 8.63"/><path class="cls-8" d="M6.14,9.29a.82.82,0,0,1-.25,0l-.09,0-.06,0,.08,0,.27.07Z"/><path class="cls-8" d="M5,8.52a1,1,0,0,1-.27-.36A3.36,3.36,0,0,0,5,8.52Z"/><path class="cls-9" d="M5.38,8.44A2.18,2.18,0,0,1,4.75,8,3.45,3.45,0,0,0,5.38,8.44Z"/><path class="cls-9" d="M6.39,9.7l-.15,0,.08,0Z"/><path class="cls-8" d="M9.33,3.24c0,.08-.06.17-.1.23a.55.55,0,0,0,.06-.27Z"/><path class="cls-9" d="M2.62,2.15h0Z"/><path class="cls-8" d="M3.36,6.68,3.1,6.5,3,6.05l-.09-.64L2.9,5,3,4.87l0,0a1.77,1.77,0,0,1,0,.2c0,.1,0,.2,0,.28a.34.34,0,0,1,0,.1h0A4.6,4.6,0,0,0,3.36,6.68Z"/><path class="cls-8" d="M3.11,5.42h0l0-.09L3,4.87l-.08-.52H3s0,.23.09.44H3v0a1.77,1.77,0,0,1,0,.2c0,.1,0,.2,0,.28A.38.38,0,0,1,3.11,5.42Z"/><path class="cls-8" d="M3.11,5.35l0,0L2.55,3.47V3.41l0-.06-.06-.2h0l0,0,0,0,0,0,.12.16h0A3.64,3.64,0,0,1,3.11,5.35Z"/><path class="cls-8" d="M2,3.49.51,3.68v0a1.54,1.54,0,0,1,.72-.59h0a1.07,1.07,0,0,0,.16.25c.11.12.21.19.16.11s0,0,0,0a.51.51,0,0,1,0-.13,1.4,1.4,0,0,1,0-.23,1.42,1.42,0,0,1,.43,0,.77.77,0,0,0,0,.15A1.8,1.8,0,0,0,2,3.49Z"/><path class="cls-8" d="M2.66,3.4H2.55L2,3.49s0-.05.08-.12l.11-.15,0,0h0a.23.23,0,0,1,.34,0h0A.5.5,0,0,1,2.66,3.4Z"/><path class="cls-8" d="M2.57,3.72H2.2l-.9.19-.95.31h0A1,1,0,0,1,.6,3.54a1.25,1.25,0,0,1,.63-.48h0a1.07,1.07,0,0,0,.16.25c.11.12.21.19.16.11s0,0,0,0a.51.51,0,0,1,0-.13,1.4,1.4,0,0,1,0-.23.18.18,0,0,0,0,0C1.72,2.88,2,3,2,3l0,.07a.77.77,0,0,0,0,.15,1.8,1.8,0,0,0,0,.28H2s0-.05.08-.12l.11-.15,0,0h0a.19.19,0,0,1,.26,0l0,0,0,0h0v.24Z"/><path class="cls-8" d="M3,4.29s-.18-.92-.6-1.17Z"/><path class="cls-8" d="M.82,5.7h0a.68.68,0,0,1-.2-.11C.4,5.43.1,5,.33,4.1c0-.07,0-.14.07-.22h0L.94,4l.38.11C.59,4.51.82,5.7.82,5.7Z"/><path class="cls-9" d="M2.94,8.91l-.17-.08a3.12,3.12,0,0,1-.4-.27l0,0,0,0,0,0-.12-.11L2.1,8.32l-.05-.05A2.26,2.26,0,0,1,1.76,8l-.05-.06-.08-.1,0,0,0,0-.14-.22-.06-.1h0l-.07-.13.91.5h0A2.37,2.37,0,0,0,2.31,8h0a2.77,2.77,0,0,0,.4.66A1.67,1.67,0,0,0,2.94,8.91Z"/><path class="cls-8" d="M3.26,7a.66.66,0,0,0-.38-.22c-.29-.08.35-.08.35-.08l.25.2Z"/><path class="cls-13" d="M2.15,7.12a1.55,1.55,0,0,0,0,.61h0A1.39,1.39,0,0,0,2.31,8h0a2.77,2.77,0,0,0,.4.66l.06.15a3.12,3.12,0,0,1-.4-.27l0,0,0,0,0,0,0-.05-.07-.06L2.1,8.32l-.05-.05-.13-.13,0-.05A1.34,1.34,0,0,1,1.76,8l-.05-.06-.08-.1,0,0,0,0-.14-.22-.06-.1h0l-.07-.13h0l.51-.08-.14-.1L1.59,7l-.31-.24c-.05-.06-.12-.14-.12-.21a.8.8,0,0,1,1.15-.67,4.24,4.24,0,0,1,.56.38h0l.37.53a.41.41,0,0,0,0,.09s0,0,0,0a1.84,1.84,0,0,0-.71-.23C2.33,6.67,2.18,6.84,2.15,7.12Z"/><path class="cls-9" d="M3.47,7l-.19-.1a1.84,1.84,0,0,0-.71-.23l.3-.44h0a4.57,4.57,0,0,0,.37.53A1.07,1.07,0,0,0,3.47,7Z"/><path class="cls-9" d="M2.87,6.24a5.29,5.29,0,0,0,.6.77l-.63-.32Z"/><path class="cls-9" d="M4.41,7.39l0,0h0v0S4.4,7.37,4.41,7.39Z"/><path class="cls-9" d="M6.05,8.65l0,0H6Z"/><path class="cls-10" d="M9.18,7.73A2.71,2.71,0,0,1,7.4,9.65a1.83,1.83,0,0,1-1,0h0l-.07,0-.08,0h0a2,2,0,0,1-.53-.3h0l-.06,0h0A4.18,4.18,0,0,1,5,8.65a3.44,3.44,0,0,0,.78.54l.06,0,.09,0h0a1.2,1.2,0,0,0,.32.06h0l-.08,0h0A2.73,2.73,0,0,1,5,8.52a3.36,3.36,0,0,1-.27-.36,2.5,2.5,0,0,1-.25-.49A3,3,0,0,0,4.75,8a2.18,2.18,0,0,0,.63.45h0A2.08,2.08,0,0,0,6,8.64h0l0,0H6A4.07,4.07,0,0,1,4.5,7.5h0v0a.18.18,0,0,1-.06-.08h0s0,0,0-.06a.43.43,0,0,1,0,0,0,0,0,0,0,0,0h0l0,0h0a.1.1,0,0,1,0,0h.14a1.3,1.3,0,0,1,.54.16h0a1.06,1.06,0,0,1,.21.11.6.6,0,0,0,.71,0,6.8,6.8,0,0,0,.78-.64,1.45,1.45,0,0,1,1.76-.25A1.07,1.07,0,0,1,9.18,7.73Z"/><path class="cls-9" d="M6,8.64a2.08,2.08,0,0,1-.64-.19A2.08,2.08,0,0,0,6,8.63H6Z"/><polygon class="cls-9" points="4.39 7.24 4.39 7.25 4.39 7.24 4.39 7.24"/><path class="cls-9" d="M4.43,7.17h0Z"/><polygon class="cls-9" points="4.39 7.24 4.39 7.25 4.39 7.24 4.39 7.24"/><path class="cls-9" d="M4.39,7.25a0,0,0,0,1,0,0h0Z"/><path class="cls-9" d="M4.47,7.47l0,0,0,0h0V7.28a.43.43,0,0,0,0,0s0,0,0,.06h0A.18.18,0,0,0,4.47,7.47Z"/><path class="cls-9" d="M4.63,7.09h0Z"/><polygon class="cls-9" points="4.64 7.09 4.64 7.09 4.64 7.09 4.64 7.09"/><path class="cls-9" d="M6.22,9.31a1.2,1.2,0,0,1-.32-.06h0a.82.82,0,0,0,.25,0l.07,0Z"/><path class="cls-8" d="M6.24,9.66a1.62,1.62,0,0,1-.59-.34l.06,0h0A2,2,0,0,0,6.24,9.66Z"/><path class="cls-8" d="M6.22,9.31a1.2,1.2,0,0,1-.32-.06h0l-.07,0a0,0,0,0,1,0,0l.07,0,.32.11Z"/><path class="cls-9" d="M4.53,7.1Z"/><polygon class="cls-9" points="4.54 7.09 4.53 7.1 4.53 7.1 4.54 7.09"/><polygon class="cls-9" points="4.64 7.09 4.64 7.09 4.64 7.09 4.64 7.09"/><path class="cls-8" d="M4.48,7.49l-.14.13L4.2,7.48l0-.33s.17-.06.19,0,0,0,0,0h0l0,.07h0a.43.43,0,0,0,0,0s0,0,0,.06h0a.18.18,0,0,0,.06.08Z"/><path class="cls-8" d="M7.69,2.76l0,.05-.17.26v0A.72.72,0,0,1,7.69,2.76Z"/><path class="cls-8" d="M9.11,2.7c0,.09-.23.17-.23.17l-1,.25-.3-.2h0a.87.87,0,0,1,.72-.42,1.65,1.65,0,0,1,.38,0h0C9.06,2.55,9.13,2.63,9.11,2.7Z"/><path class="cls-8" d="M9.33,2.76h0L9.11,2.7l-.82-.21h0a1.56,1.56,0,0,1,.68,0,.67.67,0,0,1,.24.11A.84.84,0,0,1,9.33,2.76Z"/><path class="cls-9" d="M9.25,3.15A.34.34,0,0,1,9,3.37c.11,0,.2-.06.28-.23Z"/><polygon class="cls-9" points="9.22 3.48 9.22 3.48 9.22 3.48 9.22 3.48"/><path class="cls-9" d="M9.29,3.2a.55.55,0,0,1-.06.27h0l0,0c-.16.11-.44,0-.69-.24A2.2,2.2,0,0,0,9,3.37a.34.34,0,0,0,.29-.22.17.17,0,0,0,0-.07h0A.68.68,0,0,1,9.29,3.2Z"/><path class="cls-8" d="M9.28,3.08h0a.17.17,0,0,1,0,.07A.34.34,0,0,1,9,3.37Z"/><path class="cls-8" d="M8.14,10.25h0l-.21.13a2.86,2.86,0,0,1-.66.25h0a1.58,1.58,0,0,1-.38,0H6.67a.89.89,0,0,1-.28-.07h0Z"/><path class="cls-8" d="M10.91,5.89l-.14.78s-.51-.11-.33-.31h0l0,0h0a.76.76,0,0,0,.18-.62.94.94,0,0,0,0-.14h0a1.29,1.29,0,0,1,.21.26l0,0h0Z"/><path class="cls-9" d="M9.92,4a3.21,3.21,0,0,0,.84-.72Z"/><path class="cls-9" d="M9.78,3.42l1-.19s0,0-.1.17Z"/><path class="cls-10" d="M7.38,3.32a1.15,1.15,0,0,1,1.2-.85c1,0-.3-.42-.3-.42H6.79l.09.71Z"/><path class="cls-8" d="M9.08,2.54s-.16-.15-.85,0l.18.19Z"/><path class="cls-8" d="M8.91,2.48a.82.82,0,0,1,.51.33Z"/><path class="cls-9" d="M10.74,3.3s-.69.71-1,.73a3.1,3.1,0,0,0,0-.61"/><path class="cls-7" d="M18.06,14.11s.84,0,.89-.11"/><path class="cls-4" d="M25.31,8.15a.53.53,0,0,1,.21.21.68.68,0,0,1,0,.6.53.53,0,0,1-.21.21.6.6,0,0,1-.6,0,.58.58,0,0,1-.2-.21.68.68,0,0,1,0-.6.58.58,0,0,1,.2-.21.68.68,0,0,1,.6,0Zm0,.85a.54.54,0,0,0,0-.68A.45.45,0,0,0,25,8.19a.44.44,0,0,0-.33.13.54.54,0,0,0,0,.68.44.44,0,0,0,.33.13A.45.45,0,0,0,25.35,9Zm-.11-.34a.21.21,0,0,1-.1.06L25.3,9h-.18L25,8.73h-.05V9h-.15V8.35h.28a.25.25,0,0,1,.15.05.17.17,0,0,1,.06.14A.24.24,0,0,1,25.24,8.66Zm-.31-.05h.12s0,0,.05,0,0,0,0,0,0,0,0-.05l-.05,0h-.12Z"/><path class="cls-4" d="M13.41,14a1.19,1.19,0,0,1-.36,0,.48.48,0,0,1-.39-.47,1.56,1.56,0,0,1,0-.37c.22-1.61.38-3.22.48-4.85a.25.25,0,0,1,.1-.23h.05a.21.21,0,0,1,.11,0,1.31,1.31,0,0,1,.32.1.56.56,0,0,1,.33.5,1.29,1.29,0,0,1,0,.34l-.2,2.12a1.22,1.22,0,0,0,.54-.25,1.54,1.54,0,0,0,.37-.47A1.67,1.67,0,0,0,15,9.82a3.49,3.49,0,0,0,0-1,1.69,1.69,0,0,0-.49-1.12,1.17,1.17,0,0,0-.46-.26,1.15,1.15,0,0,0-.32,0,1.23,1.23,0,0,0-.78.4A1.83,1.83,0,0,0,12.5,9a5.9,5.9,0,0,0,0,.73q0,.33.06.51s0,0,0,.05,0,0-.07,0l-.11,0a.69.69,0,0,1-.43-.12,1,1,0,0,1-.44-.79,2.14,2.14,0,0,1,.08-.75,3.12,3.12,0,0,1,.3-.69,2.26,2.26,0,0,1,1.36-1,1.55,1.55,0,0,1,.31-.06,2.36,2.36,0,0,1,.87.1,2.16,2.16,0,0,1,.77.43,2,2,0,0,1,.36.41,2.4,2.4,0,0,1,.37,1.11,3,3,0,0,1-.14,1.27,2.64,2.64,0,0,1-.43.79,2.16,2.16,0,0,1-.65.55,1.89,1.89,0,0,1-.79.26H13.8l-.2,2a.27.27,0,0,1,0,.16A.26.26,0,0,1,13.41,14Z"/><path class="cls-4" d="M17.32,12.83H17.1a1.23,1.23,0,0,1-.64-.3,1.57,1.57,0,0,1-.52-1.09,2.47,2.47,0,0,1,.08-.93,2.73,2.73,0,0,1,.41-1,1.51,1.51,0,0,1,.87-.59l.13,0a.7.7,0,0,1,.39.06.72.72,0,0,1,.24.25,1.08,1.08,0,0,1,.11.36,1.27,1.27,0,0,1-.18.74,1.91,1.91,0,0,1-.45.49,5.52,5.52,0,0,1-.55.4.13.13,0,0,0-.07.06.71.71,0,0,0,0,.27,1.47,1.47,0,0,0,.21.64.47.47,0,0,0,.34.1.82.82,0,0,0,.46-.24,2.61,2.61,0,0,0,.53-.66,7.59,7.59,0,0,0,.35-.77c.06-.15.13-.23.22-.23a.14.14,0,0,1,.15.09.46.46,0,0,1,0,.09,2.7,2.7,0,0,1-.34.86,5.39,5.39,0,0,1-.3.52,2,2,0,0,1-.78.74A1.29,1.29,0,0,1,17.32,12.83Zm-.38-2a2,2,0,0,0,.67-.6.91.91,0,0,0,.18-.37.66.66,0,0,0,0-.15.7.7,0,0,0-.06-.19.12.12,0,0,0-.13-.08.21.21,0,0,0-.17.11,1.89,1.89,0,0,0-.42.85C17,10.53,17,10.67,16.94,10.82Z"/><path class="cls-4" d="M21.27,10.28c0-.11,0-.21,0-.32a1.67,1.67,0,0,0-.4-1,.81.81,0,0,0-.65-.25,1,1,0,0,0-.71.5.57.57,0,0,0-.22-.36A1.26,1.26,0,0,0,19,8.69l-.1,0a.23.23,0,0,0-.11,0,.14.14,0,0,0-.12.06.15.15,0,0,0,0,.12V8.9a1.71,1.71,0,0,1,0,.32c0,.39-.05.83-.1,1.32,0,.28-.05.56-.08.86s-.05.54-.08.82h0c-.09.81-.15,1.43-.21,2.13a2.25,2.25,0,0,0,.92-.12c0-.34,0-.33.09-1l.07-.85s.05,0,.14.08a.83.83,0,0,0,.34.06h.12a1.67,1.67,0,0,0,.93-.63l0,0a3,3,0,0,0,.28-.44,2.55,2.55,0,0,0,.18-.53,3.56,3.56,0,0,0,.06-.44v-.13h0s0-.07,0-.11v0Zm-.91,0q0,.22-.06.51a2.7,2.7,0,0,1-.14.56,1.54,1.54,0,0,1-.24.48.46.46,0,0,1-.35.21c-.14,0-.23-.1-.25-.34a1.48,1.48,0,0,1,0-.21l.1-1.11a2.38,2.38,0,0,1,.35-.94l.06-.08.09-.12A.16.16,0,0,1,20,9.2s.07,0,.11,0l0,.06.06.12a1.12,1.12,0,0,1,.05.13,2.5,2.5,0,0,1,.05.29C20.35,10,20.36,10.15,20.36,10.3Z"/><path class="cls-4" d="M24,10.94a2,2,0,0,0-.21.2l-.12.16h0l-.21.22-.1.08h0c-.56.35-.8-.13-.81-.15h0a1.58,1.58,0,0,1-.1-.43.84.84,0,0,1,0-.28l.07-.06a5.58,5.58,0,0,0,.56-.39,2.4,2.4,0,0,0,.45-.5,1.32,1.32,0,0,0,.17-.74.85.85,0,0,0-.11-.35.53.53,0,0,0-.24-.25.7.7,0,0,0-.39-.07l-.13,0a1.48,1.48,0,0,0-.87.6,2.66,2.66,0,0,0-.41,1,2.67,2.67,0,0,0-.08.93A1.59,1.59,0,0,0,22,12a1.12,1.12,0,0,0,.64.3.81.81,0,0,0,.22,0,1.27,1.27,0,0,0,.46-.13,1,1,0,0,0,.24-.15h0A1.06,1.06,0,0,0,24,10.94ZM22.52,9.86A1.93,1.93,0,0,1,22.94,9a.25.25,0,0,1,.16-.11.15.15,0,0,1,.14.09.59.59,0,0,1,.05.19v.14a1.16,1.16,0,0,1-.18.37,2.06,2.06,0,0,1-.68.6A3.15,3.15,0,0,1,22.52,9.86Z"/><path class="cls-4" d="M24,10.94a2,2,0,0,0-.21.2,2.75,2.75,0,0,0,.19-.28Z"/><path class="cls-4" d="M21.25,10.56a3.56,3.56,0,0,1-.06.44,2.55,2.55,0,0,1-.18.53A3.09,3.09,0,0,0,21.25,10.56Z"/><path class="cls-4" d="M21.26,10.49v.07S21.26,10.51,21.26,10.49Z"/><path class="cls-4" d="M19.54,12.56s.78.27,1.39-.89"/></g></g></svg>