<svg xmlns="http://www.w3.org/2000/svg" xmlns:xlink="http://www.w3.org/1999/xlink" viewBox="0 0 425.53 232.89"><defs><style>.cls-1{fill:url(#Degradado_sin_nombre_8);}.cls-2{fill:#f3faff;}.cls-3{fill:url(#Degradado_sin_nombre_8-2);}.cls-4{fill:url(#Degradado_sin_nombre_9);}.cls-5{fill:#ebf7f3;}.cls-6{fill:#f7a215;}.cls-7{fill:#b82d28;}.cls-8{fill:#ce2525;}.cls-9{fill:url(#Degradado_sin_nombre_9-2);}.cls-10{fill:url(#Degradado_sin_nombre_9-3);}.cls-11{fill:url(#Degradado_sin_nombre_9-4);}.cls-12{fill:#fff;}</style><linearGradient id="Degradado_sin_nombre_8" x1="422.65" y1="133.86" x2="-425.94" y2="91.29" gradientTransform="translate(382.88 -116.06) rotate(90)" gradientUnits="userSpaceOnUse"><stop offset="0" stop-color="#f7a215"/><stop offset="1" stop-color="#ec0000"/></linearGradient><linearGradient id="Degradado_sin_nombre_8-2" x1="187.53" y1="143.09" x2="-146.31" y2="113.73" gradientTransform="translate(389.36 -78.26) rotate(90)" xlink:href="#Degradado_sin_nombre_8"/><linearGradient id="Degradado_sin_nombre_9" x1="-1.07" y1="234.89" x2="301.69" y2="122.26" gradientTransform="translate(391.37 -89.51) rotate(90)" gradientUnits="userSpaceOnUse"><stop offset="0" stop-color="#650d01"/><stop offset="1" stop-color="#ec0000"/></linearGradient><linearGradient id="Degradado_sin_nombre_9-2" x1="34.95" y1="32.59" x2="36.16" y2="32.59" gradientTransform="matrix(1, 0, 0, 1, 0, 0)" xlink:href="#Degradado_sin_nombre_9"/><linearGradient id="Degradado_sin_nombre_9-3" x1="226.61" y1="108.79" x2="142.44" y2="67.18" gradientTransform="matrix(1, 0, 0, 1, 0, 0)" xlink:href="#Degradado_sin_nombre_9"/><linearGradient id="Degradado_sin_nombre_9-4" x1="17.68" y1="111.05" x2="50.13" y2="111.05" gradientTransform="matrix(1, 0, 0, 1, 0, 0)" xlink:href="#Degradado_sin_nombre_9"/></defs><g id="Capa_2" data-name="Capa 2"><g id="Capa_1-2" data-name="Capa 1"><ellipse class="cls-1" cx="257.44" cy="138.89" rx="71.85" ry="168.09" transform="translate(117.76 395.9) rotate(-89.82)"/><ellipse class="cls-2" cx="252.48" cy="152.5" rx="71.85" ry="168.09" transform="translate(99.2 404.52) rotate(-89.82)"/><ellipse class="cls-3" cx="241.72" cy="161.03" rx="71.85" ry="168.09" transform="translate(79.95 402.26) rotate(-89.82)"/><ellipse class="cls-4" cx="248.37" cy="156.42" rx="71.85" ry="168.09" transform="matrix(0, -1, 1, 0, 91.19, 404.31)"/><path class="cls-5" d="M169.09,87.5l-.2-.28-.14-.19-.39-.53c-1.05-1.44-1.82-2.43-2.41-3.13.13-.06.3-.13.53-.21,5.75-1.9,8.68-6.71,7.67-12.57-.57-3.22-2.83-7.37-10.43-8.86-.68-.14-1.38-.25-2.08-.37a31.42,31.42,0,0,1-3.89-.8,51.45,51.45,0,0,0,7.08-6.09l0,0a8.6,8.6,0,0,0,2.51-3.76,4.31,4.31,0,0,0-.62-3.87,3.8,3.8,0,0,0-3-1.48,4.51,4.51,0,0,0-.73.07L151,47.78a35.57,35.57,0,0,0-6.3-8.46l-.3-.27c-.55-.54-1.13-1.08-1.72-1.6a40.68,40.68,0,0,0,1.68-16.54c-.63-7.75-3.61-14-8.83-18.64A8.11,8.11,0,0,0,130.13,0c-3,0-6.19,2.16-6.56,7a27.79,27.79,0,0,0,0,3c-.29-.2-.57-.39-.84-.59a34.72,34.72,0,0,0-21.3-7.15,41.68,41.68,0,0,0-5.53.38c-2.47.34-8.38,2.84-8.32,7,0,3.46,2.52,7,5,8.7A43.68,43.68,0,0,0,96.91,21c-8.07,4.55-13.12,11.88-15,21.9-.49,2.52-.18,7.35,2.72,9.6a7.26,7.26,0,0,0,4.64,1.39A24.14,24.14,0,0,0,93,53.53l.7-.11.46-.08c1.17,6.54,3,11,9.47,11.64.58.06,1.22.09,1.92.1,0,.13-.08.5-.08.52-.17,1.25-.36,2.49-.55,3.71-.59,3.66-1.25,7.37-2,11-1.26,6.49-6.17,10.11-9,11.7-8.07,4.53-17.41,6.74-28.56,6.74-3.26,0-6.74-.19-10.55-.56.39-3.62,2.49-6.81,5.48-10.29,2.35-2.74,4.89-5.27,7.59-8,1.56-1.55,3.16-3.15,4.72-4.78,4.06-4.27,9.33-11.11,8-21-.33-2.52-1-7.76-6.56-7.76a11.45,11.45,0,0,0-2.1.22l1.63-2.37a3.78,3.78,0,0,0-.42-4.79A81.79,81.79,0,0,0,53,24.28,48.19,48.19,0,0,0,41.7,20a14.28,14.28,0,0,0-3.25-.37,13.93,13.93,0,0,0-11.26,5.74l-.06.09a13.28,13.28,0,0,0-2,4.31c0,.12-.06.24-.09.36a11.12,11.12,0,0,0,.62,7.28,3.75,3.75,0,0,0,3.26,2.1H29a3.77,3.77,0,0,0,3.28-1.91c.46-.79,1.88-1.1,2.69-1.21l.17,0,.25,0a8.09,8.09,0,0,1,.92,0h1l.28,0,.6,0a4.46,4.46,0,0,1,.54.06l.53.07.15,0,.34.05.27.06c7.74,1.65,12.23,8.79,10.65,17a49.25,49.25,0,0,1-2,6.94c-1.19-4.23-3.44-10.34-7.18-14.15l0,0a10,10,0,0,0-1-1,11,11,0,0,0-1-.74,4.14,4.14,0,0,0-.66-.34.91.91,0,0,0-.13-.08A2.65,2.65,0,0,0,38.2,44a6.41,6.41,0,0,0-2.49-.51,6.55,6.55,0,0,0-1.7.23,3.82,3.82,0,0,0-2.07-1.8A17.42,17.42,0,0,0,26.62,41a8.61,8.61,0,0,0-4.95,1.38,3.74,3.74,0,0,0-.94.92,3.72,3.72,0,0,0-1.94-.53,4.13,4.13,0,0,0-.92.11c-.65.17-6.52,1.83-11.77,8.72a26.55,26.55,0,0,0-3.47,5.94A18.76,18.76,0,0,0,1.4,61.68C-2.74,78,3.24,85.27,7.18,88.18a13.81,13.81,0,0,0,4.19,2.14,3.65,3.65,0,0,0,1.09.17,3.74,3.74,0,0,0,2.89-1.38,3.78,3.78,0,0,0,.81-3.1c0-.15-2.82-15.46,5.72-19.84l.19-.11a13.87,13.87,0,0,1,6.51-2.31c1,0,4.12,0,5.48,8.12A143.18,143.18,0,0,0,37.36,86L37,85.8A14.82,14.82,0,0,0,29.9,84c-8.55,0-15.87,7-16,15.29,0,3,2.41,5.36,3.16,6,.44.38.88.76,1.33,1.12a3.77,3.77,0,0,0-2.22,5.43l1.06,1.88.2.35,1,1.59c.78,1.26,1.55,2.44,2.28,3.46.18.28.38.55.61.88l.54.74c.38.53.77,1,1.15,1.52.24.32.49.63.74.93l.07.1L25.18,125l.34.39.09.1c.13.15.25.3.38.44l.43.47c.64.71,1.32,1.42,2.11,2.21l.73.73,1.12,1c.35.32.71.64,1,.91l.59.51.23.2c.22.19.43.37.65.53a3.93,3.93,0,0,0,.34.28l.53.42a46.45,46.45,0,0,0,6.66,4.41,3.73,3.73,0,0,0,1.79.46,3.8,3.8,0,0,0,2.48-.93A3.77,3.77,0,0,0,45.75,133c-.29-.79-.62-1.59-1-2.44a3.94,3.94,0,0,0-.54-.87,40.43,40.43,0,0,1-5.54-9.05,2.92,2.92,0,0,0-.17-.36A17.61,17.61,0,0,1,37,116.68l0-.08a20.66,20.66,0,0,1-.55-7.93c.34-3.2,1.79-3.2,2.33-3.2h.68a9.16,9.16,0,0,1,2.65.53l.21.06.39.12c.75.25,1.59.57,2.5.95a5.23,5.23,0,0,1,1.38,1q1.74,2.58,3.46,5.17c2.57,3.85,5.22,7.83,8,11.69,3.63,5.12,7.4,10.23,11.06,15.18,1.41,1.9,2.82,3.8,4.22,5.72,5.75,7.81,12.45,15.5,22.41,18.91l.34.12a36.8,36.8,0,0,0,3.77,1l-2.82,29a3.77,3.77,0,0,0,2.62,4l1.08.34a4,4,0,0,0,1.13.17,3.91,3.91,0,0,0,1.88-.49,3.82,3.82,0,0,0,1.79-2.43,119.2,119.2,0,0,1,13.56-33l.15-.15c1.18-.7,2.36-1.41,3.55-2.14,1-.59,1.93-1.17,2.89-1.73l.28-.18.11-.07c1.75-1,3.36-2,4.91-2.84,3.19-1.74,6.48-3.47,9.65-5.14,5.3-2.79,10.78-5.66,16.07-8.76a54.13,54.13,0,0,0,12.48-9.64C182.61,118.2,177.54,99.29,169.09,87.5Zm-72.9,59.82L94.93,147h0a27,27,0,0,1-8-4.48s0,0,0,0l-.83-.59a.22.22,0,0,0-.06,0,62.72,62.72,0,0,1-10.56-10.23,47.35,47.35,0,0,0,12,8.3q.43.21.84.36c.5.2,1,.37,1.39.5l.1,0a21.11,21.11,0,0,0,4.85.88l-.09,0,.44.1c-.4-.12-.8-.25-1.19-.39h0A41.66,41.66,0,0,1,76,129.63a42.16,42.16,0,0,1-4.12-5.44,34,34,0,0,1-3.66-7.47,39.18,39.18,0,0,0,4.09,4.87,34.32,34.32,0,0,0,9.5,6.85l.19.1a28.26,28.26,0,0,0,9.71,3l.3,0-.36-.21v0H91.5c-12.75-5.72-20-13.39-23-17.12l0,0-.18-.2a3.22,3.22,0,0,1-.24-.25,6.13,6.13,0,0,1-.84-1.23s0,0,0,0a4.25,4.25,0,0,1-.33-.86,3.26,3.26,0,0,1-.11-.83,3.56,3.56,0,0,1,.1-.47v0h0a.14.14,0,0,1,0-.06v0a.08.08,0,0,1,0,0,3,3,0,0,1,.28-.64l0,0a.3.3,0,0,0,0-.08l.05-.07.14-.19a1.15,1.15,0,0,1,.14-.17l.08-.09.1-.09a2.66,2.66,0,0,1,.74-.54l0,0,.1-.06.28-.11,0,0,.06,0h0l.12,0,.07,0,.07,0h0a5.45,5.45,0,0,1,1.24-.08h0c1.55,0,4.12.59,8.19,2.55l.2.09a21.6,21.6,0,0,1,3.18,1.62c4.08,2.52,7.61,1.78,10.89-.54a110.19,110.19,0,0,0,11.79-9.8c8.36-7.88,18.28-8.3,26.88-3.68,7.4,4,10.35,11.43,8,19.55-4.16,14.27-13.3,24.52-27.1,29.21a27.37,27.37,0,0,1-15.28.82h0C96.94,147.55,96.56,147.44,96.19,147.32ZM66.83,110.23a.07.07,0,0,0,0,0,.14.14,0,0,1,0-.06Z"/><path class="cls-6" d="M166,89.66a2.06,2.06,0,0,0-.14-.19s-.07-.09-.11-.16-.27-.36-.45-.6a30.42,30.42,0,0,0-3.25-4c-.19-2.13,0-4.06,3.25-5.14,4.23-1.4,5.78-4.62,5.13-8.34-.56-3.2-3.24-5-7.43-5.81h0l-.78-.14-.77-.14c-.78-.13-1.57-.26-2.36-.41-.52-.09-1-.21-1.57-.34l-.13,0a4.07,4.07,0,0,1-.5-.13,5.6,5.6,0,0,1-.54-.17c-.36-.11-.71-.25-1.07-.39l-.08,0-.62-.29-.34-.17a11.9,11.9,0,0,1-2-1.34l-.32-.28-.31-.29c-.2-.21-.4-.42-.6-.65h0c.53-.33,7.58-4.87,11.13-8.81l0,0a5.36,5.36,0,0,0,1.54-2.11c.12-.39,0-.55,0-.55h0L149.16,52,149,52h0l-.14,0h0A30.75,30.75,0,0,0,142,42h0v0l-.2-.2h0l-.13-.12-.11-.11c-.44-.44-.89-.85-1.36-1.25h0l-.06-.05c-.63-.55-1.28-1.08-2-1.58a.47.47,0,0,0,.05-.1,35.66,35.66,0,0,0,2.39-17.33C140.06,15,137.78,9.33,133,5.08a6,6,0,0,0-1.13-.8l-.36-.18L131.14,4l-.26-.07-.2,0a3.19,3.19,0,0,0-.59-.06l-.24,0h0l-.25,0-.17,0-.08,0-.16.07a.86.86,0,0,0-.24.11l-.18.12h0a.39.39,0,0,0-.1.08.1.1,0,0,0,0,0,2.61,2.61,0,0,0-.24.23,1.5,1.5,0,0,0-.2.24,4.69,4.69,0,0,0-.81,2.47c-.24,3.14.29,6.33.49,9.61h0c-.59-.34-1.2-.69-1.82-1h0l-1.32-.74-.74-.41-.74-.44c-.27-.15-.52-.31-.78-.47l-.63-.41-.69-.46c-.22-.15-.45-.31-.67-.48s-.73-.54-1.1-.79h0c-.37-.26-.74-.5-1.11-.74l-.56-.34q-.57-.36-1.14-.66l-.85-.46L114.79,9l-1.16-.53c-.78-.34-1.56-.63-2.36-.89l-1.21-.37-.59-.17h0c-.57-.14-1.14-.27-1.72-.39l-.51-.09c-.34-.07-.69-.13-1-.18l-1.3-.17-.69-.06c-.25,0-.51,0-.77-.06l-.82,0c-.78,0-1.58,0-2.37,0h-.33l-.79,0-.41,0-.82.07-.6.07h-.1c-.28,0-.57.06-.86.1l-.2,0a6.76,6.76,0,0,0-.77.2l-.17.06L95,6.74l-.18.07L94.5,7l-.3.14-.3.14-.37.2,0,0-.69.44c-.88.6-1.51,1.26-1.5,1.77,0,1.92,1.65,4.43,3.35,5.62,3.39,2.34,7.29,3.95,11.31,6h0c-.36.1-.71.21-1.06.33l-1,.34a1.15,1.15,0,0,0-.17.06l-.67.25a.35.35,0,0,0-.14.06c-.65.24-1.28.51-1.89.79l-.34.16-.34.16-.67.34-.65.35c-.21.12-.42.23-.63.36s-.55.33-.82.5l-.4.26a2.7,2.7,0,0,0-.39.27L96,26.1c-.5.38-1,.76-1.46,1.16l-.35.3a.17.17,0,0,0-.06.06,2.05,2.05,0,0,0-.23.2.12.12,0,0,0,0,.05l-.67.64-.64.66-.65.72a29,29,0,0,0-6.31,13.76c-.36,1.9.09,4.92,1.35,5.9l.16.11.08.05.06,0a.83.83,0,0,0,.16.09l.14.05.14,0a3,3,0,0,0,.54.13,5.54,5.54,0,0,0,.6.06l.42,0a27.59,27.59,0,0,0,3.88-.45l.37-.07.36-.11.4-.16a7.7,7.7,0,0,0,.81-.41c.34-.18.69-.39,1.06-.61s.45-.26.69-.38l.29-.15h0c1.15,8,2,11.49,4.5,12.8l.28.14a1.66,1.66,0,0,0,.31.12l.32.1a3.37,3.37,0,0,0,.34.09l.36.08c.24.05.51.08.78.11a26.76,26.76,0,0,0,4.45,0h0a19.19,19.19,0,0,1,.93,3.24v.1c0,.14,0,.27,0,.41,0,.39-.12.78-.17,1.18-.18,1.26-.37,2.53-.57,3.79-.59,3.72-1.25,7.42-2,11.13-1.26,6.49-5.58,11.31-10.83,14.26a6.45,6.45,0,0,1-.58.31c-.18.11-.37.21-.56.31h0c-1.13.61-2.27,1.16-3.42,1.66h0c-.77.34-1.53.66-2.31,1s-1.55.58-2.33.83c-.62.22-1.24.41-1.87.59-10.77,3.18-22.13,3-33.57,1.63C50.25,95,53.56,90,57.47,85.46s8.32-8.56,12.44-12.88c4.77-5,8-10.66,7-17.93-.27-2.07-.59-3.31-1.25-3.94l-.2-.17a1.08,1.08,0,0,0-.18-.11.91.91,0,0,0-.17-.09l-.34-.11-.12,0a3.07,3.07,0,0,0-.76-.05h-.19a10.73,10.73,0,0,0-1.37.21l-.31.07-.34.08-.7.19c-.81.22-1.63.4-2.5.6L67,51.63l-.87.18-1.58.33-1.14.25h0c2.77-4,4.85-7.07,7.07-10.29A78.82,78.82,0,0,0,51.25,27.61a42.41,42.41,0,0,0-6.41-2.76c-.88-.31-1.78-.58-2.68-.81-.43-.13-.88-.24-1.32-.35h0a10.28,10.28,0,0,0-2.95-.25l-.35,0h0l-.23,0-.61.1-.48.1a2.11,2.11,0,0,0-.36.09l-.38.11A3.05,3.05,0,0,0,35,24l-.2.07-.05,0-.26.1a2.81,2.81,0,0,0-.35.17c-.22.1-.43.21-.64.33a10.93,10.93,0,0,0-2.3,1.77,10.41,10.41,0,0,0-1,1.13,0,0,0,0,1,0,0,9.82,9.82,0,0,0-1.49,3.18.14.14,0,0,0,0,.07s0,.09,0,.13,0,0,0,0a0,0,0,0,0,0,0,7.46,7.46,0,0,0,.32,4.7h0a5.53,5.53,0,0,1,2.3-2.15l.31-.15.32-.14c.29-.12.6-.22.9-.31A.53.53,0,0,1,33,33l.31-.08.35-.08c.27-.05.53-.1.8-.13l.32,0,.2,0,.31,0h.2l.32,0h.37c.47,0,.9,0,1.32,0h.65l.72.06.46.07.4.05.19,0c.22,0,.44.07.65.12l.24.05h.07c.24.05.46.1.69.17h0a17.27,17.27,0,0,1,2.14.7c.47.18.92.38,1.36.6l.67.36c.22.12.43.24.65.38a7.2,7.2,0,0,1,.62.4c.21.12.41.27.61.41l.58.46a5,5,0,0,1,.56.47c.19.15.37.32.55.49.35.34.7.69,1,1.06a6.33,6.33,0,0,1,.47.56,12.57,12.57,0,0,1,.89,1.18l.4.61c.13.22.26.43.38.65s.24.44.34.66a4.17,4.17,0,0,1,.33.67c.09.2.18.39.26.59,0,0,0,.08,0,.11a14.75,14.75,0,0,1,.71,2.16c.05.18.09.37.13.55l.09.39v0a5.21,5.21,0,0,1,.1.57,19.6,19.6,0,0,1-.1,7.15,61.26,61.26,0,0,1-3,9.75c-.75,2-1.56,4-2.4,6h0a0,0,0,0,1,0,0c0,.06-.07.16-.14.33s-.06.17-.11.28a26.43,26.43,0,0,0-1.36,7.06v-.15a60.67,60.67,0,0,0-1.43-12.32v0a.06.06,0,0,0,0,0,.2.2,0,0,0,0-.07,5.64,5.64,0,0,0-.14-.64c-.57-2.6-2.74-11.21-7-15.48l-.1-.11v.14l-.39-.49h0l0-.05.23.2.1.11s0,0,0,0l0,0,.05,0s0,0,0,0l0,0a6,6,0,0,0-.63-.63,5,5,0,0,0-.59-.44h0l0,.09h0l0,0-.3-.2-.25-.17h0l-.05,0-.29-.1-.15,0L36,47.29a3,3,0,0,0-.52,0h-.12a2.72,2.72,0,0,0-.46.1l-.16.07a1.89,1.89,0,0,0-.21.09,3.29,3.29,0,0,0-.63.42c-.11.09-.22.2-.34.31h0l0,0s0,0,0,0A4.56,4.56,0,0,0,33,49c-.69,1-1.23,1.7-1.63,2.28,0,0,0,0,0,0l-1.27,1.82-.07.09h0a.32.32,0,0,0,0-.08,19.19,19.19,0,0,1-.23-4.17,9.55,9.55,0,0,1,.4-2.28,5.53,5.53,0,0,1,.5-1.13h0l-.07,0-.1,0-.16-.05-.61-.17-.23-.06L29,45,28.56,45l-.46-.07a5.48,5.48,0,0,0-.6-.07l-.15,0a8.24,8.24,0,0,0-1.49,0h0a6.29,6.29,0,0,0-.72.11L25,45l-.13,0a2.06,2.06,0,0,0-.35.12,3.6,3.6,0,0,0-.7.37s-.07.31-.16.79h0a16.89,16.89,0,0,0-.34,3.44v0a6.41,6.41,0,0,0,.33,2,1.61,1.61,0,0,0,.17.4c.18.34.21.51.13.54s-.16,0-.33-.08h0l-.09-.05h0l-.16-.11c-.17-.13-.37-.3-.59-.5-.06-.06-.12-.11-.17-.17s0,0,0,0a8.16,8.16,0,0,1-.58-.59c-.06-.07-.14-.14-.2-.22h0l-.41-.46a16.49,16.49,0,0,1-2.48-3.75h0l-.11-.26H18.7l-.09,0-.11,0-.31.11-.49.19-.05,0a21.69,21.69,0,0,0-8.55,7,22.78,22.78,0,0,0-3,5.1h0a1,1,0,0,0-.09.22.36.36,0,0,0,0,.07,16.06,16.06,0,0,0-.88,3l0,.12h0a1.22,1.22,0,0,0,0,.17,0,0,0,0,0,0,0c-3.52,13.89,1,20,4.31,22.47l.06,0a10.9,10.9,0,0,0,2.52,1.4l.23.09.09,0,.08,0,.08,0h0a37.39,37.39,0,0,1-.2-11.08c0-.18.05-.36.07-.54l.06-.34a2.56,2.56,0,0,1,0-.27s0-.07,0-.11,0-.07,0-.11,0-.24.08-.36l0-.1s0,0,0,0l0-.08a.11.11,0,0,1,0-.07.06.06,0,0,1,0,0c0-.15.06-.31.1-.45s0,0,0,0c.1-.36.19-.72.3-1.08,0-.06,0-.11.05-.16l.21-.67s0,0,0,0a.17.17,0,0,1,0-.05c.1-.31.21-.6.33-.9h0a1,1,0,0,0,.07-.15c.06-.14.12-.28.17-.42s.09-.2.14-.29a.61.61,0,0,1,.07-.17l.3-.58c.08-.15.16-.31.25-.46a.46.46,0,0,1,.08-.13c.11-.19.23-.39.36-.58s.25-.38.38-.56h0l.41-.55,0,0,.36-.43s0,0,0,0,.17-.18.25-.28l.13-.14s0,0,0,0l.14-.14A1.14,1.14,0,0,1,17,65.1l.3-.29.2-.18.33-.28.34-.27.24-.18c.23-.17.47-.34.72-.5,0,0,0,0,0,0l0,0,.09,0c.13-.09.27-.17.41-.25l.44-.24.29-.18.3-.17.59-.32c.39-.21.78-.41,1.16-.58s.75-.34,1.11-.49.73-.28,1.07-.4.69-.23,1-.31l.51-.12.5-.1a9.21,9.21,0,0,1,3.59,0,5.74,5.74,0,0,1,.81.23l.31.11a7.54,7.54,0,0,1,1.17.59,6.42,6.42,0,0,1,.53.38h0a6.47,6.47,0,0,1,.51.43h0l.37.36c.12.12.23.24.34.37,1.64,1.88,2.78,4.77,3.43,8.62,1.34,8,3.91,15.85,5.92,23.76a0,0,0,0,0,0,0,90.62,90.62,0,0,0-8.51-5.87c-.2-.11-.41-.22-.62-.31l-.62-.26-.32-.11a1.82,1.82,0,0,0-.3-.11l-.26-.08-.41-.11a1.87,1.87,0,0,0-.34-.08L32,88l-.42-.07a3,3,0,0,0-.42-.06l-.45,0h-.21a12.11,12.11,0,0,0-2.88.2l-.47.11a4.21,4.21,0,0,0-.48.12h0l-.46.14-.48.17a11.2,11.2,0,0,0-1.37.61,7.58,7.58,0,0,0-.88.49,11.64,11.64,0,0,0-5.72,9.67,5.12,5.12,0,0,0,1.88,3.17c1.46,1.29,3,2.48,4.6,3.66l1.44,1.08,2.1,1.57h0L20,110l-.52.08a0,0,0,0,0,0,0h0q.53.94,1.05,1.86l.1.18,1,1.61c.72,1.16,1.44,2.27,2.17,3.31l.55.78.55.75c.36.5.73,1,1.09,1.45l.75,1c.45.55.89,1.07,1.33,1.58.14.18.3.34.44.5s.32.38.48.56.15.17.23.24c.66.74,1.32,1.43,2,2.07.24.25.48.48.72.71s.69.65,1,1l1,.88.83.72c.15.13.29.25.43.35l.43.35.47.37.63.5.7.52h0l.67.49.44.3.75.5,1.39.88c.56.34,1.07.62,1.52.87h0c-.26-.73-.56-1.43-.88-2.13h0s0,0,0,0a44.53,44.53,0,0,1-6.14-10s0,0,0,0a1.79,1.79,0,0,1-.12-.24h0a19.79,19.79,0,0,1-1.52-3.72.26.26,0,0,1,0-.08c0-.1-.06-.2-.1-.31a1.28,1.28,0,0,1,0-.13,24.36,24.36,0,0,1-.67-9.34,8.13,8.13,0,0,1,2.19-5.12,5.85,5.85,0,0,1,.54-.45,1.13,1.13,0,0,1,.18-.12,1,1,0,0,1,.13-.09,6.88,6.88,0,0,1,.77-.38l.17-.07L37,102a3.31,3.31,0,0,1,.45-.12l.24,0,.24,0h0l.38,0h.28c.17,0,.34,0,.52,0h.36l.55,0a2.33,2.33,0,0,1,.37,0l.17,0c.38,0,.78.12,1.19.21l.71.18.73.21h0l0,0h0a0,0,0,0,0,0,0l.53.17a.25.25,0,0,0,.13,0c.47.16.94.34,1.41.52s.87.34,1.3.52h0l.06,0h0l.15.08.05,0a7.72,7.72,0,0,1,2.64,2.07h0c3.8,5.64,7.49,11.34,11.42,16.88,5,7,10.15,13.9,15.25,20.84,4,5.46,8.29,10.53,13.61,14.11h0l1.19.76h0c.41.25.82.48,1.24.72l.63.33h0q1.14.58,2.34,1.08c.52.22,1.07.42,1.62.61h0l.22.08,1,.31a27.33,27.33,0,0,0,3.24.74l.08,0h.06c.74.13,1.49.22,2.28.3h0l-3.15,32.55,1,.34h0A123.54,123.54,0,0,1,116,161.14h0c.29-.31.58-.6.88-.89.64-.38,1.29-.77,1.93-1.17l2-1.18s0,0,0,0l.08,0c.9-.55,1.81-1.09,2.72-1.63l0,0,.08,0,.21-.14,0,0q2.57-1.54,5.18-3c8.52-4.65,17.24-8.95,25.62-13.84a50.57,50.57,0,0,0,11.62-9C178.39,117.21,173.75,100.44,166,89.66ZM38.8,51.39v0l0,0h0v0h0ZM43.73,95s0,0,0,0,0,0,0,0Zm115.19,1.74h0l.06-.07c.1-.1.22-.2.35-.31h0l0,0a.6.6,0,0,1-.08.08.12.12,0,0,0-.05,0l0,0a3.59,3.59,0,0,1-.35.32Zm3.14-12a19.49,19.49,0,0,1,.23,2.17h0a1.79,1.79,0,0,1,0-.23.25.25,0,0,0,0-.08c0-.51-.1-1-.15-1.53,0-.08,0-.14,0-.2A.57.57,0,0,1,162.06,84.79ZM151.22,60.42h0a15.88,15.88,0,0,1,1.52-1.31l.07-.06,0,0-1.75,1.52ZM137,51.27l.3-.08h0l-.1,0a.18.18,0,0,1-.1,0ZM125.27,38.11s0,0,0,0h0Zm12.08.72h0ZM94.9,146.94a27,27,0,0,1-8-4.48s0,0,0,0l-.83-.59a.22.22,0,0,0-.06,0,62.72,62.72,0,0,1-10.56-10.23,47.35,47.35,0,0,0,12,8.3q.43.21.84.36c.5.2,1,.37,1.39.5l.1,0a21.11,21.11,0,0,0,4.85.88l-.09,0,.44.1c-.4-.12-.8-.25-1.19-.39h0A41.66,41.66,0,0,1,76,129.63a42.16,42.16,0,0,1-4.12-5.44,34,34,0,0,1-3.66-7.47,39.18,39.18,0,0,0,4.09,4.87,34.32,34.32,0,0,0,9.5,6.85l.19.1a28.26,28.26,0,0,0,9.71,3l.3,0-.36-.21v0H91.5c-12.75-5.72-20-13.39-23-17.12l0,0-.18-.2a3.22,3.22,0,0,1-.24-.25,6.13,6.13,0,0,1-.84-1.23s0,0,0,0a4.25,4.25,0,0,1-.33-.86,3.26,3.26,0,0,1-.11-.83,3.56,3.56,0,0,1,.1-.47v0h0a.14.14,0,0,1,0-.06v0a.08.08,0,0,1,0,0,3,3,0,0,1,.28-.64l0,0a.3.3,0,0,0,0-.08l.05-.07.14-.19a1.15,1.15,0,0,1,.14-.17l.08-.09.1-.09a2.66,2.66,0,0,1,.74-.54l0,0,.1-.06.28-.11,0,0,.06,0h0l.12,0,.07,0,.07,0h0a5.45,5.45,0,0,1,1.24-.08l-.06,0h.1c1.55,0,4.12.59,8.19,2.55l.2.09a21.6,21.6,0,0,1,3.18,1.62c4.08,2.52,7.61,1.78,10.89-.54a110.19,110.19,0,0,0,11.79-9.8c8.36-7.88,18.28-8.3,26.88-3.68,7.4,4,10.35,11.43,8,19.55-4.16,14.27-13.3,24.52-27.1,29.21a27.37,27.37,0,0,1-15.28.82h0c-.37-.09-.75-.2-1.12-.32L94.93,147ZM66.83,110.23a.07.07,0,0,0,0,0,.14.14,0,0,1,0-.06Z"/><path class="cls-6" d="M116,161.14h0Zm50-71.48a2.06,2.06,0,0,0-.14-.19l-.1-.16-.46-.6-.45-.59c-.52-.65-1.68-.79-2.56-1.16.16,2.7-.08,7.11-2.83,9.31l0,0v0l0,0h0l0,0a.12.12,0,0,0-.05,0l0,0,0,0-.07.06-.21.19h0l-.06,0h0A8.17,8.17,0,0,1,155,98.34c-4.74.69-9-1.57-9.69-6a34.57,34.57,0,0,1,.15-11.57c1.79-9.5,4.34-18.88,3.35-28.69A30.88,30.88,0,0,0,142,42h0a1.75,1.75,0,0,0-.24-.23h0a.57.57,0,0,0-.11-.11l-.11-.11c-.47-.45-1-.9-1.45-1.31a7.07,7.07,0,0,0-.73-.46l-.31-.18-.33-.17c-.18-.09-.36-.18-.56-.26l-.37-.16-.42-.17h-.06c-.31-.12-.63-.23-1-.34-1.5-.16-3-.34-4.51-.47h0c-1.26-.1-2.51-.17-3.77-.16q-.81,0-1.59.09h0l-.23,0-.31,0h-.05l-.66.1a2,2,0,0,0-.35.06l-.35.07c-.22,0-.45.09-.67.15s-.43.11-.64.18h0l-.32.1-.07,0-.26.09c-.33.11-.66.25-1,.39l-.54.25-.36.18q-.47.24-.9.51l-.29.18c-.16.1-.33.21-.49.33s-.36.26-.53.4a11.33,11.33,0,0,0-1.06.91l-.41.4,0,0-.44.47a18.36,18.36,0,0,0-1.27,1.61l-.23.33c-.09.13-.17.26-.25.4s-.18.27-.26.41-.33.57-.48.86a2.4,2.4,0,0,0-.2.39l.07-.11q-.18.39-.36.81s0,.05,0,.07-.13.31-.19.48l-.15.36c-.1.26-.2.52-.3.8s-.12.34-.18.51,0,.09,0,.13l-.21.62,0,.1c-.24.73-.47,1.52-.71,2.38-.1.36-.2.72-.29,1.09s-.2.77-.29,1.17-.19.8-.28,1.23-.18.86-.27,1.3l-.21,1.1c-.16.84-.31,1.72-.45,2.65l-.12.75-.15,1.08c0,.36-.11.73-.15,1.1v0a.25.25,0,0,0,0,.08,2.83,2.83,0,0,1,0,.41c0,.39-.11.78-.17,1.18-.18,1.26-.37,2.53-.56,3.79-.6,3.72-1.26,7.42-2,11.13-1.26,6.49-5.58,11.31-10.84,14.26-.18.11-.37.21-.56.31s-.37.21-.56.31h0c-1.14.6-2.28,1.15-3.42,1.66h0c-.77.34-1.53.65-2.31,1s-1.55.58-2.33.83c-.62.22-1.24.41-1.87.59-10.77,3.18-22.13,3-33.57,1.63h0c-1-2.18-2.73-4.28-3-6.56-.56-4.63-.82-9.3-1.08-14l0-.45h0c-.07-1.3-.14-2.6-.23-3.9-.14-1-.3-2-.47-3v0c0-.22-.09-.43-.13-.65l0-.06c-.47-2.2-.91-4.43-1.37-6.62,0-.06,0-.11,0-.13s0,0,0,0v0c-.4-1.87-.82-3.74-1.3-5.58-.39-1.52-.82-3-1.3-4.53a10.81,10.81,0,0,0-2.91-4.24l-.48-.42h0s0,0,0,0-.28-.24-.43-.35a13.62,13.62,0,0,0-2.08-1.38c-1.15-.61-3.42.89-4.86,1.6h0c-.83,1.18-1.15,1.64-1.26,1.82H30a19.89,19.89,0,0,1-.23-4.17,1.8,1.8,0,0,0-.91-1c-2.34-.77-4.57-.51-5.54,1.78a0,0,0,0,0,0,0,6.15,6.15,0,0,0,.32,2,3,3,0,0,0,.17.4,1.15,1.15,0,0,1,.08.15,1,1,0,0,1,.09.24c0,.07,0,.12,0,.15s-.16,0-.33-.08h0l-.09-.05h0l-.16-.11c-.17-.13-.37-.3-.59-.5l-.14-.13,0,0a8.16,8.16,0,0,1-.58-.59c-.06-.07-.14-.14-.2-.22h0a.57.57,0,0,1-.11-.11l-.31-.35c-4.38-1.43-10.86,1-13.45,5.13-.08.12-.14.24-.21.36a7.13,7.13,0,0,0-.51,1.13c-.24.66-.46,1.3-.65,2a36.57,36.57,0,0,0-1.19,5A31.16,31.16,0,0,0,7.64,82.09a11.85,11.85,0,0,0,1.72,3s0,0,0,0a4.48,4.48,0,0,0,2.94,1.55l.08,0h0a.64.64,0,0,1,0-.07.58.58,0,0,0,0-.1.38.38,0,0,0,0-.1s0-.08,0-.12v0a1.86,1.86,0,0,1,0-.27c0-.15,0-.32-.07-.51l0-.21a.15.15,0,0,0,0-.07l0-.3c0-.44-.1-1-.14-1.52,0-.18,0-.36,0-.55-.06-.9-.09-1.93-.07-3,0-.33,0-.67,0-1,0-.72.09-1.48.18-2.24,0-.18,0-.38.07-.57s.08-.61.13-.91l.06-.34a2.56,2.56,0,0,1,0-.27s0-.07,0-.11,0-.07,0-.11,0-.24.08-.36a.13.13,0,0,1,0-.06.06.06,0,0,1,0,0s0,0,0,0l0-.08a.11.11,0,0,1,0-.07,2.59,2.59,0,0,1,.09-.4.2.2,0,0,1,0-.09s0,0,0,0c0-.2.1-.39.15-.58s.06-.22.09-.33.07-.22.11-.33a2.68,2.68,0,0,1,.07-.27c0-.14.09-.27.14-.4s0,0,0,0a.17.17,0,0,1,0-.05c.1-.31.21-.6.33-.9h0c.07-.18.15-.37.24-.56a1.55,1.55,0,0,1,.14-.29.61.61,0,0,1,.07-.17l.1-.21c.09-.19.2-.38.3-.57l.15-.26a.46.46,0,0,1,.08-.13q.12-.22.27-.45s.05-.08.07-.13,0,0,0,0q.17-.26.36-.51h0l.07-.11.37-.48c.11-.14.23-.27.35-.41s0,0,0,0a2.2,2.2,0,0,1,.2-.23c.06-.06.11-.13.18-.19s0,0,0,0l.14-.14A1.14,1.14,0,0,1,17,65.1h0a4.51,4.51,0,0,1,.51-.47,1.51,1.51,0,0,1,.23-.21l.09-.06.2-.17.21-.16.39-.29.36-.24.07-.05.07,0s0,0,0,0l0,0,.34-.21.59-.32.3-.18.3-.17.59-.32c.39-.21.78-.41,1.16-.58s.75-.34,1.11-.49.73-.28,1.07-.4.69-.23,1-.31l.51-.12a4.91,4.91,0,0,1,.5-.1,9.21,9.21,0,0,1,3.59,0,8.19,8.19,0,0,1,.81.23l.31.11a7.54,7.54,0,0,1,1.17.59,6.42,6.42,0,0,1,.53.38h0a6.47,6.47,0,0,1,.51.43h0l.37.36c.12.12.23.24.34.37,1.62,1.89,2.77,4.77,3.42,8.62,1.34,8,3.9,15.84,5.92,23.75h0v0l0,0h0a0,0,0,0,0,0,0h0a.41.41,0,0,0,.05.09l.06.07c.07.11.15.21.21.31l.29.42c.24.36.49.7.73,1.05.11.17.23.34.37.53a1,1,0,0,0,.09.13l.15.22.34.49c.69,1,1.38,2,2.06,3,.34.5.68,1,1,1.51l.08.11,0,.06c.29.43.58.86.85,1.28.11.17,0,.48-.15.81l0,0c-.1.23-.22.46-.29.67,0,0,0,0,0,0,3.8,5.64,7.5,11.34,11.43,16.88,5,7,10.15,13.9,15.24,20.84,4,5.46,8.3,10.55,13.63,14.11h0l1.19.76h0c.41.25.82.48,1.24.72l.63.33h0q1.14.58,2.34,1.08c.52.22,1.07.42,1.62.61h0l.21.08c.34.11.68.22,1,.31a27.33,27.33,0,0,0,3.24.74l.08,0h.06c.74.13,1.49.22,2.28.3h0l1-.14,5.69-.73h0a41,41,0,0,0,10.14-3.92l0,0,.08,0c1-.6,1.94-1.18,2.92-1.76l.12-.08,0,0q2.56-1.54,5.17-3c8.52-4.65,17.25-8.95,25.62-13.84a50.35,50.35,0,0,0,11.62-9C178.38,117.21,173.73,100.44,166,89.66Zm-26.28,28c-4.16,14.27-13.3,24.52-27.1,29.21a27.37,27.37,0,0,1-15.28.82h0a23,23,0,0,1-2.38-.69h0a27,27,0,0,1-8-4.48s0,0,0,0l-.83-.59a.22.22,0,0,0-.06,0,62.72,62.72,0,0,1-10.56-10.23,47.35,47.35,0,0,0,12,8.3l1.21.3,4.07,1,.78.18,1,.26.44.1c-.4-.12-.8-.25-1.19-.39h0A41.66,41.66,0,0,1,76,129.63a16.32,16.32,0,0,1-4.12-5.44,34,34,0,0,1-3.66-7.47,39.18,39.18,0,0,0,4.09,4.87,47.8,47.8,0,0,0,9.5,6.85l.19.1a28.26,28.26,0,0,0,9.71,3l.3,0-.36-.21,0,0H91.5c-12.75-5.72-20-13.39-23-17.12l0,0-.18-.2a3.22,3.22,0,0,1-.24-.25l-.57-.62a2.39,2.39,0,0,1-.38-.52l-.06-.12v0h0s0,0,0,0h0s0,0,0-.05a0,0,0,0,1,0,0,.08.08,0,0,1,0,0h0s0,0,0,0a1.19,1.19,0,0,1-.08-.2,9.9,9.9,0,0,1-.39-1.54c-.05-.2-.1-.4-.14-.6s-.06-.27-.1-.4-.07-.26-.11-.38a14.15,14.15,0,0,0,1.35-.51c.44-.18.89-.37,1.33-.52l.16,0,.06,0h0l.12,0,.07,0,.07,0h0l.14,0,.23-.06a2.44,2.44,0,0,1,.71,0h.1l.06,0h0c1.55,0,4.12.59,8.19,2.55l.2.09a21.6,21.6,0,0,1,3.18,1.62c4.08,2.52,7.61,1.78,10.89-.54a110.19,110.19,0,0,0,11.79-9.8c8.36-7.88,18.28-8.3,26.88-3.68C139.1,102.05,142.05,109.5,139.7,117.62Zm.7-64.78s0,0,0,0l-.09.11a2.76,2.76,0,0,1-.65.67c-2.36,1.66-6.59.1-10.39-3.61,2.48.24,5,1.47,7.16,1.29a4.25,4.25,0,0,0,.61-.08l.3-.08.24-.07.23-.09.19-.09.24-.13.24-.15a.83.83,0,0,0,.16-.12l.16-.13a2.61,2.61,0,0,0,.31-.28l.21-.21.23-.27c.12-.15.24-.32.36-.5a2.82,2.82,0,0,0,.18-.29,3.18,3.18,0,0,0,.23-.4c.06-.1.11-.21.17-.33s.11-.22.16-.34a.93.93,0,0,1,.13.15,10.89,10.89,0,0,0,.47-1.06l0-.05a10.18,10.18,0,0,1,.18,1.88l.57.67C141.42,50.47,141,51.86,140.4,52.84Z"/><path class="cls-7" d="M116,161.13h0a123.25,123.25,0,0,0-14.19,34.45l-1.08-.34q1.58-16.28,3.16-32.55l1-.14a27.76,27.76,0,0,0,5.68-.72h0a40.89,40.89,0,0,0,10.14-3.92l-3.9,2.35Z"/><path class="cls-8" d="M138.13,38.65c.67.5,1.32,1,1.94,1.57a13.68,13.68,0,0,0-3.76-1.75A24.77,24.77,0,0,0,126,37.91c-8.19.84-10.81,6.07-11,6.42v0a19.56,19.56,0,0,0-1.13,2.07,3.49,3.49,0,0,0-.19.39l.06-.11c-1.54,3.33-3.3,8.86-4.44,17.83a17.65,17.65,0,0,0-.93-3.34,26.76,26.76,0,0,1-4.45,0c-4.54-.45-5.45-3.27-6.9-13.44-1.45.73-2.66,1.71-4,1.9-2.08.31-4.87.89-6.19-.14s-1.72-4-1.35-5.9c2.17-11.36,8.8-18.94,20.39-22.32-4-2.09-7.93-3.7-11.31-6-1.71-1.18-3.34-3.7-3.36-5.63,0-1.11,3.15-3,5-3.27a31.56,31.56,0,0,1,24.07,6,79.41,79.41,0,0,0,7.41,4.45c-.21-3.28-.74-6.47-.49-9.61.27-3.57,3-4.6,5.66-2.19,4.79,4.25,7.06,9.87,7.58,16.14A35.48,35.48,0,0,1,138.13,38.65Z"/><path class="cls-6" d="M68.92,108l0,0-.28.11-.1.06,0,0a2.66,2.66,0,0,0-.74.54l-.1.09-.08.09a1.15,1.15,0,0,0-.14.17l-.14.19-.05.07a.3.3,0,0,1,0,.08l0,0a3,3,0,0,0-.28.64.08.08,0,0,0,0,0,.09.09,0,0,1,0,0,.07.07,0,0,0,0,0h0v0a3.56,3.56,0,0,0-.1.47,5.09,5.09,0,0,0,0,.55,3.11,3.11,0,0,0,0,.32,3,3,0,0,0,.08.32l0-.1a10.84,10.84,0,0,1-.36-1.39c-.05-.2-.1-.4-.14-.6s-.06-.27-.1-.4-.07-.26-.11-.38a14.15,14.15,0,0,0,1.35-.51c.44-.18.89-.37,1.33-.52Z"/><path class="cls-7" d="M67.06,112.58a4.6,4.6,0,0,1-.25-.61A5.56,5.56,0,0,0,67.06,112.58Z"/><path class="cls-7" d="M136.31,38.47c-1.5-.15-3-.34-4.51-.46h0c-1.26-.11-2.51-.18-3.77-.17a18,18,0,0,0-1.83.11,14.77,14.77,0,0,0-9.75,4.87L117,42a8.32,8.32,0,0,0-1.92,2.33c.17-.35,2.79-5.58,11-6.42A24.77,24.77,0,0,1,136.31,38.47Z"/><path class="cls-7" d="M117,42l-.55.82a18,18,0,0,0-2.5,3.6C115.5,43.13,116.82,42.11,117,42Z"/><path class="cls-7" d="M69.89,72.58c-4.12,4.32-8.57,8.35-12.44,12.88s-7.22,9.58-6.3,16.13c-1-2.18-2.73-4.28-3-6.56-.56-4.63-.82-9.3-1.08-14-.08-1.45-.17-2.91-.26-4.36.21,1.5.38,3,.44,4.3A29.78,29.78,0,0,1,48.7,70.73l.12-.28.13-.33,0,0h0c.84-2,1.65-4,2.39-6a62.35,62.35,0,0,0,3-9.75c2-10.62-4.28-19.4-13.58-21.38l-.24-.05c-.21,0-.43-.08-.65-.12a19.29,19.29,0,0,0-2-.22h-.38c-.42,0-.85,0-1.32,0a10.24,10.24,0,0,0-1.21.08,2.94,2.94,0,0,0-.51,0C32.26,33,30.1,33.8,29,35.76a7.56,7.56,0,0,1-.29-4.87.15.15,0,0,1,0-.07,10,10,0,0,1,1.5-3.19,10.2,10.2,0,0,1,10.63-3.94,44.23,44.23,0,0,1,10.41,3.92A78.77,78.77,0,0,1,70.48,42.1c-2.22,3.22-4.3,6.26-7.08,10.29,3.21-.7,5.4-1.1,7.55-1.67,4.53-1.21,5.31-.71,5.93,3.93C77.86,61.92,74.66,67.58,69.89,72.58Z"/><path class="cls-9" d="M36.16,32.55c-.4,0-.8,0-1.21.08A10.24,10.24,0,0,1,36.16,32.55Z"/><path class="cls-10" d="M165.29,79.58c-3.26,1.08-3.45,3-3.25,5.14h0c.06.74.18,1.49.22,2.24h0c.16,2.69-.08,7.11-2.83,9.31l0,0a4.43,4.43,0,0,0-.54.5h0A8,8,0,0,1,155,98.33c-4.75.7-9-1.56-9.69-6a34.26,34.26,0,0,1,.16-11.56c1.78-9.5,4.33-18.87,3.34-28.68l12.85-2.42c.21.46.41.92.61,1.37-2.39,4.46-7.64,6-11.26,9.62,3.35,3.89,7.87,4,12,4.81s6.87,2.61,7.42,5.81C171.06,75,169.51,78.19,165.29,79.58Z"/><path class="cls-7" d="M159.38,96.33a4.77,4.77,0,0,1-.52.48A3.51,3.51,0,0,1,159.38,96.33Z"/><path class="cls-7" d="M159.4,96.31l0,0,.06-.06Z"/><path class="cls-7" d="M104.9,162.55l5.68-.72A27.76,27.76,0,0,1,104.9,162.55Z"/><path class="cls-7" d="M116,161.13h0Z"/><path class="cls-7" d="M91.68,131.35l0,0h0Z"/><path class="cls-6" d="M93.46,141.36a10.07,10.07,0,0,1-3.83-.63c-.43-.13-.89-.3-1.39-.5q-.4-.15-.84-.36l1.21.3,4.07,1Z"/><path class="cls-6" d="M76,129.63a16.32,16.32,0,0,1-4.12-5.44A42.16,42.16,0,0,0,76,129.63Z"/><path class="cls-7" d="M81.84,128.44a34.32,34.32,0,0,1-9.5-6.85A47.8,47.8,0,0,0,81.84,128.44Z"/><path class="cls-7" d="M97.31,147.64a23,23,0,0,1-2.38-.69l1.26.37C96.56,147.44,96.94,147.55,97.31,147.64Z"/><path class="cls-6" d="M142,49.38c-.58,1.09-.94,2.48-1.59,3.47a8.16,8.16,0,0,0,1-4.14C141.6,48.93,141.8,49.15,142,49.38Z"/><path class="cls-7" d="M39.9,32.79c-.53-.07-1.23-.16-2-.22A19.29,19.29,0,0,1,39.9,32.79Z"/><path class="cls-6" d="M51.15,101.59l-3.9-2.74L46,92.07l-1.37-9.7-.49-5.65L46,74.18l.33-.46c.17,1,.33,2,.47,3,.21,1.5.38,3,.44,4.3,0,.46,0,.94,0,1.43v.06A68.19,68.19,0,0,0,51.15,101.59Z"/><path class="cls-6" d="M47.29,82.45v.06l-.22-1.44L46,74.18,44.8,66.24a1,1,0,0,0,0,.12c.17.74.8,3.46,1.37,6.63l0,.06c0,.23.08.45.12.67.17,1,.33,2,.47,3,.21,1.5.38,3,.44,4.3C47.28,81.53,47.29,82,47.29,82.45Z"/><path class="cls-6" d="M47.27,81.42l-.22-.78-8.2-27.82-.26-.9L38.32,51l-.9-3,0-.16a6,6,0,0,1,.59.44l.19.23.5.63a29.38,29.38,0,0,1,1.81,2.54,0,0,0,0,1,0,0C48.61,64.39,47.27,81.42,47.27,81.42Z"/><path class="cls-6" d="M30,53.06,7.72,56c.07-.13.13-.25.21-.37,2.8-5,8.45-7.87,11-8.88h0a16.2,16.2,0,0,0,2.49,3.75c1.6,1.86,3.1,2.94,2.4,1.65a3,3,0,0,1-.17-.4,6.13,6.13,0,0,1-.32-2,17.29,17.29,0,0,1,.33-3.47c2-.53,5.65.15,6.54.33a8.72,8.72,0,0,0-.4,2.28A18.76,18.76,0,0,0,30,53.06Z"/><path class="cls-6" d="M40.48,51.67l-1.2.16-.48.06-8.73,1.17c.12-.18.44-.64,1.28-1.82L33,49a5.26,5.26,0,0,1,.5-.61,0,0,0,0,0,0,0c2.11-1.56,3.86-.69,5.08.55l0,0A10.58,10.58,0,0,1,40.48,51.67Z"/><path class="cls-6" d="M39.05,56.62H33.48L19.74,59.45,5.37,64.16,5,64.3s-.49-4.36,4.11-10.42,9.7-7.35,9.7-7.35.07.16.1.25h0a16.2,16.2,0,0,0,2.49,3.75c1.6,1.86,3.1,2.94,2.4,1.65a3,3,0,0,1-.17-.4,6.13,6.13,0,0,1-.32-2,17.29,17.29,0,0,1,.33-3.47c.09-.49.16-.8.16-.8,2.35-1.61,6.87,0,6.87,0a5.22,5.22,0,0,0-.49,1.13,8.72,8.72,0,0,0-.4,2.28A18.76,18.76,0,0,0,30,53.06l0,.09.06-.09c.12-.18.44-.64,1.28-1.82L33,49a5.26,5.26,0,0,1,.5-.61,0,0,0,0,0,0,0,2.82,2.82,0,0,1,3.87-.52,6,6,0,0,1,.59.44,5.55,5.55,0,0,1,.62.63l0,0v.18l.12,2.28,0,.5.05.93Z"/><path class="cls-6" d="M45.92,65.32s-2.67-14.1-9.16-17.83Z"/><path class="cls-6" d="M12.44,86.71h0a10.43,10.43,0,0,1-3-1.57c-3.39-2.5-7.95-8.6-4.32-22.7.29-1.1.62-2.25,1-3.46l.47.13,7.75,2.12,5.83,1.59C8.94,68.57,12.44,86.71,12.44,86.71Z"/><path class="cls-7" d="M44.79,135.52a19.9,19.9,0,0,1-2.6-1.21,43.6,43.6,0,0,1-6.14-4.05l-.47-.38-.42-.35a3.47,3.47,0,0,1-.43-.35c-.6-.49-1.2-1-1.83-1.6-.33-.3-.68-.62-1-1s-.47-.47-.71-.71a60.76,60.76,0,0,1-4.45-5L26,120c-.36-.47-.73-1-1.09-1.45l-.55-.75-.54-.78c-.73-1-1.46-2.15-2.17-3.31-.33-.53-.65-1.07-1-1.61l-.09-.18c-.36-.62-.71-1.23-1.06-1.87l13.85,7.54h0a.51.51,0,0,0,0,.14c.16.47.76,2.15,1.77,4.34,0,0,0,0,0,0a44.46,44.46,0,0,0,6.13,10A22.24,22.24,0,0,0,44.79,135.52Z"/><path class="cls-6" d="M49.62,105.91s-1.31-2-5.79-3.32,5.35-1.19,5.35-1.19L53,104.35Z"/><path class="cls-11" d="M32.66,108.28a24.54,24.54,0,0,0,.68,9.34.51.51,0,0,0,0,.14,21.52,21.52,0,0,0,1.77,4.34s0,0,0,0a44.46,44.46,0,0,0,6.13,10c.33.71.63,1.42.9,2.16a43.6,43.6,0,0,1-6.14-4.05l-.47-.38-.42-.35a3.47,3.47,0,0,1-.43-.35l-.83-.72c-.34-.28-.67-.58-1-.88s-.68-.62-1-1-.47-.47-.71-.71c-.65-.64-1.31-1.34-2-2.07-.24-.26-.47-.52-.7-.79-.59-.67-1.18-1.36-1.77-2.09L26,120c-.36-.47-.73-1-1.09-1.45l-.55-.75-.54-.78c-.73-1-1.46-2.15-2.17-3.31-.33-.53-.65-1.07-1-1.61l-.09-.18c-.36-.62-.71-1.23-1.06-1.87L20,110l7.68-1.18-2.1-1.57-1.44-1.09c-1.57-1.17-3.13-2.36-4.6-3.65a5.06,5.06,0,0,1-1.87-3.16c.11-8.5,10-14.29,17.49-10.22A92.2,92.2,0,0,1,43.69,95l0,0c1.85,2.69,3.73,5.35,5.53,8.06l.85,1.28c.11.17,0,.48-.15.81-3.1-1.53-8-3.65-10.86-3.48C35.41,101.54,33.1,104.09,32.66,108.28Z"/><path class="cls-7" d="M52.78,106.66c-.21-.11-1.31-.72-2.84-1.48-3.1-1.53-8-3.65-10.86-3.48L43.69,95l0,0a95.83,95.83,0,0,0,5.53,8.06A15.13,15.13,0,0,0,52.78,106.66Z"/><path class="cls-7" d="M43.69,95s7.16,10.61,9.09,11.66l-9.58-4.82Z"/><path class="cls-7" d="M67.15,112.47l-.33-.49h0v-.36A4.25,4.25,0,0,0,67.15,112.47Z"/><path class="cls-7" d="M92,131.56l-.34-.15-.2-.09h.17v0Z"/><path class="cls-8" d="M139.7,117.62c-4.16,14.27-13.3,24.52-27.1,29.21a27.37,27.37,0,0,1-15.28.82h0l-1.12-.32L94.93,147h0a27,27,0,0,1-8-4.48s0,0,0,0l-.83-.59a.22.22,0,0,0-.06,0,62.72,62.72,0,0,1-10.56-10.23,47.35,47.35,0,0,0,12,8.3q.43.21.84.36c.5.2,1,.37,1.39.5l.1,0a21.11,21.11,0,0,0,4.85.88l-.09,0,.44.1c-.4-.12-.8-.25-1.19-.39h0A41.66,41.66,0,0,1,76,129.63a42.16,42.16,0,0,1-4.12-5.44,34,34,0,0,1-3.66-7.47,39.18,39.18,0,0,0,4.09,4.87,34.32,34.32,0,0,0,9.5,6.85l.19.1a28.26,28.26,0,0,0,9.71,3l.3,0-.36-.21v0H91.5c-12.75-5.72-20-13.39-23-17.12l0,0-.18-.2a3.22,3.22,0,0,1-.24-.25,6.13,6.13,0,0,1-.84-1.23s0,0,0,0a4.25,4.25,0,0,1-.33-.86,3.26,3.26,0,0,1-.11-.83,3.56,3.56,0,0,1,.1-.47v0h0a.14.14,0,0,1,0-.06v0a.08.08,0,0,1,0,0,3,3,0,0,1,.28-.64l0,0a.3.3,0,0,0,0-.08l.05-.07.14-.19a1.15,1.15,0,0,1,.14-.17l.08-.09.1-.09a2.66,2.66,0,0,1,.74-.54l0,0,.1-.06.28-.11,0,0,.06,0h0l.12,0,.07,0,.07,0h0a5.45,5.45,0,0,1,1.24-.08h0c1.55,0,4.12.59,8.19,2.55l.2.09a21.6,21.6,0,0,1,3.18,1.62c4.08,2.52,7.61,1.78,10.89-.54a110.19,110.19,0,0,0,11.79-9.8c8.36-7.88,18.28-8.3,26.88-3.68C139.1,102.05,142.05,109.5,139.7,117.62Z"/><path class="cls-7" d="M91.74,131.52a28.26,28.26,0,0,1-9.71-3,28.56,28.56,0,0,0,9.47,2.78h.17v0l0,.06Z"/><path class="cls-7" d="M66.84,110.22a.14.14,0,0,0,0,.06.07.07,0,0,1,0,0Z"/><path class="cls-7" d="M67.4,109.13l-.14.19,0-.07Z"/><path class="cls-7" d="M66.84,110.22a.14.14,0,0,0,0,.06.07.07,0,0,1,0,0Z"/><path class="cls-7" d="M66.81,110.31a3.56,3.56,0,0,0-.1.47s0-.1,0-.15A3,3,0,0,1,66.81,110.31Z"/><path class="cls-7" d="M68,113.72l-.57-.62a2.77,2.77,0,0,1-.38-.52l-.06-.12v0h0s0,0,0,0h0s0,0,0-.05a0,0,0,0,1,0,0,.08.08,0,0,1,0,0h0s0,0,0,0a1.19,1.19,0,0,1-.08-.2s0-.09,0-.15a1.42,1.42,0,0,1-.05-.22,3.11,3.11,0,0,1,0-.32,2.54,2.54,0,0,1,0-.55,3.26,3.26,0,0,0,.11.83,4.25,4.25,0,0,0,.33.86s0,0,0,0A6.13,6.13,0,0,0,68,113.72Z"/><path class="cls-7" d="M70.53,107.83a5.45,5.45,0,0,0-1.24.08l.14,0,.23-.06a2.44,2.44,0,0,1,.71,0h.1Z"/><path class="cls-7" d="M70.57,107.83h0Z"/><path class="cls-7" d="M94.58,141.65a21.11,21.11,0,0,1-4.85-.88l-.1,0a10.07,10.07,0,0,0,3.83.63l1,.26Z"/><path class="cls-6" d="M94.9,146.94c-3-.63-6.21-2.88-8.84-5.09l.83.59s0,0,0,0A27,27,0,0,0,94.9,146.94Z"/><path class="cls-6" d="M94.58,141.65a21.11,21.11,0,0,1-4.85-.88l-.1,0a3,3,0,0,1-1-.56c-.41-.37-.09-.61-.09-.61l1.15.48,4.82,1.58Z"/><path class="cls-7" d="M68.92,108l0,0-.28.11.16-.08Z"/><path class="cls-7" d="M69.11,108,69,108h0Z"/><path class="cls-7" d="M70.57,107.83h0Z"/><path class="cls-6" d="M68.25,114l-2.17,2-2.16-2.09.55-5s2.59-.89,3-.25c.08.14,0,.35-.13.66l0,.07-.05.07a.3.3,0,0,1,0,.08l0,0a2.33,2.33,0,0,0-.41,1.13c0,.05,0,.1,0,.15a3.26,3.26,0,0,0,.11.83,4.25,4.25,0,0,0,.33.86s0,0,0,0a6.13,6.13,0,0,0,.84,1.23A3.22,3.22,0,0,0,68.25,114Z"/><path class="cls-6" d="M117,42l-.55.82L113.8,46.7l.13-.28C115.5,43.13,116.82,42.11,117,42Z"/><path class="cls-6" d="M138.56,41.12c-.53,1.32-3.39,2.48-3.39,2.48l-15.39,3.91-4.62-3.09-.1-.07v0c.17-.35,2.79-5.58,11-6.42a24.87,24.87,0,0,1,5.74.1h0C137.8,38.76,139,40,138.56,41.12Z"/><path class="cls-6" d="M142,42h0l-3.42-.88L126.18,38l-.14,0a24.77,24.77,0,0,1,10.27.56,13.68,13.68,0,0,1,3.76,1.75A7.63,7.63,0,0,1,142,42Z"/><path class="cls-7" d="M140.75,47.94c-.65,1.31-2,3.32-4.35,3.41,1.61-.12,3.06-1,4.22-3.56A.93.93,0,0,1,140.75,47.94Z"/><path class="cls-7" d="M140.28,53l.09-.11-.08.12Z"/><path class="cls-7" d="M141.41,48.71a8.16,8.16,0,0,1-1,4.14l0,0-.09.11a2.76,2.76,0,0,1-.65.67c-2.36,1.66-6.58.1-10.38-3.61,2.47.24,5,1.47,7.15,1.29s3.7-2.1,4.35-3.41a8.77,8.77,0,0,0,.47-1.06.28.28,0,0,0,0-.05A9.22,9.22,0,0,1,141.41,48.71Z"/><path class="cls-6" d="M141.23,46.83a.28.28,0,0,1,0,.05,8.77,8.77,0,0,1-.47,1.06c-.65,1.31-2,3.32-4.35,3.41Z"/><path class="cls-6" d="M123.93,156l0,0a35.77,35.77,0,0,1-3.16,1.91,40.89,40.89,0,0,1-10.14,3.92h0a27.76,27.76,0,0,1-5.68.72,24.26,24.26,0,0,1-2.69-.09l-.68-.08h-.08a18.16,18.16,0,0,1-4.27-1.06l-.21-.07Z"/><path class="cls-6" d="M166,89.65l-2,11.79s-7.81-1.67-5.12-4.62h0a3.51,3.51,0,0,1,.52-.48l.06-.06c2.75-2.2,3-6.62,2.83-9.31a22.17,22.17,0,0,0-.23-2.24h0a31.12,31.12,0,0,1,3.25,4l.45.61.1.15Z"/><path class="cls-7" d="M151,60.62s10.47-6.65,12.73-11Z"/><path class="cls-7" d="M148.8,52.05l14.93-3s.52.67-1.58,2.7Z"/><path class="cls-8" d="M112.29,50.58s3-13.39,18.33-12.93S126,31.2,126,31.2H103.29L104.64,42Z"/><path class="cls-6" d="M138.13,38.65s-2.34-2.33-12.92-.53L128,41Z"/><path class="cls-6" d="M135.62,37.7s4.23.54,7.74,5.14Z"/><path class="cls-7" d="M163.51,50.16S152.9,61,148.8,61.38c0,0,.64-8.79,0-9.33"/><path class="cls-5" d="M274.83,214.8s12.86.59,13.58-1.77"/><path class="cls-12" d="M385.2,124.08a8.29,8.29,0,0,1,3.13,3.17,9.18,9.18,0,0,1,1.13,4.54,9.29,9.29,0,0,1-1.13,4.56,8.23,8.23,0,0,1-3.13,3.2,9.54,9.54,0,0,1-9.08,0,8.16,8.16,0,0,1-3.13-3.2,9.29,9.29,0,0,1-1.13-4.56,9.18,9.18,0,0,1,1.13-4.54,8.22,8.22,0,0,1,3.13-3.17,9.54,9.54,0,0,1,9.08,0Zm.54,12.88a7.85,7.85,0,0,0,0-10.33,6.73,6.73,0,0,0-5.06-2,6.65,6.65,0,0,0-5.06,2,8,8,0,0,0,0,10.33,6.61,6.61,0,0,0,5.06,2A6.69,6.69,0,0,0,385.74,137Zm-1.69-5.23a2.93,2.93,0,0,1-1.5,1l2.43,3.6-2.74.05-2.08-3.48h-.74v3.48h-2.26v-9.34h4.17a3.46,3.46,0,0,1,2.37.78,2.7,2.7,0,0,1,.89,2.13A2.86,2.86,0,0,1,384.05,131.73Zm-4.63-.68h1.78a1.28,1.28,0,0,0,.81-.25.9.9,0,0,0,.32-.74.85.85,0,0,0-.32-.72,1.34,1.34,0,0,0-.81-.24h-1.78Z"/><path class="cls-12" d="M204.05,213a18.52,18.52,0,0,1-5.39-.45q-5.37-1-5.94-7.07a20.35,20.35,0,0,1,.29-5.69q4.89-36.69,7.25-73.74c0-1.82.57-3,1.58-3.58a2.19,2.19,0,0,1,.74-.19,4.36,4.36,0,0,1,1.67.16A21.1,21.1,0,0,1,209,124a8.7,8.7,0,0,1,5.1,7.59,22.39,22.39,0,0,1-.13,5.3L210.91,169a16.92,16.92,0,0,0,8.17-3.72,22.69,22.69,0,0,0,5.73-7.09,29.83,29.83,0,0,0,2.9-8.7,57.17,57.17,0,0,0,.52-14.8q-1-11.09-7.39-17a16.69,16.69,0,0,0-7.05-3.92,15.55,15.55,0,0,0-4.86-.31,18.45,18.45,0,0,0-11.83,6q-5.94,6.6-6.82,16.79a70.2,70.2,0,0,0,.15,11.05q.48,5.17.92,7.8a1.4,1.4,0,0,1-.15.78,1.93,1.93,0,0,1-1.1.74,9.86,9.86,0,0,1-1.63.28,10,10,0,0,1-6.65-1.8q-5.83-3.82-6.6-12a30.08,30.08,0,0,1,1.21-11.46A43.79,43.79,0,0,1,181,121.14a34.62,34.62,0,0,1,20.67-15.55,29.31,29.31,0,0,1,4.69-.83,33.08,33.08,0,0,1,13.27,1.49,34.09,34.09,0,0,1,11.77,6.53,30.87,30.87,0,0,1,5.48,6.22,37.24,37.24,0,0,1,5.59,16.9,46.72,46.72,0,0,1-2.13,19.27,39.25,39.25,0,0,1-6.56,12.06,34.7,34.7,0,0,1-9.83,8.4,29.63,29.63,0,0,1-12.16,3.91l-1.83.11L207,209.55a4.37,4.37,0,0,1-.72,2.48A3.79,3.79,0,0,1,204.05,213Z"/><path class="cls-12" d="M263.52,195.21a16.54,16.54,0,0,1-3.3,0,17.69,17.69,0,0,1-9.78-4.55q-6.94-6.22-7.91-16.55A40.16,40.16,0,0,1,243.75,160,39.83,39.83,0,0,1,250,145.1a22.47,22.47,0,0,1,13.2-9.06,17.71,17.71,0,0,1,1.94-.31,10.22,10.22,0,0,1,5.95,1,9.12,9.12,0,0,1,3.72,3.79,14,14,0,0,1,1.59,5.41,19,19,0,0,1-2.63,11.25,33.08,33.08,0,0,1-6.86,7.51,88.9,88.9,0,0,1-8.4,6,2.46,2.46,0,0,0-1.06.93,11.79,11.79,0,0,0-.11,4.21,23.88,23.88,0,0,0,3.14,9.75,7.32,7.32,0,0,0,5.16,1.48,13.12,13.12,0,0,0,7.1-3.65,40.94,40.94,0,0,0,7.92-10.06,84.27,84.27,0,0,0,5.48-11.8q1.27-3.3,3.23-3.49a2.32,2.32,0,0,1,2.29,1.38,3.09,3.09,0,0,1,.45,1.36q.24,2.58-5.19,13.14a85.61,85.61,0,0,1-4.53,7.93q-5.06,7.84-11.85,11.28A19.35,19.35,0,0,1,263.52,195.21Zm-5.8-30.61a31.37,31.37,0,0,0,10.34-9.11,14.35,14.35,0,0,0,2.71-5.66,7.94,7.94,0,0,0,.05-2.16,8.9,8.9,0,0,0-.81-2.92,1.93,1.93,0,0,0-2-1.27,3.52,3.52,0,0,0-2.58,1.64,29.89,29.89,0,0,0-6.35,13C258.53,160.29,258.07,162.45,257.72,164.6Z"/><path class="cls-12" d="M323.64,156.47a48.53,48.53,0,0,0-.2-4.85q-1-10.4-6.19-15.88a12.09,12.09,0,0,0-9.77-3.73q-6.41.87-10.92,7.58a8.67,8.67,0,0,0-3.32-5.48,13.5,13.5,0,0,0-4.36-1.81c-.48-.17-1-.36-1.58-.59a3.87,3.87,0,0,0-1.68-.25,2.74,2.74,0,0,0-1.79.93,2.33,2.33,0,0,0-.69,1.84l.19,1.26a27.14,27.14,0,0,1,0,4.77q-.31,8.87-1.42,20.1-.6,6.34-1.27,13.1-.6,6.1-1.26,12.56s0,0,0,.07c-1.32,12.31-2.25,21.83-3.09,32.37,4,.1,9.88.28,13.93-1.82.42-5.12.46-4.9,1.35-14.52l1.13-13c0,.3.71.74,2.06,1.31a14.4,14.4,0,0,0,5.2.93c.63,0,1.26.06,1.89.07a25.45,25.45,0,0,0,14.07-9.53l-.48.26a34.74,34.74,0,0,0,7-14.78,56.67,56.67,0,0,0,1-6.63c0-.38.07-.75.1-1.09l0-.46,0-.39v-.15c0-.56.05-1.12.06-1.67,0-.29,0-.46,0-.5Zm-13.87.23a60.86,60.86,0,0,1-.8,7.76,55.57,55.57,0,0,1-2.11,8.62,25.12,25.12,0,0,1-3.65,7.25,7.42,7.42,0,0,1-5.32,3.26c-2.27.22-3.57-1.53-3.92-5.23a19.85,19.85,0,0,1-.05-3.17l1.46-17q.72-6.55,5.29-14.16.43-.56.9-1.23a15.17,15.17,0,0,1,1.44-1.89,2.86,2.86,0,0,1,1.91-1,2.38,2.38,0,0,1,1.79.72l.45.79c.26.56.56,1.21.88,1.94a20.26,20.26,0,0,1,.76,2,29.43,29.43,0,0,1,.73,4.38A58.16,58.16,0,0,1,309.77,156.7Z"/><path class="cls-12" d="M364.66,166.53a23.31,23.31,0,0,0-3.19,3.06c-.58.79-1.19,1.56-1.84,2.31h0l-.05.07a39.61,39.61,0,0,1-3.19,3.29A13.69,13.69,0,0,1,355,176.5h0c-8.61,5.38-12.19-1.87-12.35-2.21h0a23.29,23.29,0,0,1-1.61-6.59,11.55,11.55,0,0,1,.11-4.21,2.56,2.56,0,0,1,1.06-.92,90.89,90.89,0,0,0,8.41-6,33.32,33.32,0,0,0,6.85-7.52A18.94,18.94,0,0,0,360,137.79a14,14,0,0,0-1.59-5.41,9.1,9.1,0,0,0-3.72-3.78,10.2,10.2,0,0,0-5.94-1,15.74,15.74,0,0,0-2,.31A22.4,22.4,0,0,0,333.65,137a39.69,39.69,0,0,0-6.3,14.9A40.16,40.16,0,0,0,326.13,166q1,10.34,7.92,16.54a17.53,17.53,0,0,0,9.77,4.55,16.65,16.65,0,0,0,3.31,0,19.49,19.49,0,0,0,7.05-2.06,23.67,23.67,0,0,0,3.63-2.24h0C365.67,176.5,365.25,169.4,364.66,166.53Zm-22-16.55A29.73,29.73,0,0,1,349,137a3.58,3.58,0,0,1,2.58-1.65,1.92,1.92,0,0,1,2,1.28,8.57,8.57,0,0,1,.83,2.92,7.93,7.93,0,0,1-.06,2.16,14.41,14.41,0,0,1-2.71,5.66,31.33,31.33,0,0,1-10.33,9.11C341.67,154.31,342.13,152.16,342.69,150Z"/><path class="cls-12" d="M364.66,166.53a23.31,23.31,0,0,0-3.19,3.06,39,39,0,0,0,2.83-4.38A8.56,8.56,0,0,1,364.66,166.53Z"/><path class="cls-12" d="M323.41,160.73a56.67,56.67,0,0,1-1,6.63,34.7,34.7,0,0,1-2.72,8A48.48,48.48,0,0,0,323.41,160.73Z"/><path class="cls-12" d="M323.51,159.64c0,.34-.06.71-.1,1.09C323.44,160.37,323.48,160,323.51,159.64Z"/><path class="cls-12" d="M297.35,191.11s11.85,4.18,21.21-13.57"/></g></g></svg>