<?xml version="1.0" encoding="utf-8"?>
<!-- Generator: Adobe Illustrator 26.0.1, SVG Export Plug-In . SVG Version: 6.00 Build 0)  -->
<svg version="1.1" id="Capa_1" xmlns="http://www.w3.org/2000/svg" xmlns:xlink="http://www.w3.org/1999/xlink" x="0px" y="0px"
	 viewBox="0 0 329.5 202.9" style="enable-background:new 0 0 329.5 202.9;" xml:space="preserve">
<style type="text/css">
	.st0{opacity:0.1;}
	.st1{fill:url(#SVGID_1_);}
	.st2{fill:#F3FAFF;}
	.st3{fill:url(#SVGID_00000171705725145191792810000001878881597817336767_);}
	.st4{fill:#FFFFFF;}
	.st5{fill:url(#SVGID_00000163751900382700102410000003971643845992020150_);}
	.st6{fill:#FFF8FE;}
	.st7{font-family:'KozGoPr6N-Regular-90ms-RKSJ-H';}
	.st8{font-size:22.98px;}
	.st9{fill:#EBF7F3;}
	.st10{fill:#F7A215;}
	.st11{fill:#B82D28;}
	.st12{fill:#CE2525;}
	.st13{fill:url(#SVGID_00000137850787030846064290000009311776388747948175_);}
	.st14{fill:url(#SVGID_00000005253614331041179070000016720335434418025900_);}
	.st15{fill:url(#SVGID_00000059308232672296715910000004707808192751596942_);}
</style>
<g id="Capa_2_00000063603859046910247930000001266698541315776408_" class="st0">
	<g id="Capa_1-2">
		
			<linearGradient id="SVGID_1_" gradientUnits="userSpaceOnUse" x1="328.3074" y1="660.9203" x2="-328.7926" y2="627.9603" gradientTransform="matrix(1 3.141593e-03 -3.141593e-03 1 2.9511 -547.5202)">
			<stop  offset="0" style="stop-color:#F7A215"/>
			<stop  offset="1" style="stop-color:#EC0000"/>
		</linearGradient>
		<path class="st1" d="M69.2,107.1c0.1-30.7,58.4-55.5,130.3-55.2c71.9,0.2,130.1,25.3,130,56s-58.4,55.5-130.3,55.2
			C127.3,163,69.1,137.9,69.2,107.1z"/>
		
			<ellipse transform="matrix(3.141577e-03 -1 1 3.141577e-03 76.8037 313.2749)" class="st2" cx="195.5" cy="118.1" rx="55.6" ry="130.2"/>
		
			<linearGradient id="SVGID_00000058567937595019401560000007809940512897171601_" gradientUnits="userSpaceOnUse" x1="146.2732" y1="668.098" x2="-112.2134" y2="645.3701" gradientTransform="matrix(1 3.141593e-03 -3.141593e-03 1 2.9467 -547.5183)">
			<stop  offset="0" style="stop-color:#F7A215"/>
			<stop  offset="1" style="stop-color:#EC0000"/>
		</linearGradient>
		<path style="fill:url(#SVGID_00000058567937595019401560000007809940512897171601_);" d="M57,124.3c0.1-30.7,58.4-55.5,130.3-55.2
			c71.9,0.2,130.1,25.3,130,56s-58.4,55.5-130.3,55.2S56.9,155,57,124.3z"/>
		<path class="st4" d="M110.1,185.2c-0.6,0.3-1.2,0.5-1.9,0.5c0.5,0.3,0.8,0.7,1,1.2s0.2,1.1,0,1.6c-0.1,0.2-0.1,0.3-0.2,0.5
			c-0.4,0.9-1.2,1.5-2.1,1.8c-1,0.3-2.1,0.3-3.2,0l-4.9-1.5l5.6-10.8l4.7,1.4c0.9,0.2,1.6,0.7,2.2,1.4c0.4,0.6,0.5,1.3,0.3,2
			c-0.1,0.2-0.1,0.4-0.2,0.5C111.1,184.4,110.6,184.8,110.1,185.2z M107,187.6c0.1-0.4,0.1-0.7-0.1-1.1c-0.3-0.3-0.6-0.6-1-0.7
			l-2.2-0.7l-1.5,3l2.3,0.7c0.5,0.2,1,0.2,1.5,0c0.4-0.2,0.8-0.5,1-0.9C107,187.9,107,187.7,107,187.6z M109,183.1
			c0.1-0.3,0.1-0.7-0.1-1s-0.6-0.6-1-0.6l-2.1-0.6l-1.4,2.8l2.1,0.6c0.5,0.2,1,0.2,1.4,0c0.4-0.1,0.8-0.5,1-0.9
			C109,183.3,109,183.2,109,183.1z"/>
		<path class="st4" d="M123.3,184.5c0.5,0.7,0.6,1.5,0.4,2.3c-0.1,0.2-0.1,0.4-0.2,0.6c-0.3,0.7-0.9,1.4-1.5,1.8
			c-0.7,0.5-1.6,0.7-2.5,0.7l0.8,5.2l-2.7-0.7l-0.6-4.9l-1.1-0.3l-1.9,4.3l-2.3-0.6l5-11.1l4.3,1.1
			C121.8,183.2,122.7,183.7,123.3,184.5z M121.2,186.5c0.1-0.4,0.1-0.8-0.2-1.1c-0.3-0.3-0.7-0.6-1.1-0.7l-2-0.5l-1.5,3.3l1.9,0.5
			c0.5,0.2,1.1,0.2,1.6,0s0.8-0.6,1-1.1C121.1,186.8,121.1,186.6,121.2,186.5L121.2,186.5z"/>
		<path class="st4" d="M127.2,196.1c-0.7-0.5-1.2-1.3-1.4-2.1c-0.3-0.9-0.3-1.8-0.1-2.7c0.2-1.3,0.8-2.5,1.6-3.5
			c0.8-0.9,1.8-1.6,3-2s2.5-0.5,3.8-0.2c0.9,0.1,1.8,0.5,2.5,1.1c0.7,0.5,1.2,1.3,1.4,2.1c0.3,0.9,0.3,1.8,0.1,2.7
			c-0.2,1.3-0.8,2.5-1.6,3.5c-0.8,0.9-1.8,1.6-3,2s-2.5,0.5-3.8,0.2C128.7,197.1,127.9,196.7,127.2,196.1z M132.7,195
			c0.7-0.3,1.4-0.8,1.8-1.4c0.5-0.7,0.8-1.4,1-2.2s0.1-1.6-0.4-2.3s-1.2-1.1-2-1.2c-0.8-0.2-1.6-0.1-2.3,0.2s-1.4,0.8-1.8,1.4
			c-0.5,0.7-0.8,1.4-1,2.2s-0.1,1.6,0.4,2.3c0.5,0.7,1.2,1.1,2,1.2C131.2,195.4,132,195.3,132.7,195L132.7,195z"/>
		<path class="st4" d="M147.2,197.8l-4.7-0.7l-1.5,2.1l-2.5-0.4l8-10.9l2.8,0.4l0.5,12.2l-2.5-0.4L147.2,197.8z M147.2,195.9
			l-0.1-5.1l-3.3,4.6L147.2,195.9z"/>
		<path class="st4" d="M155.2,200c-0.7-0.6-1-1.5-0.9-2.4c0-0.2,0-0.3,0.1-0.5l2.4,0.3c-0.1,0.4,0,0.9,0.3,1.2
			c0.3,0.4,0.8,0.6,1.3,0.6c0.5,0.1,1,0,1.4-0.2s0.6-0.6,0.6-1s-0.1-0.8-0.4-1c-0.5-0.4-1-0.7-1.5-1c-0.6-0.3-1.1-0.6-1.6-0.9
			c-0.4-0.3-0.8-0.7-1-1.1c-0.3-0.5-0.4-1.1-0.3-1.6c0.1-0.7,0.3-1.3,0.8-1.9c0.5-0.5,1-0.9,1.7-1.1c0.7-0.2,1.5-0.3,2.3-0.2
			s1.5,0.3,2.1,0.6c1.2,0.6,1.8,1.9,1.5,3.2l-2.5-0.3v-0.2c0.1-0.4-0.1-0.7-0.3-1c-0.3-0.3-0.7-0.4-1.1-0.5c-0.5-0.1-0.9,0-1.3,0.2
			c-0.4,0.2-0.6,0.6-0.6,1c0,0.3,0,0.5,0.2,0.8c0.2,0.2,0.4,0.4,0.6,0.6c0.2,0.2,0.6,0.4,1.1,0.7s1.1,0.6,1.6,1
			c0.4,0.3,0.7,0.7,1,1.1c0.3,0.5,0.4,1.1,0.3,1.6c-0.1,0.7-0.3,1.3-0.8,1.8c-0.4,0.5-1,0.9-1.7,1.1c-0.8,0.2-1.6,0.3-2.4,0.2
			C157,201.1,156,200.7,155.2,200z"/>
		<path class="st4" d="M176.9,190.5l-0.5,1.9l-3.2-0.2l-2.4,9.9l-2.4-0.2l2.4-9.9l-3.2-0.2l0.5-1.9L176.9,190.5z"/>
		<path class="st4" d="M181.9,192.7l-0.7,3.1l4,0.1l-0.4,1.8l-4-0.1l-0.7,3.2l4.5,0.1l-0.4,1.9l-7-0.2l2.5-11.9l6.9,0.2l-0.4,1.9
			L181.9,192.7z"/>
		<path class="st4" d="M197.8,191.8c0.6,0.5,1,1.3,0.9,2.1c0,0.2,0,0.4-0.1,0.7c-0.1,0.8-0.5,1.5-1,2.1c-0.6,0.7-1.4,1.1-2.3,1.3
			l2,4.8h-2.8l-1.8-4.6h-1.2l-0.8,4.7h-2.4l2.1-11.9h4.5C196,190.9,197,191.2,197.8,191.8z M196.3,194.3c0-0.4-0.1-0.7-0.4-1
			c-0.4-0.3-0.8-0.4-1.2-0.4h-2l-0.6,3.6h2c0.6,0,1.1-0.1,1.5-0.5c0.4-0.3,0.6-0.8,0.7-1.3C196.3,194.6,196.3,194.4,196.3,194.3
			L196.3,194.3z"/>
		<path class="st4" d="M217.4,199.1l2.6,2.7l-2.9,0.2l-1.1-1.2c-1.2,1-2.6,1.7-4.2,1.8c-1,0.1-2-0.1-2.9-0.6
			c-0.7-0.5-1.2-1.3-1.2-2.2c-0.1-0.9,0.2-1.8,0.8-2.6s1.4-1.5,2.4-1.9c-0.4-0.5-0.6-1-0.6-1.6c-0.1-0.6,0.1-1.3,0.4-1.8
			c0.3-0.6,0.8-1,1.4-1.3c0.6-0.3,1.3-0.5,2.1-0.6s1.6,0.1,2.2,0.5c0.5,0.4,0.8,1,0.9,1.7c0,0.2,0,0.3,0,0.5l-2.3,0.1
			c0-0.1,0-0.1,0-0.2c0-0.2-0.1-0.4-0.3-0.6c-0.2-0.1-0.4-0.2-0.7-0.2c-0.7,0-1.3,0.6-1.3,1.3l0,0c0,0.3,0.1,0.5,0.2,0.7
			c0.2,0.3,0.4,0.6,0.6,0.9l2.7,2.8l0.1-0.2l1.2-1.7l2.5-0.1l-1.4,2.2C218,198.2,217.7,198.7,217.4,199.1z M214.6,199.3l-2.6-2.8
			c-0.6,0.3-1.1,0.6-1.4,1.1c-0.3,0.4-0.5,0.9-0.5,1.4c0,0.4,0.2,0.8,0.6,1c0.4,0.3,0.9,0.4,1.4,0.3
			C213,200.4,213.9,200,214.6,199.3z"/>
		<path class="st4" d="M237,197.6l-4.7,0.6l-0.9,2.4l-2.5,0.3l4.8-12.7l2.8-0.4l3.7,11.6l-2.5,0.3L237,197.6z M236.5,195.8l-1.5-4.9
			l-2,5.4L236.5,195.8z"/>
		<path class="st4" d="M245.3,198.5c-0.8-0.4-1.4-1.2-1.5-2.1c0-0.1,0-0.2,0-0.5l2.4-0.4c0,0.4,0.2,0.8,0.6,1.1
			c0.4,0.3,0.9,0.3,1.4,0.2s0.9-0.3,1.3-0.6c0.3-0.3,0.4-0.7,0.3-1.1c-0.1-0.4-0.3-0.7-0.7-0.9c-0.6-0.2-1.2-0.4-1.8-0.6
			c-0.6-0.1-1.2-0.3-1.8-0.5c-0.5-0.2-0.9-0.4-1.2-0.8c-0.4-0.4-0.6-0.9-0.7-1.5c-0.1-0.7,0-1.4,0.2-2c0.3-0.6,0.8-1.1,1.4-1.5
			c0.7-0.4,1.4-0.7,2.2-0.8c0.7-0.2,1.5-0.2,2.2,0c0.6,0.1,1.2,0.5,1.6,0.9c0.4,0.5,0.6,1.1,0.7,1.7l-2.5,0.4v-0.2
			c-0.1-0.4-0.3-0.7-0.6-0.8c-0.4-0.2-0.8-0.3-1.2-0.2c-0.5,0.1-0.9,0.3-1.2,0.6s-0.4,0.7-0.3,1.1c0,0.3,0.2,0.5,0.4,0.7
			s0.5,0.3,0.8,0.4c0.3,0.1,0.7,0.2,1.2,0.4c0.6,0.2,1.2,0.3,1.8,0.6c0.5,0.2,0.9,0.5,1.3,0.8c0.4,0.4,0.6,0.9,0.7,1.5
			c0.1,0.6,0,1.3-0.2,1.9c-0.3,0.6-0.8,1.1-1.3,1.5c-0.7,0.4-1.5,0.7-2.3,0.8C247.3,199,246.2,198.9,245.3,198.5z"/>
		<path class="st4" d="M263.1,193.4l-4.7,1l-0.7,2.5l-2.5,0.5l3.7-13.1l2.7-0.6l4.7,11.2l-2.5,0.5L263.1,193.4z M262.4,191.7
			l-1.9-4.8l-1.5,5.5L262.4,191.7z"/>
		<path class="st4" d="M276,180.7c0.8,0.1,1.6,0.5,2.2,1.1s1.1,1.4,1.3,2.2c0.1,0.4,0.2,0.8,0.2,1.2c0.1,1.1,0,2.3-0.4,3.4
			c-0.4,1-1.1,2-1.9,2.7c-0.9,0.8-2,1.3-3.1,1.6l-4,1.1l-1.2-12.1l4-1.1C274,180.6,275,180.6,276,180.7z M276.7,189.2
			c0.6-1,0.8-2.1,0.7-3.2c0-0.3-0.1-0.7-0.2-1c-0.2-0.8-0.7-1.5-1.4-1.9c-0.8-0.4-1.8-0.4-2.6-0.1l-1.6,0.4l0.8,8.1l1.6-0.4
			C275.1,190.8,276.1,190.1,276.7,189.2L276.7,189.2z"/>
		<path class="st4" d="M286.4,188.8c-0.8-0.1-1.6-0.5-2.3-1.1c-0.7-0.6-1.2-1.4-1.5-2.2c-0.4-1.2-0.6-2.5-0.4-3.8
			c0.2-1.2,0.7-2.3,1.5-3.3s1.9-1.7,3.1-2.1c0.9-0.3,1.8-0.4,2.7-0.3c0.8,0.1,1.6,0.5,2.3,1.1c0.7,0.6,1.2,1.4,1.5,2.2
			c0.5,1.2,0.6,2.5,0.4,3.8c-0.2,1.2-0.7,2.3-1.5,3.3s-1.9,1.7-3.1,2.1C288.3,188.8,287.3,188.9,286.4,188.8z M290.6,185
			c0.5-0.6,0.8-1.4,0.9-2.2s0-1.7-0.3-2.4c-0.2-0.8-0.8-1.4-1.5-1.8c-0.8-0.3-1.6-0.3-2.4,0s-1.4,0.7-1.9,1.4
			c-0.5,0.6-0.8,1.4-0.9,2.2s0,1.7,0.3,2.4c0.2,0.8,0.8,1.4,1.5,1.8c0.7,0.3,1.6,0.3,2.3,0C289.5,186.1,290.1,185.6,290.6,185
			L290.6,185z"/>
		
			<linearGradient id="SVGID_00000052080969734225154810000012087886843387126670_" gradientUnits="userSpaceOnUse" x1="0.2248" y1="739.1877" x2="234.6548" y2="651.9677" gradientTransform="matrix(1 3.141593e-03 -3.141593e-03 1 2.9516 -547.5256)">
			<stop  offset="0" style="stop-color:#650D01"/>
			<stop  offset="1" style="stop-color:#EC0000"/>
		</linearGradient>
		<path style="fill:url(#SVGID_00000052080969734225154810000012087886843387126670_);" d="M62.2,120.7
			c0.1-30.7,58.4-55.5,130.3-55.2s130.1,25.3,130,56S264,177,192.2,176.8C120.3,176.5,62.1,151.5,62.2,120.7z"/>
		<text transform="matrix(1 3.141588e-03 -3.141588e-03 1 209.35 97.1)" class="st6 st7 st8">食品</text>
		<path class="st9" d="M130.9,67.8l-0.1-0.2l-0.1-0.2l-0.3-0.4c-0.8-1.1-1.4-1.9-1.9-2.4c0.1-0.1,0.3-0.1,0.4-0.2
			c4.3-1.1,6.9-5.4,5.9-9.7c-0.4-2.5-2.2-5.7-8.1-6.9l-1.6-0.3c-1-0.1-2-0.4-3-0.6c2-1.4,3.8-3,5.5-4.7l0,0c0.9-0.8,1.6-1.8,1.9-2.9
			c0.3-1,0.2-2.1-0.5-3c-0.6-0.7-1.4-1.1-2.3-1.2c-0.2,0-0.4,0-0.6,0.1l-9.3,1.8c-1.3-2.4-2.9-4.6-4.9-6.5l-0.2-0.2
			c-0.4-0.4-0.9-0.8-1.3-1.2c1.3-4.1,1.8-8.5,1.3-12.8c-0.3-5.5-2.7-10.7-6.8-14.4c-1.1-1.1-2.6-1.7-4.1-1.8c-2.3,0-4.8,1.7-5.1,5.4
			c0,0.8,0,1.6,0,2.3L95,7.3c-4.7-3.6-10.5-5.6-16.5-5.5c-1.4,0-2.9,0.1-4.3,0.3c-1.9,0.3-6.5,2.2-6.4,5.5c0.2,2.7,1.6,5.2,3.8,6.7
			c1.1,0.7,2.2,1.4,3.4,2c-6.2,3.5-10.2,9.2-11.6,17c-0.4,2-0.1,5.7,2.1,7.4c1,0.8,2.3,1.1,3.6,1.1c1,0,1.9-0.1,2.9-0.3l0.5-0.1
			l0.4-0.1c0.9,5.1,2.3,8.5,7.3,9c0.5,0.1,1,0.1,1.5,0.1c0,0.1-0.1,0.4-0.1,0.4c-0.1,1-0.3,1.9-0.4,2.9c-0.5,2.8-1,5.7-1.5,8.5
			c-0.9,3.9-3.4,7.2-7,9.1c-6.2,3.5-13.5,5.2-22.1,5.2c-2.5,0-5.2-0.1-8.2-0.4c0.3-2.8,1.9-5.3,4.2-8c1.8-2,3.8-4,5.9-6.1
			c1.2-1.2,2.5-2.4,3.7-3.7c3.1-3.3,7.2-8.6,6.2-16.3c-0.3-2-0.8-6-5.1-6c-0.5,0-1.1,0.1-1.6,0.2l1.3-1.9c0.8-1.2,0.7-2.7-0.3-3.7
			c-4.6-4.7-9.8-8.7-15.6-11.8c-2.8-1.5-5.7-2.6-8.8-3.3c-0.8-0.2-1.7-0.3-2.5-0.3c-3.4,0-6.7,1.6-8.7,4.4c0,0,0,0,0,0.1
			c-0.7,1-1.3,2.1-1.6,3.3l-0.1,0.3c-0.5,1.9-0.3,3.9,0.4,5.6c0.5,1,1.4,1.6,2.5,1.6h0.1c1.1,0,2-0.6,2.5-1.5
			c0.4-0.6,1.5-0.9,2.1-0.9h0.1h0.2H28h1h0.5H30h0.4h0.1h0.3H31c6,1.3,9.5,6.8,8.2,13.2c-0.4,1.8-0.9,3.6-1.6,5.4
			c-0.9-3.3-2.7-8-5.6-11l0,0c-0.2-0.3-0.5-0.5-0.8-0.8c-0.2-0.2-0.5-0.4-0.8-0.6c-0.2-0.1-0.3-0.2-0.5-0.3l0.1,0.1
			c-0.1-0.1-0.2-0.1-0.4-0.2c-0.6-0.3-1.3-0.4-1.9-0.4c-0.4,0-0.9,0.1-1.3,0.2c-0.3-0.6-0.9-1.1-1.6-1.4c-1.3-0.5-2.7-0.7-4.1-0.7
			s-2.7,0.3-3.8,1.1c-0.3,0.2-0.5,0.4-0.7,0.7c-0.5-0.3-1-0.4-1.5-0.4c-0.2,0-0.5,0-0.7,0.1c-0.5,0.1-5,1.4-9.1,6.8
			c-1.1,1.4-2,3-2.7,4.7c-0.4,1-0.8,2.1-1,3.2C-2.1,60.4,2.5,66,5.6,68.3c1,0.7,2.1,1.3,3.2,1.7c0.3,0.1,0.5,0.1,0.8,0.1
			c0.9,0,1.7-0.4,2.3-1.1s0.8-1.5,0.6-2.4c0-0.1-2.2-12,4.4-15.4l0.1-0.1c1.5-1,3.2-1.6,5-1.8c0.8,0,3.2,0,4.2,6.3
			c0.7,3.7,1.5,7.3,2.6,11c-0.1,0-0.2-0.1-0.3-0.2C26.8,65.5,24.9,65,23,65c-6.6,0-12.1,5.2-12.4,11.8c0,2.3,1.9,4.2,2.4,4.7
			c0.3,0.3,0.7,0.6,1,0.9c-1.5,0.5-2.4,2.1-1.9,3.7c0.1,0.2,0.1,0.4,0.2,0.5c0.3,0.5,0.5,1,0.8,1.4l0.1,0.3l0.8,1.2
			c0.6,1,1.2,1.9,1.8,2.7c0.1,0.2,0.3,0.4,0.5,0.7l0.4,0.6c0.3,0.4,0.6,0.8,0.9,1.2s0.4,0.5,0.6,0.7l0.1,0.1
			c0.4,0.4,0.7,0.9,1.1,1.3l0.3,0.3l0.1,0.1c0.1,0.1,0.2,0.2,0.3,0.3l0.3,0.4c0.5,0.6,1,1.1,1.6,1.7l0.6,0.6
			c0.3,0.3,0.6,0.6,0.9,0.8l0.8,0.7l0.5,0.4l0.2,0.2l0.5,0.4l0.3,0.2l0.4,0.3c1.6,1.3,3.3,2.4,5.2,3.4c1.4,0.8,3.2,0.3,4-1.1
			c0.4-0.7,0.5-1.6,0.2-2.4c-0.2-0.6-0.5-1.2-0.8-1.9c-0.1-0.2-0.3-0.5-0.4-0.7c-1.7-2.1-3.2-4.5-4.3-7c0-0.1-0.1-0.2-0.1-0.3
			c-0.5-0.9-0.9-1.8-1.1-2.8c0,0,0,0,0-0.1c-0.5-2-0.7-4.1-0.4-6.1c0.3-2.5,1.4-2.5,1.8-2.5h0.5c0.7,0,1.4,0.2,2,0.4H33l0.3,0.1
			c0.6,0.2,1.2,0.4,1.9,0.7c0.4,0.2,0.8,0.4,1.1,0.8c0.9,1.3,1.8,2.7,2.7,4c2,3,4,6.1,6.2,9c2.8,4,5.7,7.9,8.6,11.8l3.3,4.6
			c4.5,6,9.6,12,17.4,14.7l0.3,0.1c1,0.3,1.9,0.6,2.9,0.8c-0.7,7.5-1.5,15-2.2,22.4c-0.1,1.4,0.7,2.7,2,3.1l0.8,0.3
			c0.3,0.1,0.6,0.1,0.9,0.1c1.4,0,2.5-0.9,2.8-2.3c2.2-9,5.7-17.6,10.5-25.6l0.1-0.1c0.9-0.5,1.8-1.1,2.8-1.7
			c0.7-0.5,1.5-0.9,2.2-1.3c0.1,0,0.2-0.1,0.2-0.1h0.1c1.4-0.8,2.6-1.5,3.8-2.2c2.5-1.3,5-2.7,7.5-4c4.1-2.2,8.3-4.4,12.4-6.8
			c3.6-2,6.8-4.5,9.7-7.5C141.4,91.5,137.5,76.9,130.9,67.8z M74.5,114.1l-1-0.3l0,0c-2.3-0.8-4.3-2-6.2-3.5l0,0l-0.6-0.5l0,0
			c-3-2.3-5.8-5-8.2-7.9c2.7,2.6,5.9,4.8,9.3,6.4c0.2,0.1,0.4,0.2,0.7,0.3c0.4,0.2,0.7,0.3,1.1,0.4h0.1c1.2,0.4,2.5,0.6,3.8,0.7
			h-0.1l0.3,0.1l-0.9-0.3l0,0c-7-2.4-13-7.1-17-13.3c-1.2-1.8-2.1-3.7-2.8-5.8c0.9,1.3,2,2.6,3.2,3.8c2.1,2.2,4.6,4,7.4,5.3l0.2,0.1
			c2.3,1.2,4.9,2,7.5,2.3h0.2l-0.3-0.2l0,0h-0.1c-6.9-3-13-7.5-17.8-13.2l0,0l-0.1-0.2c-0.1-0.1-0.1-0.1-0.2-0.2
			c-0.3-0.3-0.5-0.6-0.7-0.9l0,0c-0.1-0.2-0.2-0.4-0.3-0.7c-0.1-0.2-0.1-0.4-0.1-0.6c0-0.1,0-0.2,0.1-0.4l0,0l0,0c0,0,0,0,0-0.1l0,0
			l0,0c0.1-0.2,0.1-0.3,0.2-0.5l0,0v-0.1c0,0,0,0,0-0.1l0.1-0.2l0.1-0.1l0.1-0.1l0.1-0.1c0.2-0.2,0.4-0.3,0.6-0.4l0,0H53
			c0.1,0,0.1-0.1,0.2-0.1l0,0h0.1h0.1l0,0h0.1c0.3-0.1,0.7-0.1,1-0.1l0,0c2.2,0.2,4.4,0.9,6.3,2l0.2,0.1c0.8,0.4,1.7,0.8,2.5,1.2
			c3.2,2,5.9,1.4,8.4-0.4c3.2-2.3,6.3-4.9,9.1-7.6c6.5-6.1,14.2-6.4,20.8-2.8c5.7,3.1,8,8.8,6.2,15.1c-3.2,11-10.3,19-21,22.6
			c-3.8,1.3-7.9,1.6-11.8,0.6l0,0C75.1,114.3,74.8,114.2,74.5,114.1z M51.8,85.3C51.7,85.4,51.7,85.4,51.8,85.3
			C51.7,85.4,51.7,85.4,51.8,85.3z"/>
		<path class="st10" d="M128.5,69.4l-0.1-0.1l-0.1-0.1c-0.1-0.1-0.2-0.3-0.3-0.5c-0.7-1.1-1.6-2.1-2.5-3.1c-0.2-1.7,0-3.1,2.5-4
			c2.9-0.7,4.7-3.6,4-6.5c-0.4-2.5-2.5-3.9-5.8-4.5l0,0l-0.6-0.1l-0.6-0.1c-0.6-0.1-1.2-0.2-1.8-0.3c-0.4-0.1-0.8-0.2-1.2-0.3h-0.1
			l-0.4-0.1c-0.1,0-0.3-0.1-0.4-0.1c-0.3-0.1-0.6-0.2-0.8-0.3h-0.1l-0.5-0.2l-0.3-0.1c-0.5-0.3-1.1-0.6-1.5-1l-0.2-0.2l-0.2-0.2
			c-0.2-0.2-0.3-0.3-0.5-0.5l0,0c0.4-0.2,5.9-3.8,8.6-6.8l0,0c0.5-0.4,0.9-1,1.2-1.7c0.1-0.1,0.1-0.3,0-0.4l0,0l-11.3,2.1h-0.1l0,0
			h-0.1l0,0c-1.2-2.9-3-5.5-5.3-7.7l0,0l0,0c0,0-0.1-0.1-0.2-0.1l0,0l-0.1-0.1l-0.1-0.1c-0.3-0.3-0.7-0.7-1-1l0,0l0,0
			c-0.5-0.4-1-0.8-1.5-1.2V30c1.7-4.3,2.4-8.9,1.8-13.4c-0.2-4.8-2.4-9.3-6-12.6c-0.3-0.2-0.6-0.4-0.9-0.6l-0.3-0.1l-0.3-0.1
			L101.3,3h-0.2c-0.2,0-0.3-0.1-0.5,0h-0.2h-0.2h-0.1H100h0c0,0-0.1,0-0.2,0l-0.1,0.1l0,0l-0.1,0.1l0,0l-0.2,0.2
			c-0.1,0.1-0.1,0.1-0.2,0.2c-0.4,0.6-0.6,1.2-0.6,1.9c-0.1,2.5,0,5.1,0.3,7.6l0,0l-1.4-0.8l0,0l-1-0.6L96,11.4L95.4,11l-0.6-0.4
			c-0.2-0.1-0.3-0.2-0.5-0.3L93.8,10l-0.5-0.4L92.4,9l0,0c-0.3-0.2-0.6-0.4-0.8-0.6l-0.4-0.3c-0.3-0.2-0.6-0.3-0.9-0.5l-0.7-0.4
			L88.9,7L88,6.6c-0.6-0.3-1.2-0.5-1.8-0.7l-0.9-0.3l-0.5-0.1l0,0c-0.4-0.1-0.9-0.2-1.3-0.3L83,5.1L82.2,5c-0.3,0-0.7-0.1-1-0.1
			h-0.5h-0.6h-0.6c-0.6,0-1.2,0-1.8,0h-0.2c-0.2,0-0.4,0-0.6,0h-0.3H76L75.5,5h-0.1h-0.8h-0.1c-0.2,0-0.4,0.1-0.6,0.2h-0.1h-0.1
			l-0.1,0.1l-0.3,0.1l-0.2,0.1l-0.2,0.1l-0.3,0.2l0,0c-0.2,0.1-0.4,0.2-0.5,0.3c-0.7,0.5-1.2,1-1.2,1.4c0.2,1.7,1.2,3.3,2.6,4.3
			c2.8,1.7,5.7,3.3,8.8,4.7l0,0l-0.8,0.2l-1,0.3h-0.1l-0.5,0.2h-0.1c-0.5,0.2-1,0.4-1.5,0.6L78,17.9L77.7,18l-0.5,0.3
			c-0.2,0.1-0.3,0.2-0.5,0.3l-0.5,0.3l-0.6,0.4l-0.3,0.2c-0.1,0.1-0.2,0.1-0.3,0.2l-0.6,0.4c-0.4,0.3-0.8,0.6-1.1,0.9
			c-0.1,0.1-0.2,0.1-0.3,0.2c0,0,0,0-0.1,0l-0.2,0.2l0,0l-0.5,0.5l-0.5,0.5c-0.2,0.2-0.3,0.4-0.5,0.5c-2.6,3.1-4.3,6.9-5,10.9
			c-0.3,1.5,0.1,3.8,1,4.6l0.1,0.1h0.1h0.1l0.1,0.1h0.1h0.1c0.1,0,0.3,0.1,0.4,0.1c0.2,0,0.3,0,0.5,0H69c1,0,2-0.2,3-0.3l0.3-0.1
			c0.1,0,0.2-0.1,0.3-0.1l0.3-0.1c0.2-0.1,0.4-0.2,0.6-0.3c0.3-0.1,0.5-0.3,0.8-0.5c0.2-0.1,0.4-0.2,0.5-0.3l0.2-0.1l0,0
			c0.9,6.2,1.5,8.9,3.5,9.9l0.2,0.1l0.2,0.1l0.2,0.1l0.3,0.1l0.3,0.1c0.2,0,0.4,0.1,0.6,0.1c1.1,0.1,2.3,0.1,3.4,0l0,0
			c0.3,0.8,0.6,1.7,0.7,2.5V50c0,0.1,0,0.2,0,0.3c0,0.3-0.1,0.6-0.1,0.9c-0.1,1-0.3,2-0.4,2.9c-0.5,2.9-1,5.8-1.5,8.6
			c-1,4.7-4.1,8.8-8.4,11L73.7,74l-0.4,0.2l0,0c-0.9,0.5-1.8,0.9-2.6,1.3l0,0c-0.6,0.3-1.2,0.5-1.8,0.7s-1.2,0.4-1.8,0.7
			s-1,0.3-1.4,0.4c-8.3,2.5-17.1,2.3-26,1.3c-0.7-5.1,1.9-9,4.9-12.5s6.4-6.6,9.6-10c3.7-3.9,6.2-8.3,5.4-13.9c-0.2-1.6-0.5-2.6-1-3
			c0-0.1-0.1-0.1-0.2-0.1L58.3,39h-0.1l-0.3-0.1h-0.1c-0.2,0-0.4,0-0.6,0H57c-0.4,0-0.7,0-1.1,0.1l-0.2,0.1l-0.3,0.1L55,39.3
			c-0.6,0.2-1.3,0.3-1.9,0.5L51.9,40l-0.7,0.1L50,40.4l-0.9,0.2l0,0c2.1-3.1,3.8-5.5,5.5-8c-4.4-4.5-9.4-8.3-14.9-11.2
			c-1.6-0.8-3.3-1.6-5-2.1c-0.7-0.2-1.4-0.4-2.1-0.6l-1-0.3l0,0c-0.7-0.2-1.5-0.2-2.3-0.2H29l0,0h-0.2l-0.5,0.1l-0.4,0.1
			c-0.1,0-0.2,0-0.3,0.1l-0.3,0.1c-0.1,0-0.2,0.1-0.4,0.1l0.1-0.1l0,0l-0.2,0.1c-0.1,0-0.2,0.1-0.3,0.1L26,19.1
			c-0.7,0.4-1.3,0.8-1.8,1.4c-0.3,0.3-0.5,0.6-0.7,0.9l0,0c-0.5,0.7-0.9,1.6-1.1,2.5c0,0,0,0,0,0.1v0.1l0,0l0,0
			c-0.3,1.2-0.2,2.5,0.2,3.6l0,0c0.4-0.7,1-1.2,1.7-1.6l0.2-0.1l0.2-0.1c0.2-0.1,0.5-0.2,0.7-0.2h0.1l0.2-0.1l0.3-0.1
			c0.2,0,0.4-0.1,0.6-0.1h0.2h0.1h0.2h0.1h0.2H28c0.4,0,0.7,0,1,0h0.5h0.6h0.4h0.3h0.1l0.5,0.1h0.2l0,0l0.5,0.1l0,0
			c0.6,0.1,1.1,0.3,1.7,0.5c0.4,0.1,0.7,0.3,1,0.5c0.2,0.1,0.4,0.2,0.5,0.3s0.3,0.2,0.5,0.3c0.2,0.1,0.3,0.2,0.5,0.3l0.5,0.3
			l0.5,0.4c0.2,0.1,0.3,0.2,0.4,0.4c0.1,0.1,0.3,0.2,0.4,0.4c0.3,0.3,0.5,0.5,0.8,0.8s0.2,0.3,0.4,0.4c0.2,0.3,0.5,0.6,0.7,0.9
			s0.2,0.3,0.3,0.5s0.2,0.3,0.3,0.5c0.1,0.2,0.2,0.3,0.3,0.5s0.2,0.3,0.3,0.5s0.1,0.3,0.2,0.5v0.1c0.2,0.5,0.4,1.1,0.5,1.7
			c0,0.1,0.1,0.3,0.1,0.4c0,0.1,0,0.2,0.1,0.3l0,0c0,0.2,0.1,0.3,0.1,0.4c0.3,1.8,0.3,3.7-0.1,5.5c-0.6,2.6-1.3,5.1-2.3,7.5
			c-0.6,1.6-1.2,3.1-1.8,4.6l0,0l0,0l-0.1,0.2l-0.1,0.2c-0.6,1.8-1,3.6-1.1,5.5v-0.1c0-3.2-0.4-6.4-1.1-9.5l0,0l0,0c0,0,0,0,0-0.1
			s0-0.3-0.1-0.5C35,48,33.3,41.3,30,38l-0.1-0.1l0,0V38l0,0l-0.3-0.4l0,0l0,0l0.2,0.2l0.1,0.1l0,0l0,0l0,0l0,0l0,0
			c-0.2-0.2-0.3-0.3-0.5-0.5c-0.1-0.1-0.3-0.3-0.4-0.4l0,0v0.1l0,0l0,0l-0.2-0.2l-0.2-0.1h-0.1l-0.2-0.1h-0.1c-0.1,0-0.1,0-0.2,0
			s-0.3,0-0.4,0h-0.1c-0.1,0-0.2,0-0.4,0.1H27l-0.1,0.1c-0.2,0.1-0.3,0.2-0.5,0.3l-0.3,0.2l0,0l0,0l0,0c-0.1,0.1-0.3,0.3-0.4,0.5
			c-0.5,0.7-1,1.3-1.3,1.8l0,0l-1,1.4l-0.1,0.1l0,0c0,0,0,0,0-0.1c-0.2-1.1-0.2-2.1-0.2-3.2c0-0.6,0.1-1.2,0.3-1.8
			c0.1-0.3,0.2-0.6,0.4-0.9l0,0h-0.1h-0.1h-0.1L23,35h-0.2l-0.4-0.1l-0.3-0.1h-0.4l-0.5-0.1h-0.1c-0.4,0-0.8,0-1.1,0l0,0
			c-0.2,0-0.4,0.1-0.6,0.1h-0.1h-0.1c-0.1,0-0.2,0.1-0.3,0.1c-0.2,0.1-0.4,0.2-0.5,0.3c0,0-0.1,0.2-0.1,0.6l0,0
			c-0.2,0.9-0.3,1.7-0.3,2.6l0,0c0,0.5,0.1,1.1,0.3,1.6c0,0.1,0.1,0.2,0.1,0.3c0.1,0.3,0.2,0.4,0.1,0.4s-0.1,0-0.2-0.1l0,0h-0.1l0,0
			l-0.1-0.1c-0.1-0.1-0.3-0.2-0.5-0.4L17.5,40l0,0c-0.1-0.1-0.3-0.3-0.4-0.5l-0.2-0.2l0,0L16.6,39c-0.8-0.9-1.4-1.9-1.9-2.9l0,0
			L14.6,36h-0.1h-0.1h-0.1l-0.2,0.1l-0.4,0.2l0,0c-2.6,1.2-4.9,3-6.6,5.4c-0.9,1.2-1.7,2.6-2.3,4l0,0c0,0.1-0.1,0.1-0.1,0.2s0,0,0,0
			c-0.3,0.8-0.6,1.6-0.7,2.5v0.1l0,0v0.1l0,0C1.2,59.2,4.6,64,7.2,65.9l0,0c0.6,0.4,1.3,0.8,2,1.1l0.2,0.1h0.1h0.1l0,0l0,0
			c-0.5-2.8-0.5-5.7-0.1-8.6l0.1-0.4c0-0.1,0-0.2,0-0.3s0-0.1,0-0.2c0,0,0,0,0-0.1s0-0.1,0-0.1l0.1-0.3V57l0,0v0l0,0l0,0
			c0-0.1,0.1-0.2,0.1-0.3s0,0,0,0c0.1-0.3,0.1-0.6,0.2-0.8v-0.1c0.1-0.2,0.1-0.3,0.2-0.5l0,0l0,0c0.1-0.2,0.2-0.5,0.3-0.7l0,0
			l0.1-0.1l0.1-0.3c0-0.1,0.1-0.2,0.1-0.2s0-0.1,0.1-0.1c0.1-0.2,0.1-0.3,0.2-0.5l0.2-0.4l0.1-0.1c0.1-0.2,0.2-0.3,0.3-0.5
			s0.2-0.3,0.3-0.4l0,0c0.1-0.2,0.2-0.3,0.3-0.4l0,0l0.6-0.5l0,0l0.2-0.2l0.1-0.1l0,0l0.1-0.1l0.1-0.1l0.2-0.2l0.1-0.2l0.2-0.2
			l0.3-0.2l0.2-0.1c0.2-0.1,0.4-0.3,0.6-0.4l0,0l0,0h0.1l0.3-0.2c0.1-0.1,0.2-0.1,0.3-0.2l0.2-0.1l0.2-0.1l0.5-0.2
			c0.3-0.2,0.6-0.3,0.9-0.4s0.6-0.3,0.9-0.4s0.6-0.2,0.8-0.3c0.3-0.1,0.5-0.2,0.8-0.2l0.4-0.1l0.4-0.1c0.9-0.2,1.9-0.2,2.8,0
			c0.2,0,0.4,0.1,0.6,0.2l0.2,0.1c0.3,0.1,0.6,0.3,0.9,0.5c0.1,0.1,0.3,0.2,0.4,0.3l0,0c0.1,0.1,0.3,0.2,0.4,0.3l0,0l0.3,0.3
			c0.1,0.1,0.2,0.2,0.3,0.3c1.5,1.9,2.4,4.3,2.6,6.7c1,6.2,3,12.3,4.6,18.4l0,0c-2.1-1.7-4.3-3.2-6.5-4.7c-0.2-0.1-0.3-0.2-0.5-0.2
			L26.4,69L26,68.5l-0.2-0.1l-0.2-0.1l-0.3-0.1c-0.1,0-0.2,0-0.3-0.1L24.7,68h-0.3h-0.3h-0.4h-0.1c-0.7,0-1.5,0-2.2,0.2L21,68.4
			l-0.4,0.1l0,0l-0.4,0.1l-0.4,0.1c-0.4,0.1-0.7,0.3-1.1,0.5c-0.2,0.1-0.5,0.2-0.7,0.4c-2.7,1.6-4.3,4.4-4.4,7.5
			c0.2,1,0.7,1.8,1.4,2.4c1.1,1,2.3,1.9,3.6,2.8l1.1,0.8l1.6,1.2l0,0l-6,0.9l-0.4,0.1l0,0c0.3,0.5,0.5,1,0.8,1.4l0.1,0.1
			c0.2,0.4,0.5,0.8,0.8,1.2c0.5,0.9,1.1,1.8,1.7,2.6l0.4,0.6l0.4,0.6c0.3,0.4,0.6,0.8,0.9,1.1s0.4,0.5,0.6,0.7
			c0.4,0.4,0.7,0.8,1,1.2l0.3,0.4c0.1,0.2,0.2,0.3,0.4,0.4l0.2,0.2c0.5,0.6,1,1.1,1.5,1.6c0.2,0.2,0.4,0.4,0.5,0.6s0.5,0.5,0.8,0.7
			s0.5,0.5,0.8,0.7l0.6,0.6c0.1,0.1,0.2,0.2,0.3,0.3l0.3,0.3l0.4,0.3l0.5,0.4c0.2,0.1,0.4,0.3,0.5,0.4l0,0l0.5,0.4
			c0.1,0.1,0.2,0.2,0.3,0.2l0.6,0.4c0.4,0.2,0.7,0.5,1.1,0.7s0.8,0.5,1.2,0.7l0,0c-0.2-0.6-0.4-1.1-0.7-1.7l0,0l0,0
			c-1.9-2.4-3.5-5-4.8-7.8l0,0c0-0.1-0.1-0.1-0.1-0.2l0,0c-0.5-1-0.8-2-1.1-3c0,0,0,0,0-0.1s-0.1-0.2-0.1-0.2V91
			c-0.6-2.4-0.8-4.8-0.5-7.2c0.1-1.5,0.7-2.9,1.7-4c0.1-0.1,0.3-0.2,0.4-0.3l0.1-0.1l0.1-0.1c0.2-0.1,0.4-0.2,0.6-0.3h0.1l0.2-0.1
			c0.1,0,0.2-0.1,0.4-0.1h0.2h0.2l0,0c0.1,0,0.2,0,0.3,0h0.2c0.1,0,0.3,0,0.4,0h0.3H31h0.3h0.1c0.3,0,0.6,0.1,0.9,0.2l0.5,0.1
			l0.6,0.2h0.1l0.4,0.1H34l1.1,0.4l1,0.4l0,0l0,0l0,0l0.1,0.1l0,0c0.8,0.4,1.5,0.9,2,1.6l0,0C41.1,86.3,44,90.7,47,95
			c3.9,5.4,7.9,10.8,11.8,16.1c3.1,4.2,6.4,8.2,10.5,10.9l0,0l0.9,0.6l0,0l1,0.6l0.5,0.3l0,0c0.6,0.3,1.2,0.6,1.8,0.8
			c0.4,0.2,0.8,0.3,1.3,0.5l0,0c0.1,0,0.1,0,0.2,0.1l0.8,0.2c0.8,0.2,1.7,0.4,2.5,0.6h0.1c0.6,0.1,1.2,0.2,1.8,0.2l0,0
			c-0.8,8.4-1.6,16.8-2.4,25.2l0.8,0.3l0,0c2.3-9.4,6-18.4,11-26.7l0,0c0.2-0.2,0.4-0.5,0.7-0.7c0.5-0.3,1-0.6,1.5-0.9l1.5-0.9l0,0
			h0.1c0.7-0.4,1.4-0.8,2.1-1.3l0,0h0.1l0.2-0.1l0,0c1.3-0.8,2.7-1.6,4-2.3c6.6-3.6,13.3-6.9,19.8-10.7c3.3-1.9,6.3-4.2,9-6.9
			C138.1,90.8,134.5,77.8,128.5,69.4z M30,39.8L30,39.8L30,39.8L30,39.8L30,39.8z M33.8,73.6L33.8,73.6z M123,74.9L123,74.9
			L123,74.9c0.1-0.1,0.2-0.2,0.3-0.2l0,0l0,0l-0.1,0.1l0,0l0,0C123.2,74.8,123.1,74.9,123,74.9L123,74.9z M125.4,65.6
			c0.1,0.6,0.2,1.1,0.2,1.7l0,0c0-0.1,0-0.1,0-0.2V67c0-0.4-0.1-0.8-0.1-1.2C125.5,65.8,125.5,65.7,125.4,65.6
			C125.5,65.7,125.5,65.7,125.4,65.6L125.4,65.6z M117.1,46.8L117.1,46.8c0.4-0.4,0.8-0.7,1.2-1l0,0l0,0L117.1,46.8
			C117,46.8,117.1,46.8,117.1,46.8z M106.1,39.7l0.2-0.1l0,0L106.1,39.7L106.1,39.7L106.1,39.7z M97,29.5L97,29.5z M106.3,30.1
			L106.3,30.1L106.3,30.1L106.3,30.1z M73.5,113.8c-2.3-0.8-4.3-2-6.2-3.5l0,0l-0.6-0.5l0,0c-3-2.3-5.8-5-8.2-7.9
			c2.7,2.6,5.9,4.8,9.3,6.4c0.2,0.1,0.4,0.2,0.7,0.3c0.4,0.2,0.7,0.3,1.1,0.4h0.1c1.2,0.4,2.5,0.6,3.8,0.7h-0.1l0.3,0.1l-0.9-0.3
			l0,0c-7-2.4-13-7.1-17-13.3c-1.2-1.8-2.1-3.7-2.8-5.8c0.9,1.3,2,2.6,3.2,3.8c2.1,2.2,4.6,4,7.4,5.3l0.2,0.1c2.3,1.2,4.9,2,7.5,2.3
			h0.2l-0.3-0.2l0,0h-0.1c-6.9-3-13-7.5-17.8-13.2l0,0l-0.1-0.2c-0.1-0.1-0.1-0.1-0.2-0.2c-0.3-0.3-0.5-0.6-0.7-0.9l0,0
			c-0.1-0.2-0.2-0.4-0.3-0.7c-0.1-0.2-0.1-0.4-0.1-0.6c0-0.1,0-0.2,0.1-0.4l0,0l0,0c0,0,0,0,0-0.1l0,0l0,0c0.1-0.2,0.1-0.3,0.2-0.5
			l0,0v-0.1c0,0,0,0,0-0.1l0.1-0.2l0.1-0.1l0.1-0.1l0.1-0.1c0.2-0.2,0.4-0.3,0.6-0.4l0,0H53c0.1,0,0.1-0.1,0.2-0.1l0,0h0.1h0.1l0,0
			h0.1c0.3-0.1,0.7-0.1,1-0.1l0,0h0.1c2.2,0.2,4.4,0.9,6.3,2l0.2,0.1c0.8,0.4,1.7,0.8,2.5,1.2c3.2,2,5.9,1.4,8.4-0.4
			c3.2-2.3,6.3-4.9,9.1-7.6c6.5-6.1,14.2-6.4,20.8-2.8c5.7,3.1,8,8.8,6.2,15.1c-3.2,11-10.3,19-21,22.6c-3.8,1.3-7.9,1.6-11.8,0.6
			l0,0c-0.3-0.1-0.6-0.2-0.9-0.2l-1-0.3L73.5,113.8z M51.8,85.3C51.7,85.4,51.7,85.4,51.8,85.3C51.7,85.4,51.7,85.4,51.8,85.3z"/>
		<path class="st10" d="M89.8,124.8L89.8,124.8z M128.5,69.4l-0.1-0.1l-0.1-0.1c-0.1-0.1-0.2-0.3-0.3-0.5l-0.3-0.5
			c-0.4-0.5-1.3-0.6-2-0.9c0.1,2.1-0.1,5.5-2.2,7.2l0,0l0,0l0,0l0,0l0,0l0,0l0,0l0,0l0,0l-0.2,0.1l0,0l0,0l0,0
			c-0.9,0.6-1.9,1.1-3,1.2c-3.7,0.5-7-1.2-7.5-4.7c-0.5-3-0.4-6,0.1-9c1.1-7,3.1-14.3,2.3-21.9c-1.2-2.9-3-5.6-5.2-7.8l0,0l-0.2-0.2
			l0,0l-0.1-0.1l-0.1-0.1c-0.4-0.4-0.7-0.7-1.1-1c-0.2-0.1-0.4-0.2-0.6-0.4l-0.2-0.1l-0.3-0.1l-0.4-0.2l-0.3-0.1l-0.3-0.1l0,0l0,0
			l0,0c-0.2-0.1-0.5-0.2-0.8-0.3c-1.2-0.1-2.3-0.3-3.5-0.4l0,0c-1-0.1-1.9-0.1-2.9-0.1c-0.4,0-0.8,0-1.2,0.1h-0.3h-0.2l0,0L97,29.5
			h-0.3h-0.3l-0.5,0.1l-0.5,0.1l0,0l-0.2,0.1L95,30l-0.2,0.1c-0.3,0.1-0.5,0.2-0.8,0.3l-0.4,0.2l-0.3,0.1c-0.2,0.1-0.5,0.3-0.7,0.4
			l-0.2,0.1L92,31.5c-0.1,0.1-0.3,0.2-0.4,0.3c-0.3,0.2-0.6,0.5-0.8,0.7c-0.1,0.1-0.2,0.2-0.3,0.3l0,0l-0.3,0.4
			c-0.4,0.4-0.7,0.8-1,1.2c-0.1,0.1-0.1,0.2-0.2,0.2c-0.1,0.1-0.1,0.2-0.2,0.3s-0.1,0.2-0.2,0.3s-0.3,0.4-0.4,0.7
			c-0.1,0.1-0.1,0.2-0.2,0.3l0.1-0.1l-0.3,0.6l0,0l-0.2,0.4c0,0.1-0.1,0.2-0.1,0.3c-0.1,0.2-0.2,0.4-0.2,0.6s-0.1,0.3-0.1,0.4v0.1
			c-0.1,0.2-0.1,0.3-0.2,0.5v0.1c-0.2,0.6-0.4,1.2-0.6,1.8c-0.1,0.3-0.2,0.6-0.2,0.8s-0.1,0.6-0.2,0.9s-0.1,0.6-0.2,1
			s-0.1,0.7-0.2,1s-0.1,0.6-0.2,0.8c-0.1,0.7-0.2,1.3-0.3,2L85,48.2L84.8,49c0,0.3-0.1,0.6-0.1,0.8l0,0c0,0,0,0,0,0.1s0,0.2,0,0.3
			c0,0.3-0.1,0.6-0.1,0.9c-0.1,1-0.3,2-0.4,2.9c-0.5,2.9-1,5.8-1.5,8.6c-1,4.7-4.1,8.8-8.4,11l-0.4,0.2L73.5,74l0,0
			c-0.9,0.5-1.8,0.9-2.6,1.3l0,0c-0.6,0.3-1.2,0.5-1.8,0.7s-1.2,0.4-1.8,0.7s-1,0.3-1.4,0.4c-8.3,2.5-17.1,2.3-26,1.3l0,0
			c-0.8-1.7-2.1-3.3-2.3-5.1c-0.4-3.6-0.6-7.2-0.8-10.8c0-0.1,0-0.2,0-0.3l0,0c0-1-0.1-2-0.2-3c-0.1-0.8-0.2-1.6-0.4-2.3l0,0
			c0-0.2-0.1-0.3-0.1-0.5l0,0c-0.4-1.7-0.7-3.4-1.1-5.1v-0.1l0,0l0,0c-0.3-1.5-0.6-2.9-1-4.3c-0.3-1.2-0.6-2.3-1-3.5
			c-0.5-1.3-1.2-2.4-2.2-3.3L30,39.8l0,0l0,0c-0.1-0.1-0.2-0.2-0.3-0.3c-0.5-0.4-1-0.8-1.6-1.1c-0.9-0.5-2.6,0.7-3.8,1.2l0,0
			c-0.6,0.9-0.9,1.3-1,1.4h-0.1C23,40,23,38.9,23,37.9c-0.1-0.3-0.4-0.6-0.7-0.7c-1.8-0.6-3.5-0.4-4.3,1.4l0,0
			c0,0.5,0.1,1.1,0.2,1.6c0,0.1,0.1,0.2,0.1,0.3c0,0,0,0.1,0.1,0.1c0,0.1,0,0.1,0.1,0.2v0.1c0,0-0.1,0-0.2-0.1l0,0h-0.1l0,0
			l-0.1-0.1c-0.1-0.1-0.3-0.2-0.5-0.4l-0.1-0.1l0,0c0,0-0.3-0.3-0.4-0.5l-0.2-0.2l0,0l-0.1-0.1l-0.2-0.3c-3.4-1.1-8.4,0.8-10.4,4
			L6,43.4c-0.1,0.3-0.3,0.6-0.4,0.9c-0.2,0.5-0.3,1-0.5,1.5c-0.4,1.3-0.7,2.6-0.9,3.9C3.4,54.4,4,59.2,5.9,63.6
			c0.3,0.8,0.8,1.6,1.3,2.3l0,0c0.6,0.7,1.4,1.1,2.3,1.2l0,0l0,0l0,0c0,0,0,0,0-0.1v-0.1v-0.1l0,0c0-0.1,0-0.1,0-0.2s0-0.2,0-0.4
			c0-0.1,0-0.1,0-0.2c0,0,0,0,0-0.1v-0.2c0-0.3-0.1-0.8-0.1-1.2v-0.4c0-0.7-0.1-1.5,0-2.3c0-0.3,0-0.5,0-0.8c0-0.6,0.1-1.2,0.1-1.7
			l0.1-0.4c0-0.2,0.1-0.5,0.1-0.7c0-0.1,0-0.2,0-0.3s0-0.1,0-0.2c0,0,0,0,0-0.1s0-0.1,0-0.1l0.1-0.3l0,0l0,0l0,0v-0.1l0,0
			c0-0.1,0-0.2,0.1-0.3c0,0,0,0,0-0.1l0,0l0.1-0.5c0-0.1,0-0.2,0.1-0.2l0.1-0.3l0.1-0.2c0-0.1,0.1-0.2,0.1-0.3l0,0l0,0
			c0.1-0.2,0.2-0.5,0.3-0.7l0,0c0.1-0.2,0.1-0.3,0.2-0.4c0-0.1,0.1-0.2,0.1-0.2s0-0.1,0.1-0.1l0.1-0.2c0.1-0.2,0.1-0.3,0.2-0.5
			c0-0.1,0.1-0.1,0.1-0.2l0.1-0.1c0.1-0.1,0.1-0.2,0.2-0.3l0.1-0.1l0,0l0.3-0.4l0,0v-0.1l0.3-0.4c0.1-0.2,0.2-0.4,0.4-0.6l0,0
			l0.2-0.2c0-0.1,0.1-0.1,0.1-0.1l0,0l0.1-0.1l0.1-0.1l0,0c0.1-0.1,0.3-0.3,0.4-0.4c0.1-0.1,0.1-0.1,0.2-0.2h0.1l0.2-0.2l0.2-0.1
			l0.3-0.2l0.3-0.2h0.1c0,0,0,0,0.1,0l0,0l0,0l0.3-0.2l0.4-0.2l0.2-0.1l0.2-0.1l0.5-0.2c0.3-0.2,0.6-0.3,0.9-0.4s0.6-0.3,0.9-0.4
			s0.6-0.2,0.8-0.3c0.3-0.1,0.5-0.2,0.8-0.2l0.4-0.1l0.4-0.1c0.9-0.2,1.9-0.2,2.8,0c0.2,0,0.4,0.1,0.6,0.2l0.2,0.1
			c0.3,0.1,0.6,0.3,0.9,0.5c0.1,0.1,0.3,0.2,0.4,0.3l0,0c0.1,0.1,0.3,0.2,0.4,0.3l0,0l0.3,0.3c0.1,0.1,0.2,0.2,0.3,0.3
			c1.5,2,2.4,4.3,2.6,6.7c1,6.2,3,12.3,4.6,18.4l0,0l0,0l0,0l0,0l0,0l0,0V74c0,0,0,0,0,0.1L34,74l0.2,0.3l0.6,0.8
			c0.1,0.1,0.2,0.3,0.3,0.4c0,0,0,0.1,0.1,0.1l0.1,0.2l0.3,0.4c0.5,0.8,1.1,1.5,1.6,2.3l0.9,1.2l0.1,0.1l0,0l0.7,1
			c0.1,0.1,0,0.4-0.1,0.6l0,0c-0.1,0.2-0.2,0.3-0.2,0.5l0,0c3,4.4,5.8,8.8,8.9,13.1c3.9,5.4,7.9,10.8,11.8,16.1
			c3.1,4.2,6.4,8.2,10.5,10.9l0,0l0.9,0.6l0,0l1,0.6l0.5,0.3l0,0c0.6,0.3,1.2,0.6,1.8,0.8c0.4,0.2,0.8,0.3,1.3,0.5l0,0
			c0.1,0,0.1,0,0.2,0.1l0.8,0.2c0.8,0.2,1.7,0.4,2.5,0.6h0.1c0.6,0.1,1.2,0.2,1.8,0.2l0,0l0.8-0.1l4.4-0.6l0,0
			c2.7-0.7,5.4-1.7,7.9-3l0,0h0.1c0.8-0.5,1.5-0.9,2.3-1.4l0.1-0.1l0,0c1.3-0.8,2.7-1.6,4-2.3c6.6-3.6,13.3-6.9,19.8-10.7
			c3.3-1.9,6.4-4.2,9-6.9C138.1,90.8,134.5,77.8,128.5,69.4z M108.2,91.1c-3.2,11-10.3,19-21,22.6c-3.8,1.3-7.9,1.6-11.8,0.6l0,0
			c-0.6-0.2-1.2-0.3-1.8-0.5l0,0c-2.3-0.8-4.3-2-6.2-3.5l0,0l-0.6-0.5l0,0c-3-2.3-5.8-5-8.2-7.9c2.7,2.6,5.9,4.8,9.3,6.4l0.9,0.2
			l3.2,0.8l0.6,0.1l0.8,0.2l0.3,0.1l-0.9-0.3l0,0c-5.3-1.8-10-4.9-13.7-9.1c-1.4-1.2-2.4-2.6-3.2-4.2c-1.2-1.8-2.1-3.7-2.8-5.8
			c0.9,1.3,1.9,2.5,3.1,3.7c2.2,2.1,4.7,3.8,7.4,5.3l0.2,0.1c2.3,1.2,4.9,2,7.5,2.3h0.2l-0.3-0.2l0,0h-0.1c-6.9-3-13-7.5-17.8-13.2
			l0,0l-0.1-0.2C53.1,88,53.1,88,53,87.9c-0.2-0.2-0.3-0.3-0.4-0.5c-0.1-0.1-0.2-0.3-0.3-0.4v-0.1l0,0l0,0l0,0l0,0l0,0l0,0l0,0l0,0
			l0,0l-0.1-0.2c-0.1-0.4-0.2-0.8-0.3-1.2c0-0.2-0.1-0.3-0.1-0.5s0-0.2-0.1-0.3l-0.1-0.3c0.3-0.1,0.7-0.2,1-0.4s0.7-0.3,1-0.4h0.1
			h0.1h0.1l0,0H54h0.1l0.2-0.1c0.2,0,0.4,0,0.5,0h0.1l0,0l0,0c2.2,0.2,4.4,0.9,6.3,2l0.2,0.1c0.8,0.4,1.7,0.8,2.5,1.2
			c3.2,2,5.9,1.4,8.4-0.4c3.2-2.3,6.3-4.9,9.1-7.6c6.5-6.1,14.2-6.4,20.8-2.8C107.7,79,110,84.8,108.2,91.1z M108.7,40.9L108.7,40.9
			L108.7,40.9c-0.2,0.3-0.4,0.5-0.6,0.6c-1.8,1.3-5.1,0.1-8-2.8c1.9,0.2,3.8,1.1,5.5,1c0.2,0,0.3,0,0.5-0.1l0.2-0.1l0.2-0.1l0.2-0.1
			l0.2-0.1l0.2-0.1l0.2-0.1l0.1-0.1l0.1-0.1l0.2-0.2l0.2-0.2c0.1-0.1,0.1-0.1,0.2-0.2c0.1-0.1,0.2-0.3,0.3-0.4l0.2-0.2
			c0.1-0.1,0.1-0.2,0.2-0.3c0-0.1,0.1-0.2,0.1-0.3c0.1-0.1,0.1-0.2,0.1-0.3l0.1,0.1c0.1-0.3,0.3-0.5,0.4-0.8l0,0
			c0.1,0.5,0.1,1,0.1,1.5L110,38C109.5,39.1,109.2,40.2,108.7,40.9z"/>
		<path class="st11" d="M89.8,124.8L89.8,124.8c-5,8.3-8.7,17.3-11,26.7l-0.8-0.3c0.8-8.4,1.6-16.8,2.4-25.2l0.8-0.1
			c1.5,0,3-0.2,4.4-0.6l0,0c2.7-0.6,5.4-1.7,7.8-3c-1,0.6-2,1.2-3,1.8L89.8,124.8z"/>
		<path class="st12" d="M107,29.9c0.5,0.4,1,0.8,1.5,1.2c-0.9-0.6-1.9-1.1-2.9-1.4c-2.6-0.7-5.3-0.9-8-0.4c-6.3,0.7-8.4,4.7-8.5,5
			l0,0c-0.3,0.5-0.6,1.1-0.9,1.7c-0.1,0.1-0.1,0.2-0.2,0.3l0.1-0.1c-1.2,2.5-2.6,6.8-3.4,13.8c-0.1-0.9-0.4-1.8-0.7-2.6
			c-1.1,0.1-2.3,0.1-3.4,0c-3.6-0.3-4.3-2.5-5.4-10.4c-1,0.6-2,1.1-3.1,1.5c-1.6,0.2-3.8,0.7-4.8-0.1s-1.3-3.1-1-4.6
			C67.9,25,73.1,19.1,82,16.5c-3-1.4-5.9-2.9-8.8-4.7c-1.4-1-2.4-2.6-2.6-4.4c0-0.9,2.4-2.3,3.9-2.5c6.6-1.1,13.4,0.6,18.7,4.7
			C95.1,10.8,97,12,99,13c-0.3-2.5-0.4-5-0.4-7.4c0.2-2.8,2.3-3.6,4.4-1.7c3.5,3.2,5.6,7.7,5.9,12.5C109.4,21,108.8,25.7,107,29.9z"
			/>
		<path class="st10" d="M53.4,83.6L53.4,83.6c-0.1,0-0.2,0-0.2,0.1h-0.1l0,0c-0.2,0.1-0.4,0.3-0.6,0.4l-0.1,0.1l-0.1,0.1l-0.1,0.1
			l-0.1,0.2c0,0,0,0,0,0.1v0.1l0,0c-0.1,0-0.1,0.2-0.2,0.4l0,0l0,0c0,0,0,0,0,0.1l0,0l0,0c0,0.1-0.1,0.2-0.1,0.4c0,0.1,0,0.3,0,0.4
			s0,0.2,0,0.2c0,0.1,0,0.2,0.1,0.2v-0.1c-0.1-0.4-0.2-0.7-0.3-1.1c0-0.2-0.1-0.3-0.1-0.5s0-0.2-0.1-0.3l-0.1-0.3
			c0.3-0.1,0.7-0.2,1-0.4s0.7-0.3,1-0.4L53.4,83.6z"/>
		<path class="st11" d="M51.9,87.2c-0.1-0.1-0.1-0.3-0.2-0.5C51.8,86.9,51.8,87,51.9,87.2z"/>
		<path class="st11" d="M105.6,29.8c-1.2-0.1-2.3-0.3-3.5-0.4l0,0c-1-0.1-1.9-0.1-2.9-0.1c-0.5,0-1,0-1.4,0.1
			c-2.9,0.3-5.6,1.6-7.6,3.8l0.4-0.6c-0.6,0.5-1.1,1.1-1.5,1.8c0.1-0.3,2.2-4.3,8.5-5C100.3,28.9,103,29.1,105.6,29.8z"/>
		<path class="st11" d="M90.6,32.5l-0.4,0.6c-0.8,0.9-1.5,1.9-2,2.9C88.7,34.7,89.5,33.5,90.6,32.5z"/>
		<path class="st11" d="M54.1,56.2c-3.2,3.3-6.6,6.5-9.6,10c-3,3.5-5.6,7.4-4.9,12.5c-0.8-1.7-2.1-3.3-2.3-5.1
			c-0.4-3.6-0.6-7.2-0.8-10.8c-0.1-1.1-0.1-2.2-0.2-3.4c0.2,1.2,0.3,2.3,0.3,3.3c-0.1-2.7,0.3-5.4,1.1-8c0-0.1,0.1-0.1,0.1-0.2
			l0.1-0.2l0,0l0,0c0.6-1.5,1.3-3.1,1.8-4.6c1-2.4,1.8-5,2.3-7.5c1.6-8.2-3.3-15-10.5-16.6h-0.2l-0.5-0.1c-0.5-0.1-1-0.1-1.6-0.2H29
			c-0.3,0-0.7,0-1,0s-0.6,0-0.9,0.1h-0.4c-1.7,0.1-3.3,1-4.2,2.4c-0.5-1.2-0.6-2.5-0.2-3.8c0,0,0,0,0-0.1c1.1-4.1,5.3-6.5,9.4-5.5
			c2.8,0.7,5.5,1.7,8.1,3c5.5,2.9,10.5,6.7,14.9,11.2c-1.7,2.5-3.3,4.8-5.5,8c2.5-0.5,4.2-0.8,5.8-1.3c3.5-0.9,4.1-0.5,4.6,3
			C60.3,47.9,57.8,52.3,54.1,56.2z"/>
		
			<linearGradient id="SVGID_00000158709590055575949880000015145395871954588821_" gradientUnits="userSpaceOnUse" x1="27.06" y1="589.25" x2="28" y2="589.25" gradientTransform="matrix(1 0 0 1 0 -564)">
			<stop  offset="0" style="stop-color:#650D01"/>
			<stop  offset="1" style="stop-color:#EC0000"/>
		</linearGradient>
		<path style="fill:url(#SVGID_00000158709590055575949880000015145395871954588821_);" d="M28,25.2l-0.9,0.1
			C27.4,25.2,27.7,25.2,28,25.2z"/>
		
			<linearGradient id="SVGID_00000128468504921688336270000012998677791816161950_" gradientUnits="userSpaceOnUse" x1="175.4672" y1="648.2456" x2="110.2972" y2="616.0256" gradientTransform="matrix(1 0 0 1 0 -564)">
			<stop  offset="0" style="stop-color:#650D01"/>
			<stop  offset="1" style="stop-color:#EC0000"/>
		</linearGradient>
		<path style="fill:url(#SVGID_00000128468504921688336270000012998677791816161950_);" d="M128,61.6c-2.5,0.8-2.7,2.3-2.5,4l0,0
			c0,0.6,0.1,1.2,0.2,1.7l0,0c0.1,2.1-0.1,5.5-2.2,7.2l0,0c-0.2,0.1-0.3,0.3-0.5,0.5l0,0c-0.9,0.6-1.9,1.1-3,1.2
			c-3.7,0.5-7-1.2-7.5-4.7c-0.5-3-0.4-6,0.1-9c1.4-7.3,3.4-14.6,2.6-22.2l10-1.9l0.5,1.1c-1.8,3.5-5.9,4.6-8.7,7.5
			c2.6,3,6.1,3.1,9.3,3.7c3.2,0.6,5.3,2,5.8,4.5C132.7,58.1,130.9,60.9,128,61.6z"/>
		<path class="st11" d="M123.4,74.6c-0.1,0.1-0.3,0.3-0.4,0.4C123.1,74.8,123.3,74.7,123.4,74.6z"/>
		<path class="st11" d="M123.4,74.6L123.4,74.6L123.4,74.6L123.4,74.6z"/>
		<path class="st11" d="M81.2,125.9l4.4-0.6C84.2,125.7,82.7,125.8,81.2,125.9z"/>
		<path class="st11" d="M89.8,124.8L89.8,124.8z"/>
		<path class="st11" d="M71,101.7L71,101.7L71,101.7z"/>
		<path class="st10" d="M72.4,109.5c-1,0-2-0.1-3-0.5c-0.3-0.1-0.7-0.2-1.1-0.4c-0.2-0.1-0.4-0.2-0.7-0.3l0.9,0.2l3.2,0.8
			L72.4,109.5z"/>
		<path class="st10" d="M58.9,100.4c-1.4-1.2-2.4-2.6-3.2-4.2C56.6,97.7,57.7,99.1,58.9,100.4z"/>
		<path class="st11" d="M63.4,99.4c-2.7-1.3-5.2-3.1-7.4-5.3C58.2,96.2,60.7,98,63.4,99.4z"/>
		<path class="st11" d="M75.3,114.3c-0.6-0.2-1.2-0.3-1.8-0.5l1,0.3C74.8,114.2,75.1,114.3,75.3,114.3z"/>
		<path class="st10" d="M110,38.2c-0.4,0.8-0.7,1.9-1.2,2.7c0.5-1,0.8-2.1,0.8-3.2L110,38.2z"/>
		<path class="st11" d="M30.9,25.4c-0.4,0-1-0.1-1.6-0.2C29.8,25.3,30.4,25.3,30.9,25.4z"/>
		<path class="st10" d="M39.6,78.7l-3-2.1l-1-5.3l-1.1-7.5l-0.3-4.4l1.4-2l0.2-0.3c0.1,0.8,0.3,1.5,0.4,2.3c0.2,1.2,0.3,2.3,0.3,3.3
			c0,0.3,0,0.7,0,1.1l0,0C36.9,68.9,37.9,73.9,39.6,78.7z"/>
		<path class="st10" d="M36.6,63.8L36.6,63.8l-0.2-1.1l-0.8-5.3l-0.9-6.2v0.1c0.1,0.6,0.6,2.7,1.1,5.1l0,0l0.1,0.5
			c0.1,0.8,0.3,1.5,0.4,2.3c0.2,1.2,0.3,2.3,0.3,3.3C36.6,63.1,36.6,63.5,36.6,63.8z"/>
		<path class="st10" d="M36.6,63l-0.2-0.6L30,40.9l-0.2-0.7l-0.2-0.7L29,37.1V37c0.2,0.1,0.3,0.2,0.5,0.3l0.1,0.2L30,38
			c0.5,0.6,1,1.3,1.4,2l0,0C37.6,49.9,36.6,63,36.6,63z"/>
		<path class="st10" d="M23.2,41.1L6,43.4c0-0.1,0.1-0.2,0.2-0.3c2.2-3.8,6.5-6.1,8.5-6.9l0,0c0.5,1.1,1.2,2,1.9,2.9
			c1.2,1.4,2.4,2.3,1.9,1.3c-0.1-0.1-0.1-0.2-0.1-0.3c-0.2-0.5-0.3-1-0.3-1.6c0-0.9,0.1-1.8,0.3-2.7c1.7-0.2,3.4-0.1,5.1,0.3
			c-0.2,0.6-0.3,1.2-0.3,1.8C23,38.9,23,40,23.2,41.1z"/>
		<path class="st10" d="M31.3,40l-0.9,0.1H30L23.3,41c0.1-0.1,0.3-0.5,1-1.4l1.3-1.8c0.1-0.2,0.3-0.3,0.4-0.5l0,0
			c1.2-1,2.9-0.8,3.9,0.3c0,0,0,0.1,0.1,0.1l0,0C30.5,38.4,31,39.2,31.3,40z"/>
		<path class="st10" d="M30.2,43.8h-4.3L15.3,46L4.2,49.7l-0.3,0.1c0,0-0.4-3.4,3.2-8.1s7.5-5.7,7.5-5.7c0,0.1,0,0.1,0.1,0.2l0,0
			c0.5,1.1,1.2,2,1.9,2.9c1.2,1.4,2.4,2.3,1.9,1.3c-0.1-0.1-0.1-0.2-0.1-0.3c-0.2-0.5-0.3-1-0.3-1.5c0-0.9,0.1-1.8,0.3-2.7
			c0.1-0.4,0.1-0.6,0.1-0.6c1.8-1.2,5.3,0,5.3,0c-0.2,0.3-0.3,0.6-0.4,0.9c-0.2,0.6-0.3,1.2-0.3,1.8c-0.1,1.1,0,2.2,0.2,3.2v0.1
			l0.1-0.1c0.1-0.1,0.3-0.5,1-1.4l1.3-1.8c0.1-0.2,0.3-0.3,0.4-0.5l0,0c0.7-0.9,2.1-1.1,3-0.4c0.2,0.1,0.3,0.2,0.5,0.3
			s0.3,0.3,0.5,0.5l0,0V38l0.2,1.8v0.4v0.7L30.2,43.8z"/>
		<path class="st10" d="M35.6,50.6c0,0-2.1-10.9-7.1-13.8L35.6,50.6z"/>
		<path class="st10" d="M9.6,67.2L9.6,67.2C8.8,66.9,8,66.5,7.3,66c-2.6-2-6.2-6.7-3.4-17.7c0.2-0.8,0.5-1.7,0.8-2.7l0.4,0.1l6,1.6
			l4.5,1.2C6.9,53.1,9.6,67.2,9.6,67.2z"/>
		<path class="st11" d="M34.7,104.9c-0.7-0.3-1.4-0.6-2-0.9c-1.7-0.9-3.3-2-4.8-3.1l-0.4-0.3l-0.3-0.3c-0.1-0.1-0.2-0.2-0.3-0.3
			c-0.5-0.4-0.9-0.8-1.4-1.2c-0.3-0.2-0.5-0.5-0.8-0.7l-0.6-0.5c-1.2-1.2-2.4-2.5-3.4-3.8c-0.2-0.2-0.4-0.5-0.6-0.7
			s-0.6-0.7-0.9-1.1l-0.4-0.6l-0.4-0.6c-0.6-0.8-1.1-1.7-1.7-2.6L16,86.8l-0.1-0.1c-0.3-0.5-0.6-1-0.8-1.4l10.7,5.8l0,0
			c0,0,0,0,0,0.1c0.1,0.4,0.6,1.7,1.4,3.4l0,0c1.3,2.8,2.9,5.4,4.8,7.8C32.8,103.3,33.7,104.2,34.7,104.9z"/>
		<path class="st10" d="M38.4,82c0,0-1-1.6-4.5-2.6s4.1-0.9,4.1-0.9l3,2.3L38.4,82z"/>
		
			<linearGradient id="SVGID_00000106858489749500641540000002700478799129122744_" gradientUnits="userSpaceOnUse" x1="13.7" y1="650.0228" x2="38.8414" y2="650.0228" gradientTransform="matrix(1 0 0 1 0 -564)">
			<stop  offset="0" style="stop-color:#650D01"/>
			<stop  offset="1" style="stop-color:#EC0000"/>
		</linearGradient>
		<path style="fill:url(#SVGID_00000106858489749500641540000002700478799129122744_);" d="M25.3,83.8c-0.3,2.4-0.1,4.9,0.5,7.2
			c0,0,0,0,0,0.1c0.3,1.2,0.8,2.3,1.4,3.4l0,0c1.3,2.8,2.9,5.4,4.8,7.8c0.3,0.6,0.5,1.1,0.7,1.7c-1.7-0.9-3.3-2-4.8-3.1l-0.4-0.3
			l-0.3-0.3c-0.1-0.1-0.2-0.2-0.3-0.3l-0.6-0.6l-0.8-0.7c-0.3-0.2-0.5-0.5-0.8-0.7l-0.6-0.5c-0.5-0.5-1-1-1.5-1.6l-0.5-0.6
			c-0.5-0.5-0.9-1.1-1.4-1.6c-0.2-0.2-0.4-0.5-0.6-0.7s-0.6-0.7-0.9-1.1l-0.4-0.6l-0.4-0.6c-0.6-0.8-1.1-1.7-1.7-2.6L16,86.8
			l-0.1-0.1c-0.3-0.5-0.6-1-0.8-1.4l0.4-0.1l6-0.9L19.8,83l-1.1-0.8c-1.2-0.9-2.4-1.8-3.6-2.8c-0.8-0.6-1.3-1.5-1.4-2.4
			c0.1-6.6,7.7-11.1,13.5-7.9c2.3,1.4,4.5,2.9,6.6,4.6l0,0c1.4,2.1,2.9,4.1,4.3,6.2l0.7,1c0.1,0.1,0,0.4-0.1,0.6
			c-2.4-1.2-6.2-2.8-8.4-2.7C27.4,78.6,25.6,80.6,25.3,83.8z"/>
		<path class="st11" d="M40.9,82.6c-0.2-0.1-1-0.6-2.2-1.2c-2.4-1.2-6.2-2.8-8.4-2.7l3.6-5.2l0,0c0.2,0.3,2.3,3.7,4.3,6.2
			C38.9,80.9,39.8,81.8,40.9,82.6z"/>
		<path class="st11" d="M33.8,73.6c0,0,5.5,8.2,7,9l-7.4-3.7L33.8,73.6z"/>
		<path class="st11" d="M52,87.1c-0.2-0.2-0.2-0.3-0.3-0.4l0,0v-0.3C51.8,86.7,51.9,86.9,52,87.1z"/>
		<path class="st11" d="M71.3,101.9l-0.3-0.1l-0.2-0.1H71l0,0L71.3,101.9z"/>
		<path class="st12" d="M108.2,91.1c-3.2,11-10.3,19-21,22.6c-3.8,1.3-7.9,1.6-11.8,0.6l0,0l-0.9-0.2l-1-0.3l0,0
			c-2.3-0.8-4.3-2-6.2-3.5l0,0l-0.6-0.5l0,0c-3-2.3-5.8-5-8.2-7.9c2.7,2.6,5.9,4.8,9.3,6.4c0.2,0.1,0.4,0.2,0.7,0.3
			c0.4,0.2,0.7,0.3,1.1,0.4h0.1c1.2,0.4,2.5,0.6,3.8,0.7h-0.1l0.3,0.1l-0.9-0.3l0,0c-7-2.4-13-7.1-17-13.3c-1.2-1.8-2.1-3.7-2.8-5.8
			c0.9,1.3,2,2.6,3.2,3.8c2.1,2.2,4.6,4,7.4,5.3l0.2,0.1c2.3,1.2,4.9,2,7.5,2.3h0.2l-0.3-0.2l0,0h-0.1c-6.9-3-13-7.5-17.8-13.2l0,0
			l-0.1-0.2c-0.1-0.1-0.1-0.1-0.2-0.2c-0.3-0.3-0.5-0.6-0.7-0.9l0,0c-0.1-0.2-0.2-0.4-0.3-0.7c-0.1-0.2-0.1-0.4-0.1-0.6
			c0-0.1,0-0.2,0.1-0.4l0,0l0,0c0,0,0,0,0-0.1l0,0l0,0c0.1-0.2,0.1-0.3,0.2-0.5l0,0v-0.1c0,0,0,0,0-0.1l0.1-0.2l0.1-0.1l0.1-0.1
			l0.1-0.1c0.2-0.2,0.4-0.3,0.6-0.4l0,0H53c0.1,0,0.1-0.1,0.2-0.1l0,0h0.1h0.1l0,0h0.1c0.3-0.1,0.7-0.1,1-0.1l0,0
			c2.2,0.2,4.4,0.9,6.3,2l0.2,0.1c0.8,0.4,1.7,0.8,2.5,1.2c3.2,2,5.9,1.4,8.4-0.4c3.2-2.3,6.3-4.9,9.1-7.6
			c6.5-6.1,14.2-6.4,20.8-2.8C107.7,79,110,84.8,108.2,91.1z"/>
		<path class="st11" d="M71,101.8c-2.6-0.3-5.2-1.1-7.5-2.3c2.3,1.1,4.8,1.9,7.3,2.2H71l0,0l0,0V101.8z"/>
		<path class="st11" d="M51.8,85.3C51.7,85.4,51.7,85.4,51.8,85.3C51.7,85.4,51.7,85.4,51.8,85.3z"/>
		<path class="st11" d="M52.2,84.5l-0.1,0.2L52.2,84.5L52.2,84.5z"/>
		<path class="st11" d="M51.8,85.3C51.7,85.4,51.7,85.4,51.8,85.3C51.7,85.4,51.7,85.4,51.8,85.3z"/>
		<path class="st11" d="M51.7,85.4c0,0.1-0.1,0.2-0.1,0.4v-0.1C51.7,85.6,51.7,85.5,51.7,85.4z"/>
		<path class="st11" d="M52.7,88.1c-0.2-0.2-0.3-0.3-0.4-0.5c-0.1-0.1-0.2-0.3-0.3-0.4v-0.1l0,0l0,0l0,0l0,0l0,0l0,0l0,0l0,0l0,0
			l-0.1-0.2v-0.1c0-0.1,0-0.1,0-0.2s0-0.2,0-0.2c0-0.1,0-0.3,0-0.4c0,0.2,0,0.4,0.1,0.6s0.1,0.5,0.3,0.7l0,0
			C52.3,87.5,52.5,87.8,52.7,88.1z"/>
		<path class="st11" d="M54.6,83.5c-0.3,0-0.7,0-1,0.1h0.1l0.2-0.1c0.2,0,0.4,0,0.5,0H54.6L54.6,83.5z"/>
		<path class="st11" d="M54.6,83.5"/>
		<path class="st11" d="M73.2,109.7c-1.3-0.1-2.5-0.3-3.8-0.7h-0.1c1,0.4,2,0.5,3,0.5L73.2,109.7L73.2,109.7z"/>
		<path class="st10" d="M73.5,113.8c-2.3-0.5-4.8-2.2-6.8-3.9l0.6,0.5l0,0C69.1,111.8,71.2,113,73.5,113.8z"/>
		<path class="st10" d="M73.2,109.7c-1.3-0.1-2.5-0.3-3.8-0.7h-0.1c-0.3-0.1-0.6-0.2-0.8-0.4c-0.3-0.3-0.1-0.5-0.1-0.5l0.9,0.4
			L73.2,109.7L73.2,109.7z"/>
		<path class="st11" d="M53.4,83.6L53.4,83.6c-0.1,0-0.2,0-0.2,0.1l0.1-0.1H53.4z"/>
		<path class="st11" d="M53.5,83.6L53.5,83.6L53.5,83.6L53.5,83.6z"/>
		<path class="st11" d="M54.6,83.5"/>
		<path class="st10" d="M52.8,88.2l-1.7,1.5l-1.7-1.6l0.4-3.9c0,0,2-0.7,2.3-0.2c0.1,0.1,0,0.3-0.1,0.5v0.1c0,0,0,0,0,0.1v0.1l0,0
			c-0.2,0.3-0.3,0.6-0.3,0.9v0.1c0,0.2,0,0.4,0.1,0.6s0.1,0.5,0.3,0.7l0,0c0.2,0.3,0.4,0.7,0.7,0.9C52.8,88.1,52.8,88.2,52.8,88.2z"
			/>
		<path class="st10" d="M90.6,32.5l-0.4,0.6l-2,3c0-0.1,0.1-0.1,0.1-0.2C88.8,34.6,89.6,33.5,90.6,32.5z"/>
		<path class="st10" d="M107.3,31.8c-0.4,1-2.6,1.9-2.6,1.9l-11.9,3l-3.6-2.4h-0.1l0,0c0.1-0.3,2.2-4.3,8.5-5c1.5-0.1,3-0.1,4.4,0.1
			l0,0C106.7,30,107.6,31,107.3,31.8z"/>
		<path class="st10" d="M110,32.5L110,32.5l-2.6-0.7l-9.6-2.5h-0.1c2.7-0.4,5.4-0.3,8,0.4c1,0.3,2,0.8,2.9,1.4
			C109.1,31.5,109.6,32,110,32.5z"/>
		<path class="st11" d="M109,37.1c-0.5,1-1.6,2.6-3.4,2.6c1.2-0.1,2.4-0.8,3.3-2.8L109,37.1z"/>
		<path class="st11" d="M108.6,41L108.6,41L108.6,41L108.6,41z"/>
		<path class="st11" d="M109.5,37.7c0,1.1-0.2,2.2-0.8,3.2l0,0l-0.1,0.1c-0.1,0.2-0.3,0.4-0.5,0.5c-1.8,1.3-5.1,0.1-8-2.8
			c1.9,0.2,3.8,1.1,5.5,1s2.9-1.6,3.4-2.6c0.1-0.3,0.3-0.5,0.4-0.8l0,0C109.5,36.7,109.5,37.2,109.5,37.7z"/>
		<path class="st10" d="M109.4,36.3L109.4,36.3c-0.1,0.3-0.2,0.6-0.4,0.8c-0.5,1-1.6,2.6-3.4,2.6L109.4,36.3z"/>
		<path class="st10" d="M96,120.8L96,120.8c-0.8,0.5-1.6,1-2.4,1.5c-2.5,1.3-5.1,2.4-7.8,3l0,0c-1.4,0.3-2.9,0.5-4.4,0.6
			c-0.7,0-1.4,0-2.1-0.1l-0.5-0.1h-0.1c-1.1-0.1-2.2-0.4-3.3-0.8c-0.1,0-0.1,0-0.2-0.1L96,120.8z"/>
		<path class="st10" d="M128.5,69.4l-1.5,9.1c0,0-6-1.3-4-3.6l0,0c0.1-0.1,0.3-0.3,0.4-0.4l0,0c2.1-1.7,2.3-5.1,2.2-7.2
			c0-0.6-0.1-1.2-0.2-1.7l0,0c0.9,0.9,1.8,2,2.6,3c0.1,0.2,0.2,0.3,0.4,0.5s0.1,0.1,0.1,0.1V69.4z"/>
		<path class="st11" d="M116.9,46.9c0,0,8.1-5.2,9.9-8.5L116.9,46.9z"/>
		<path class="st11" d="M115.2,40.3l11.6-2.3c0,0,0.4,0.5-1.2,2.1L115.2,40.3z"/>
		<path class="st12" d="M87,39.2c0,0,2.3-10.4,14.2-10s-3.6-5-3.6-5H80l1,8.4L87,39.2z"/>
		<path class="st10" d="M107,29.9c0,0-1.8-1.8-10-0.4l2.1,2.2L107,29.9z"/>
		<path class="st10" d="M105,29.2c2.4,0.5,4.6,2,6,4L105,29.2z"/>
		<path class="st11" d="M126.6,38.8c0,0-8.2,8.4-11.4,8.7c0,0,0.5-6.8,0-7.2"/>
		<path class="st9" d="M212.8,166.3c0,0,10,0.4,10.5-1.4"/>
		<path class="st4" d="M298.3,96.1c1,0.6,1.9,1.4,2.4,2.4c1.1,2.2,1.1,4.8,0,7c-0.6,1-1.4,1.9-2.4,2.5c-2.2,1.2-4.8,1.2-7,0
			c-1-0.6-1.9-1.4-2.4-2.5c-1.2-2.2-1.2-4.8,0-7c0.6-1,1.4-1.9,2.4-2.4C293.5,94.9,296.1,94.9,298.3,96.1z M298.7,106.1
			c2-2.3,2-5.7,0-8c-1-1.1-2.5-1.6-3.9-1.6c-1.5-0.1-2.9,0.5-3.9,1.6c-2,2.3-2,5.7,0,8c1,1.1,2.4,1.6,3.9,1.6
			C296.2,107.7,297.7,107.1,298.7,106.1L298.7,106.1z M297.4,102.1c-0.3,0.4-0.7,0.7-1.2,0.8l1.9,2.8H296l-1.6-2.7h-0.6v2.7H292
			v-7.3h3.2c0.7,0,1.3,0.2,1.8,0.6s0.7,1,0.7,1.7C297.8,101.1,297.7,101.6,297.4,102.1L297.4,102.1z M293.8,101.6h1.4
			c0.2,0,0.4-0.1,0.6-0.2s0.3-0.4,0.2-0.6c0-0.2-0.1-0.4-0.2-0.6c-0.2-0.1-0.4-0.2-0.6-0.2h-1.4V101.6z"/>
		<path class="st4" d="M158,164.9c-1.4,0.1-2.8,0-4.2-0.3c-2.8-0.5-4.3-2.4-4.6-5.5c-0.1-1.5-0.1-3,0.2-4.4
			c2.5-18.9,4.4-38,5.6-57.1c0-1.4,0.4-2.3,1.2-2.8c0.2-0.1,0.4-0.1,0.6-0.2c0.4,0,0.9,0,1.3,0.1c1.3,0.3,2.5,0.6,3.7,1.2
			c2.3,1.1,3.9,3.3,3.9,5.9c0.1,1.4,0.1,2.7-0.1,4.1l-2.4,24.9c2.3-0.4,4.5-1.4,6.3-2.9c1.8-1.5,3.3-3.4,4.4-5.5
			c1.1-2.1,1.8-4.4,2.2-6.7c0.6-3.8,0.8-7.6,0.4-11.5c-0.5-5.7-2.4-10.1-5.7-13.2c-1.5-1.4-3.4-2.5-5.4-3c-1.2-0.3-2.5-0.3-3.8-0.2
			c-3.5,0.4-6.8,2-9.2,4.7c-3.2,3.6-5,8.2-5.3,13c-0.2,2.9-0.2,5.7,0.1,8.6c0.3,2.7,0.5,4.7,0.7,6c0,0.2,0,0.4-0.1,0.6
			c-0.2,0.3-0.5,0.5-0.9,0.6s-0.8,0.2-1.3,0.2c-1.8,0.2-3.7-0.3-5.1-1.4c-3-2-4.7-5.1-5.1-9.3c-0.3-3,0.1-6,0.9-8.9
			c0.8-2.8,2-5.6,3.5-8.1c3.6-5.9,9.3-10.2,16-12c1.2-0.3,2.4-0.5,3.6-0.6c3.5-0.3,7,0.1,10.3,1.2c3.3,1,6.4,2.7,9.1,5
			c1.6,1.4,3,3,4.2,4.8c2.5,3.9,4,8.4,4.3,13.1c0.5,5-0.1,10.1-1.6,14.9c-1.1,3.4-2.9,6.6-5.1,9.3c-2.1,2.6-4.7,4.8-7.6,6.5
			c-2.9,1.7-6.1,2.7-9.4,3l-1.4,0.1l-2.2,23.1c0,0.7-0.2,1.4-0.6,1.9C159.3,164.6,158.7,164.9,158,164.9z"/>
		<path class="st4" d="M204.1,151.2c-3.7,0.4-7.4-0.9-10.1-3.5c-3.6-3.3-5.8-7.9-6.1-12.8c-0.3-3.7,0-7.4,0.9-10.9
			c0.8-4.1,2.5-8.1,4.9-11.5c2.4-3.5,6.1-6,10.2-7c0.5-0.1,1-0.2,1.5-0.2c1.6-0.2,3.2,0.1,4.6,0.8c1.2,0.7,2.2,1.7,2.9,2.9
			c0.7,1.3,1.1,2.7,1.2,4.2c0.2,3-0.4,6.1-2,8.7c-1.5,2.2-3.3,4.2-5.3,5.8c-2.1,1.7-4.3,3.2-6.5,4.6c-0.3,0.2-0.6,0.4-0.8,0.7
			c-0.2,1.1-0.3,2.2-0.1,3.3c0.3,2.7,1.1,5.2,2.4,7.6c1.1,0.9,2.6,1.3,4,1.1c2.1-0.4,4-1.3,5.5-2.8c2.4-2.3,4.5-4.9,6.1-7.8
			c1.6-2.9,3.1-6,4.2-9.1c0.7-1.7,1.5-2.6,2.5-2.7c0.8-0.1,1.5,0.4,1.8,1.1c0.2,0.3,0.3,0.7,0.4,1.1c0.1,1.3-1.2,4.7-4,10.2
			c-1.1,2.1-2.2,4.2-3.5,6.1c-2.2,3.7-5.4,6.7-9.2,8.7C207.9,150.5,206,151,204.1,151.2z M199.6,127.5c3.2-1.7,5.9-4.1,8-7.1
			c1-1.3,1.7-2.8,2.1-4.4c0.1-0.6,0.1-1.1,0-1.7c-0.1-0.8-0.3-1.5-0.6-2.2c-0.2-0.6-0.9-1.1-1.6-1c-0.8,0.1-1.6,0.6-2,1.3
			c-2.4,2.9-4.1,6.4-4.9,10.1C200.2,124.1,199.8,125.8,199.6,127.5z"/>
		<path class="st4" d="M250.6,121.2c0-1.3-0.1-2.5-0.2-3.8c-0.5-5.4-2.1-9.5-4.8-12.3c-2-2.1-4.7-3.1-7.6-2.9
			c-3.3,0.5-6.1,2.4-8.4,5.9c-0.3-1.7-1.2-3.2-2.6-4.2c-1-0.7-2.2-1.1-3.4-1.4l-1.2-0.5c-0.4-0.2-0.9-0.2-1.3-0.2
			c-0.5,0.1-1,0.3-1.4,0.7c-0.4,0.4-0.6,0.9-0.5,1.4l0.1,1c0.1,1.2,0.1,2.5,0,3.7c-0.2,4.6-0.5,9.8-1.1,15.6
			c-0.3,3.3-0.6,6.7-1,10.2c-0.3,3.2-0.6,6.4-1,9.7v0.1c-1,9.5-1.8,16.9-2.4,25.1c3.1,0.1,7.6,0.2,10.8-1.4c0.3-4,0.4-3.8,1.1-11.2
			l0.9-10.1c0,0.2,0.6,0.6,1.6,1c1.3,0.5,2.6,0.7,4,0.7c0.5,0,1,0.1,1.4,0.1c4.4-1.1,8.2-3.7,10.9-7.4l-0.4,0.2
			c2.7-3.3,4.5-7.3,5.4-11.4c0.4-1.7,0.6-3.4,0.8-5.1c0-0.3,0.1-0.6,0.1-0.8s0-0.2,0-0.3V123v-0.1c0-0.4,0-0.9,0-1.3
			c0-0.2,0-0.4,0-0.4H250.6z M239.9,121.3c-0.1,2-0.3,4-0.6,6c-0.4,2.3-0.9,4.5-1.6,6.7c-0.6,2-1.6,3.9-2.8,5.6
			c-0.9,1.4-2.4,2.3-4.1,2.5c-1.8,0.2-2.8-1.2-3-4c-0.1-0.8-0.1-1.6,0-2.4l1.1-13.2c0.6-3.9,1.9-7.7,4.1-11c0.2-0.3,0.5-0.7,0.7-1
			c0.3-0.5,0.7-1,1.1-1.5c0.4-0.4,0.9-0.7,1.5-0.8c0.5,0,1,0.2,1.4,0.6l0.4,0.6c0.2,0.4,0.4,0.9,0.7,1.5s0.4,1.1,0.6,1.5
			c0.3,1.1,0.5,2.2,0.6,3.4C239.9,117.7,239.9,119.5,239.9,121.3z"/>
		<path class="st4" d="M282.4,129c-0.9,0.7-1.7,1.5-2.5,2.4c-0.5,0.6-0.9,1.2-1.4,1.8l0,0v0.1c-0.8,0.9-1.6,1.7-2.5,2.6
			c-0.3,0.3-0.7,0.7-1.1,0.9l0,0c-6.7,4.2-9.4-1.4-9.6-1.7l0,0c-0.7-1.6-1.1-3.3-1.2-5.1c-0.2-1.1-0.1-2.2,0.1-3.3
			c0.2-0.3,0.5-0.6,0.8-0.7c2.3-1.4,4.4-3,6.5-4.6c2.1-1.7,3.8-3.6,5.3-5.8c1.6-2.6,2.2-5.7,2-8.7c-0.1-1.5-0.5-2.9-1.2-4.2
			c-0.6-1.2-1.6-2.3-2.9-2.9c-1.4-0.7-3-1-4.6-0.8c-0.5,0.1-1,0.1-1.5,0.2c-4.1,1-7.8,3.5-10.2,7c-2.4,3.5-4.1,7.4-4.9,11.5
			c-1,3.6-1.3,7.3-0.9,10.9c0.3,4.9,2.5,9.5,6.1,12.8c2.7,2.6,6.4,3.9,10.1,3.5c1.9-0.2,3.8-0.7,5.5-1.6c1-0.5,1.9-1.1,2.8-1.7l0,0
			C283.1,136.7,282.8,131.2,282.4,129z M265.4,116.2c0.8-3.7,2.5-7.2,4.9-10.1c0.4-0.7,1.2-1.2,2-1.3c0.7-0.1,1.3,0.4,1.5,1
			c0.3,0.7,0.6,1.5,0.6,2.3c0.1,0.6,0.1,1.1,0,1.7c-0.4,1.6-1.1,3.1-2.1,4.4c-2.1,2.9-4.9,5.3-8,7
			C264.6,119.5,264.9,117.8,265.4,116.2L265.4,116.2z"/>
		<path class="st4" d="M282.4,129c-0.9,0.7-1.7,1.5-2.5,2.4c0.8-1.1,1.5-2.2,2.2-3.4C282.2,128.3,282.3,128.7,282.4,129z"/>
		<path class="st4" d="M250.4,124.5c-0.2,1.7-0.4,3.4-0.8,5.1c-0.4,2.2-1.2,4.3-2.1,6.2C249.1,132.2,250.1,128.4,250.4,124.5z"/>
		<path class="st4" d="M250.5,123.6c0,0.3,0,0.6-0.1,0.8C250.5,124.2,250.5,123.9,250.5,123.6z"/>
		<path class="st4" d="M230.2,148c0,0,9.2,3.2,16.4-10.5"/>
	</g>
</g>
</svg>
