<svg xmlns="http://www.w3.org/2000/svg" viewBox="0 0 67.89 44.21"><defs><style>.cls-1{fill:#fff;}.cls-2{fill:#f5c405;}.cls-3,.cls-4{fill:#ec0000;}.cls-4{fill-rule:evenodd;}.cls-5{fill:#191516;}</style></defs><g id="Capa_2" data-name="Capa 2"><g id="Capa_1-2" data-name="Capa 1"><path class="cls-1" d="M6.52,2A2.16,2.16,0,0,1,6.25,3a3,3,0,0,1-.75.88,3.62,3.62,0,0,1-1.08.59,3.91,3.91,0,0,1-1.33.22,1,1,0,0,1-.39-.06,1.16,1.16,0,0,1-.33-.26q-.5,1.1-.81,2a12.81,12.81,0,0,0-.5,1.77,1.45,1.45,0,0,1-.62-.31A2.39,2.39,0,0,1,0,7.29c.07-.13.15-.29.24-.5L.58,6c.13-.31.29-.67.46-1.09l.63-1.49L2,2.77q.12-.28.21-.54c.06-.17.12-.34.17-.51s.1-.35.15-.55a6.17,6.17,0,0,0-.86.35A2.89,2.89,0,0,0,1,1.94a.76.76,0,0,1-.18-.18A1.51,1.51,0,0,1,.6,1.5c0-.1-.1-.2-.14-.3A1.08,1.08,0,0,1,.39.93,3.43,3.43,0,0,1,1.11.56,7.64,7.64,0,0,1,2,.27a8.59,8.59,0,0,1,1-.2,7.25,7.25,0,0,1,1-.07,3.33,3.33,0,0,1,1,.15,2.21,2.21,0,0,1,.78.4,1.73,1.73,0,0,1,.49.62A1.91,1.91,0,0,1,6.52,2ZM4.74.77A5.32,5.32,0,0,0,4,.83L4.08,1a3.92,3.92,0,0,0-.25.39q-.15.26-.33.63l-.39.81-.46,1a6.9,6.9,0,0,0,1.42-.14,4.28,4.28,0,0,0,1.1-.4,2.24,2.24,0,0,0,.71-.6,1.26,1.26,0,0,0,.25-.73,1.09,1.09,0,0,0-.35-.84A1.56,1.56,0,0,0,4.74.77Z"/><path class="cls-1" d="M9.3,3.32a.75.75,0,0,1,.24,0,1,1,0,0,1,.24.09.61.61,0,0,1,.18.11s.08.08.08.11c-.13.28-.26.56-.37.85s-.21.55-.29.81a6,6,0,0,0-.18.73,2.75,2.75,0,0,0-.07.59,1.58,1.58,0,0,0,.06.47.45.45,0,0,0,.2.26,1,1,0,0,1-.31.13,1.55,1.55,0,0,1-.34,0c-.36,0-.54-.25-.54-.74a4.78,4.78,0,0,1,.38-1.56,5.87,5.87,0,0,1-.46.86,5.25,5.25,0,0,1-.53.71A2.87,2.87,0,0,1,7,7.34a1.29,1.29,0,0,1-.5.23.68.68,0,0,1-.6-.34,1.49,1.49,0,0,1-.23-.85A3.32,3.32,0,0,1,6,5.19,5.27,5.27,0,0,1,6.56,4a4.17,4.17,0,0,1,.82-.89,1.36,1.36,0,0,1,.85-.36.85.85,0,0,1,.23.12l.24.21a2,2,0,0,1,.19.24A.73.73,0,0,1,9,3.58,1.76,1.76,0,0,0,8.16,4a4.17,4.17,0,0,0-.78.79,5.36,5.36,0,0,0-.56,1,2.55,2.55,0,0,0-.22,1A.22.22,0,0,0,6.74,7a1.37,1.37,0,0,0,.67-.49,9.76,9.76,0,0,0,.92-1.35l.22-.4.26-.46c.09-.16.17-.32.25-.49S9.23,3.47,9.3,3.32Z"/><path class="cls-1" d="M14,3.37a3.1,3.1,0,0,1-.06.39,2.61,2.61,0,0,1-.14.37,1.48,1.48,0,0,1-.17.28.26.26,0,0,1-.17.11.15.15,0,0,1-.13-.15.26.26,0,0,1,0-.1s0-.09.05-.15A.88.88,0,0,0,13.46,4a.44.44,0,0,0,0-.14.36.36,0,0,0-.07-.24.2.2,0,0,0-.17-.09c-.27,0-.47.16-.61.49a4,4,0,0,0-.21,1.47.35.35,0,0,0,0,.12h.7s0,0,0,.08a.15.15,0,0,1,0,.12l-.36.09-.21.06s-.08.05-.08.07a.2.2,0,0,0,0,.09.81.81,0,0,0,0,.16v.2A2,2,0,0,1,12,7.8a1.92,1.92,0,0,1-1.27.59,1.15,1.15,0,0,1-.29-.08,1.26,1.26,0,0,1-.28-.19,1.36,1.36,0,0,1-.24-.24.87.87,0,0,1-.14-.27,1.66,1.66,0,0,1,.16-.73,2,2,0,0,1,.44-.62A2.1,2.1,0,0,1,11,5.83a2,2,0,0,1,.81-.17,2.63,2.63,0,0,0-.05-.49c0-.16-.07-.32-.1-.47s-.08-.3-.11-.44a2.1,2.1,0,0,1-.05-.43,1.49,1.49,0,0,1,.11-.54,2,2,0,0,1,.29-.49,1.69,1.69,0,0,1,.42-.38,1.47,1.47,0,0,1,.5-.22,1,1,0,0,1,.3.17q.18.15.36.33a3.45,3.45,0,0,1,.32.36A1,1,0,0,1,14,3.37ZM10.7,7.93a2.08,2.08,0,0,0,.46-.29,2.54,2.54,0,0,0,.37-.43,2.73,2.73,0,0,0,.26-.51,1.69,1.69,0,0,0,.09-.53,1.2,1.2,0,0,0-.44.18,2.6,2.6,0,0,0-.45.37,2.1,2.1,0,0,0-.35.45.8.8,0,0,0-.14.4A.45.45,0,0,0,10.7,7.93Z"/><path class="cls-1" d="M14,6.69c0-.06,0-.13,0-.22a1.91,1.91,0,0,1,.05-.36c0-.15.06-.34.11-.55s.09-.47.16-.77a2.1,2.1,0,0,1,.09-.32c.05-.15.11-.3.18-.47a2.59,2.59,0,0,1,.29-.47,1,1,0,0,1,.39-.34,2.08,2.08,0,0,1,.45.21,1.37,1.37,0,0,1,.48.45,3.43,3.43,0,0,0-.38.52,3.45,3.45,0,0,0-.28.54c-.09.19-.16.38-.24.58s-.14.41-.23.63-.14.38-.2.58a2.17,2.17,0,0,0-.1.51,1.71,1.71,0,0,1,0,.26s0,.07-.05.07l-.16,0a.8.8,0,0,1-.25-.16,1,1,0,0,1-.22-.26A.67.67,0,0,1,14,6.69Zm1.91-4.34a.82.82,0,0,1,0-.18A.35.35,0,0,1,15.88,2a.45.45,0,0,1,0-.18,1.29,1.29,0,0,1,0-.24,2.21,2.21,0,0,1,.06-.34c0-.12.06-.24.1-.37s.08-.25.12-.36a.79.79,0,0,1,.3.07,2.23,2.23,0,0,1,.35.17,1.5,1.5,0,0,1,.33.23,1.24,1.24,0,0,1,.23.23l-.29.31a4.71,4.71,0,0,0-.35.41c-.11.14-.22.27-.31.4l-.18.27a.41.41,0,0,1-.21-.1A.26.26,0,0,1,15.93,2.35Z"/><path class="cls-1" d="M17.55,7.71a1.29,1.29,0,0,1-.91-.5,1.76,1.76,0,0,1-.34-1.12,3.08,3.08,0,0,1,.12-.83,3.72,3.72,0,0,1,.34-.83,5,5,0,0,1,.52-.77A3.78,3.78,0,0,1,17.93,3a1.79,1.79,0,0,1,1-.41,1.8,1.8,0,0,1,.63.71h.18c.35,0,.53.31.53.94a3.68,3.68,0,0,1-.2,1.2,3.93,3.93,0,0,1-.57,1,3.36,3.36,0,0,1-2,1.22Zm.51-3.15a4.78,4.78,0,0,0-.32.5,3.94,3.94,0,0,0-.26.55,4,4,0,0,0-.17.53,2,2,0,0,0-.06.45,1.44,1.44,0,0,0,.08.46c.05.15.11.23.18.25a2.26,2.26,0,0,0,.82-.37A3.1,3.1,0,0,0,19,6.24a3.62,3.62,0,0,0,.43-.93,4,4,0,0,0,.15-1.11,2.22,2.22,0,0,0,0-.41.67.67,0,0,0-.1-.26,2.27,2.27,0,0,0-.78.42A4.3,4.3,0,0,0,18.06,4.56ZM21.2.19a.76.76,0,0,1,.21.2,2.2,2.2,0,0,1,.19.3,1.89,1.89,0,0,1,.13.33,1.24,1.24,0,0,1,.05.31c-.25.17-.47.32-.66.43s-.36.21-.51.28a2.58,2.58,0,0,1-.4.15,1.24,1.24,0,0,1-.33,0A.82.82,0,0,1,19.33,2a1.91,1.91,0,0,0,.46-.25,4.26,4.26,0,0,0,.49-.41,6.55,6.55,0,0,0,.48-.54C20.91.64,21.06.42,21.2.19Z"/><path class="cls-1" d="M22.4,2.51a1,1,0,0,1,.49.36,1.79,1.79,0,0,1,.34.6,4.63,4.63,0,0,1-.34.65c-.15.25-.31.51-.46.78s-.29.51-.41.75a1.7,1.7,0,0,0-.22.58,5.17,5.17,0,0,0,.36-.4c.13-.14.25-.29.38-.44s.23-.29.34-.41l.25-.28.45-.46a5.17,5.17,0,0,1,.55-.5,5.06,5.06,0,0,1,.57-.41,1.18,1.18,0,0,1,.53-.16.6.6,0,0,1,.44.18,1.54,1.54,0,0,1,.27.36s0,0-.07.06a.64.64,0,0,0-.22.19,3.75,3.75,0,0,0-.31.5,7.18,7.18,0,0,0-.34.68,5.1,5.1,0,0,0-.28.74,2.59,2.59,0,0,0-.11.69c0,.17,0,.27.07.32a.21.21,0,0,0,.18.07.68.68,0,0,0,.23,0,.59.59,0,0,1,.19,0s0,0,.07.09a.52.52,0,0,1,0,.11,1.56,1.56,0,0,1-.19.14,1.71,1.71,0,0,1-.23.13l-.23.1a.59.59,0,0,1-.21,0A1.24,1.24,0,0,1,24,7.39a.76.76,0,0,1-.29-.23.84.84,0,0,1-.15-.33,1.87,1.87,0,0,1,0-.42c0-.08,0-.17,0-.27a1.9,1.9,0,0,1,.08-.35c0-.14.1-.3.17-.5l.28-.68-.27.14a2.41,2.41,0,0,0-.54.43c-.31.3-.59.6-.84.89s-.51.62-.77,1l-.38.53a1.21,1.21,0,0,1-.29.28.76.76,0,0,1-.31-.33,2,2,0,0,1-.15-.45,2.4,2.4,0,0,1,.06-.48A4.82,4.82,0,0,1,20.77,6c.06-.24.14-.49.23-.75s.2-.52.31-.78A9.61,9.61,0,0,1,22,3.05,2.77,2.77,0,0,1,22.4,2.51Z"/><path class="cls-1" d="M27.83,10.67c-.09,0-.15-.13-.16-.3a1.34,1.34,0,0,1-.05-.31c0-.12,0-.26,0-.41a2.89,2.89,0,0,1,.07-.57c0-.25.11-.52.2-.83s.18-.64.3-1,.25-.71.4-1.08L29,5c.13-.34.25-.63.34-.88l.22-.61c0-.16.1-.3.13-.41s.07-.18.12-.29A2.9,2.9,0,0,1,30,2.45q.11-.18.21-.33a1,1,0,0,1,.2-.24,2.48,2.48,0,0,1,.66.18.84.84,0,0,1,.38.25,2.34,2.34,0,0,0-.32.41,5.59,5.59,0,0,0-.35.6,6.67,6.67,0,0,0-.31.66q-.14.35-.21.6a3.2,3.2,0,0,1,.26-.37c.11-.13.27-.32.49-.55a3.75,3.75,0,0,1,.7-.58,1.06,1.06,0,0,1,.56-.21,1,1,0,0,1,.63.21.68.68,0,0,1,.24.54A4.32,4.32,0,0,1,32.94,5a4.16,4.16,0,0,1-.69,1.28,2.63,2.63,0,0,1-.4.42,4.29,4.29,0,0,1-.48.36,3.15,3.15,0,0,1-.49.24,1.23,1.23,0,0,1-.43.09.62.62,0,0,1-.31-.07A.43.43,0,0,1,30,7.17a3.36,3.36,0,0,0,.76-.64,5.4,5.4,0,0,0,.69-1A7.64,7.64,0,0,0,32,4.43a7.84,7.84,0,0,0,.35-1.26,4.18,4.18,0,0,0-.68.44,3.19,3.19,0,0,0-.61.61l-.57.71-.34.46a2.5,2.5,0,0,0-.22.36c-.06.11-.12.24-.19.4s-.2.5-.32.85-.25.74-.38,1.17-.26.9-.39,1.39-.26,1-.38,1.46a.29.29,0,0,1-.19-.16l-.11-.13A.24.24,0,0,0,27.83,10.67Z"/><path class="cls-1" d="M34.72,7.71a1.29,1.29,0,0,1-.91-.5,1.76,1.76,0,0,1-.34-1.12,3.08,3.08,0,0,1,.12-.83,3.72,3.72,0,0,1,.34-.83,5,5,0,0,1,.52-.77A3.78,3.78,0,0,1,35.1,3a1.79,1.79,0,0,1,1-.41,1.8,1.8,0,0,1,.63.71h.18c.35,0,.53.31.53.94a3.68,3.68,0,0,1-.2,1.2,3.93,3.93,0,0,1-.57,1,3.36,3.36,0,0,1-2,1.22Zm.51-3.15a4.78,4.78,0,0,0-.32.5,3.94,3.94,0,0,0-.26.55,4,4,0,0,0-.17.53,2,2,0,0,0-.06.45,1.44,1.44,0,0,0,.08.46c0,.15.11.23.18.25a2.26,2.26,0,0,0,.82-.37,3.1,3.1,0,0,0,.66-.69,3.3,3.3,0,0,0,.42-.93,3.68,3.68,0,0,0,.16-1.11,2.22,2.22,0,0,0,0-.41.67.67,0,0,0-.1-.26,2.27,2.27,0,0,0-.78.42A4.3,4.3,0,0,0,35.23,4.56Z"/><path class="cls-1" d="M37.71,7.16a6.52,6.52,0,0,1,.18-.76c.08-.32.18-.66.29-1s.23-.72.36-1.08.25-.68.37-1a3.68,3.68,0,0,1,.23-.48,1.46,1.46,0,0,1,.22-.3,1.74,1.74,0,0,1,.29.07,1.48,1.48,0,0,1,.29.12l.25.15a.85.85,0,0,1,.17.14,3.38,3.38,0,0,0-.47.73,7.12,7.12,0,0,0-.42,1.05c.36-.32.68-.63,1-.92a7.76,7.76,0,0,0,.77-1,.36.36,0,0,1,.21,0,.86.86,0,0,1,.27,0,.32.32,0,0,1,.18.12,2.71,2.71,0,0,0-.18,1,1.31,1.31,0,0,0,.13.66.82.82,0,0,1-.13.23c-.09.11-.18.22-.28.32a1.58,1.58,0,0,1-.48-.38,1.84,1.84,0,0,1-.31-.54,7.22,7.22,0,0,0-.8.65,3.32,3.32,0,0,0-.56.69,4.28,4.28,0,0,0-.4.89,11.6,11.6,0,0,0-.32,1.19l-.21-.06a2,2,0,0,1-.25-.14,1.37,1.37,0,0,1-.23-.17A.45.45,0,0,1,37.71,7.16Z"/><path class="cls-2" d="M.11,18.5V9.59h1.4v7.64h2.3V18.5Z"/><path class="cls-2" d="M7.56,18.5l-.24-1.74H5.7L5.46,18.5H4.16L5.61,9.59h1.9L9,18.5ZM5.88,15.55H7.14L6.5,11.06Z"/><path class="cls-2" d="M11.66,18.5V9.59h2.11c1.44,0,2.08.66,2.08,2.05V12a1.67,1.67,0,0,1-.9,1.74v0c.7.24,1,.85,1,1.86v.76a1.9,1.9,0,0,1-2.13,2.11Zm1.4-5.28h.55c.56,0,.84-.27.84-.94v-.5c0-.61-.24-.92-.71-.92h-.68Zm0,4h.8c.5,0,.73-.23.73-.88v-.78c0-.81-.26-1.08-.9-1.08h-.63Z"/><path class="cls-2" d="M16.76,9.59h1.4v6.9c0,.57.24.87.71.87s.71-.3.71-.87V9.59h1.35v6.8c0,1.44-.72,2.24-2.09,2.24s-2.08-.8-2.08-2.24Z"/><path class="cls-2" d="M21.93,18.5V9.59h3.82v1.27H23.33v2.36h1.92v1.27H23.33v2.74h2.42V18.5Z"/><path class="cls-2" d="M26.5,18.5V9.59h1.73l1.41,5.34V9.59h1.25V18.5H29.48L27.75,12v6.5Z"/><path class="cls-2" d="M35,18.5l-.24-1.74H33.09l-.24,1.74H31.56L33,9.59H34.9l1.45,8.91Zm-1.68-2.95h1.26l-.63-4.49Z"/><path class="cls-2" d="M39,11.65a2.07,2.07,0,1,1,4.13,0v.95H41.75v-1c0-.54-.22-.82-.7-.82s-.69.28-.69.82v5c0,.55.22.82.69.82s.7-.27.7-.82v-1.3h1.33v1.2a2.07,2.07,0,1,1-4.13,0Z"/><path class="cls-2" d="M43.83,11.7a2.13,2.13,0,1,1,4.25,0v4.69a2.13,2.13,0,1,1-4.25,0Zm2.85-.08c0-.59-.24-.88-.72-.88s-.73.29-.73.88v4.86c0,.58.24.88.73.88s.72-.3.72-.88Z"/><path class="cls-2" d="M49,18.5V9.59h2l.93,6.47.93-6.47h2V18.5H53.51V11.76l-1,6.74H51.29l-1-6.74V18.5Z"/><path class="cls-2" d="M55.88,18.5V9.59h1.4V18.5Z"/><path class="cls-2" d="M58.33,18.5V9.59h2.13c1.39,0,2.09.74,2.09,2.2V16.3c0,1.46-.7,2.2-2.09,2.2Zm1.39-1.27h.72c.47,0,.71-.29.71-.87V11.73c0-.57-.24-.87-.71-.87h-.72Z"/><path class="cls-2" d="M66.49,18.5l-.24-1.74H64.63l-.24,1.74h-1.3l1.45-8.91h1.9l1.45,8.91Zm-1.68-2.95h1.26l-.64-4.49Z"/><rect class="cls-1" x="3.18" y="30.7" width="57.22" height="12.85" rx="4.39"/><path class="cls-3" d="M7,36.66H56.68a3.78,3.78,0,0,1,3.78,3.77h0a3.77,3.77,0,0,1-3.77,3.77H7a3.77,3.77,0,0,1-3.77-3.77h0A3.77,3.77,0,0,1,7,36.66Z"/><circle class="cls-1" cx="9.09" cy="40.58" r="1.52"/><g id="WA_Logo" data-name="WA Logo"><path class="cls-4" d="M9.74,39.92A.93.93,0,0,0,8.28,41l-.13.48.49-.13a.89.89,0,0,0,.45.12h0a.93.93,0,0,0,.94-.91.91.91,0,0,0-.29-.68Zm-.66,1.42h0a.8.8,0,0,1-.4-.11h0l-.3.07L8.44,41l0,0a.77.77,0,0,1,1.3-.81.75.75,0,0,1-.24,1A.72.72,0,0,1,9.08,41.34Zm.42-.57-.16-.08H9.29l-.08.09s0,0-.05,0A.42.42,0,0,1,9,40.67a.65.65,0,0,1-.13-.16v0l0,0,0,0a0,0,0,0,0,0,0s-.05-.13-.06-.17,0,0-.06,0h0a.06.06,0,0,0-.06,0,.25.25,0,0,0-.09.19.51.51,0,0,0,.1.24,1,1,0,0,0,.4.35l.13.05h.14a.28.28,0,0,0,.16-.12.17.17,0,0,0,0-.1Z"/></g><circle class="cls-3" cx="18.66" cy="33.68" r="1.77"/><path class="cls-1" d="M19.18,32.85a.6.6,0,0,0-.35-.16l-.1,0h-.19l-.17,0a.83.83,0,0,0-.53.75,1,1,0,0,0,.11.46,2.37,2.37,0,0,0,.56.73.27.27,0,0,0,.12.06h.06a.13.13,0,0,0,.09,0l.19-.18A3.61,3.61,0,0,0,19.3,34a1.23,1.23,0,0,0,.17-.53.84.84,0,0,0-.28-.66h0Zm-.53,1a.39.39,0,0,1-.4-.39.4.4,0,0,1,.4-.4h0a.4.4,0,0,1,0,.79Z"/><path class="cls-5" d="M22.44,32.5a1,1,0,0,1,.39-.38,1.16,1.16,0,0,1,1.12,0,1,1,0,0,1,.38.46h-.41a.54.54,0,0,0-.23-.24.58.58,0,0,0-.33-.08.75.75,0,0,0-.37.09.6.6,0,0,0-.25.27.84.84,0,0,0-.09.4.88.88,0,0,0,.09.41.63.63,0,0,0,.25.26.66.66,0,0,0,.37.1.67.67,0,0,0,.33-.08.62.62,0,0,0,.23-.25h.41A1,1,0,0,1,24,34a1.07,1.07,0,0,1-.59.16,1.11,1.11,0,0,1-.54-.13,1,1,0,0,1-.38-.38,1,1,0,0,1-.14-.55A1,1,0,0,1,22.44,32.5Z"/><path class="cls-5" d="M25.07,31.88V34.1h-.35V31.88Z"/><path class="cls-5" d="M25.5,34.05a.18.18,0,0,1-.07-.15.2.2,0,0,1,.07-.16.22.22,0,0,1,.3,0,.2.2,0,0,1,.07.16.21.21,0,0,1-.37.15Z"/><path class="cls-5" d="M26.92,32.23v-.32h.63V34.1H27.2V32.23Z"/><path class="cls-5" d="M28.21,33.63c.19-.16.34-.3.45-.41a1.75,1.75,0,0,0,.28-.33.68.68,0,0,0,.11-.35.41.41,0,0,0-.09-.28.32.32,0,0,0-.27-.1.35.35,0,0,0-.27.11.44.44,0,0,0-.1.3H28a.69.69,0,0,1,.2-.52.71.71,0,0,1,.5-.18.69.69,0,0,1,.51.18.65.65,0,0,1,.18.48.86.86,0,0,1-.1.41,1.88,1.88,0,0,1-.27.36c-.1.1-.22.22-.38.36l-.13.12h.94v.29H28v-.25Z"/><path class="cls-5" d="M29.8,32.46a.6.6,0,0,1,.08-.29.73.73,0,0,1,.24-.22,1,1,0,0,1,.4-.07.94.94,0,0,1,.39.07.67.67,0,0,1,.25.22.6.6,0,0,1,.08.29.51.51,0,0,1-.09.3.61.61,0,0,1-.22.2.6.6,0,0,1,.27.2.63.63,0,0,1,.09.33.68.68,0,0,1-.09.35.63.63,0,0,1-.28.23,1,1,0,0,1-.8,0,.56.56,0,0,1-.27-.23.6.6,0,0,1-.1-.35.52.52,0,0,1,.1-.33.52.52,0,0,1,.26-.2A.52.52,0,0,1,29.8,32.46Zm.4.74a.33.33,0,0,0-.13.28.35.35,0,0,0,.12.28.49.49,0,0,0,.33.11.48.48,0,0,0,.32-.11.36.36,0,0,0,.12-.28.35.35,0,0,0-.12-.28.61.61,0,0,0-.64,0Zm.61-1a.51.51,0,0,0-.58,0,.33.33,0,0,0-.1.26.3.3,0,0,0,.11.24.44.44,0,0,0,.56,0,.3.3,0,0,0,.11-.24A.31.31,0,0,0,30.81,32.25Z"/><path class="cls-5" d="M34.22,32.73l-.11.51h.4v.3h-.46l-.12.56H33.6l.12-.56h-.58L33,34.1h-.33l.12-.56h-.47v-.3h.53l.11-.51h-.46v-.3h.53l.11-.55h.33l-.12.55H34l.11-.55h.33l-.12.55h.4v.3Zm-.32,0h-.59l-.11.51h.58Z"/><path class="cls-5" d="M35,33.64v-.26l1-1.44h.41v1.4h.28v.3h-.28v.46h-.34v-.46Zm1.1-1.35-.71,1.05h.71Z"/><path class="cls-5" d="M38.39,32.21h-1v.59a.59.59,0,0,1,.19-.14.58.58,0,0,1,.26,0,.71.71,0,0,1,.41.1.62.62,0,0,1,.23.28,1,1,0,0,1,.06.34.87.87,0,0,1-.08.4.72.72,0,0,1-.25.27.93.93,0,0,1-.42.1.77.77,0,0,1-.52-.17.62.62,0,0,1-.24-.42h.33a.37.37,0,0,0,.15.22.51.51,0,0,0,.28.08.37.37,0,0,0,.32-.13.51.51,0,0,0,.11-.34A.49.49,0,0,0,38.1,33a.4.4,0,0,0-.32-.11.4.4,0,0,0-.39.27h-.32V31.91h1.32Z"/><path class="cls-5" d="M38.93,32.82a.71.71,0,0,1,.28-.29.77.77,0,0,1,.39-.11.74.74,0,0,1,.34.08.62.62,0,0,1,.23.19v-.24h.35V34.1h-.35v-.25a.76.76,0,0,1-.23.2.78.78,0,0,1-.35.07.63.63,0,0,1-.38-.11.68.68,0,0,1-.28-.3.94.94,0,0,1-.11-.45A.93.93,0,0,1,38.93,32.82ZM40.1,33a.66.66,0,0,0-.18-.19.54.54,0,0,0-.25-.06.48.48,0,0,0-.24.06.5.5,0,0,0-.19.19.65.65,0,0,0-.07.29.66.66,0,0,0,.07.3.52.52,0,0,0,.19.2.51.51,0,0,0,.24.07.49.49,0,0,0,.43-.26.68.68,0,0,0,0-.6Z"/><path class="cls-5" d="M42.23,32.87v.29H41v-.29Z"/><path class="cls-5" d="M42.88,32a.81.81,0,0,1,.5-.16.8.8,0,0,1,.36.08.57.57,0,0,1,.23.2.56.56,0,0,1,0,.61.44.44,0,0,1-.23.18h0a.48.48,0,0,1,.27.19.69.69,0,0,1,0,.68.52.52,0,0,1-.24.22.89.89,0,0,1-.38.08.82.82,0,0,1-.53-.17.61.61,0,0,1-.22-.48H43a.35.35,0,0,0,.13.26.4.4,0,0,0,.3.1.37.37,0,0,0,.28-.1.36.36,0,0,0,.1-.26.32.32,0,0,0-.14-.29.72.72,0,0,0-.4-.09h-.08V32.8h.08a.88.88,0,0,0,.37-.08.29.29,0,0,0,.12-.25.3.3,0,0,0-.09-.23.46.46,0,0,0-.52,0,.36.36,0,0,0-.11.21h-.33A.56.56,0,0,1,42.88,32Z"/><path class="cls-5" d="M44.64,33.63c.19-.16.34-.3.45-.41a1.75,1.75,0,0,0,.28-.33.68.68,0,0,0,.11-.35.41.41,0,0,0-.09-.28.3.3,0,0,0-.26-.1.38.38,0,0,0-.28.11.49.49,0,0,0-.1.3h-.33a.72.72,0,0,1,.2-.52.71.71,0,0,1,.5-.18.69.69,0,0,1,.51.18.62.62,0,0,1,.19.48.87.87,0,0,1-.11.41,2.36,2.36,0,0,1-.26.36l-.39.36-.13.12h1v.29H44.42v-.25Z"/><path class="cls-5" d="M23,35.07a.44.44,0,0,1-.29.09h-.24v.49h-.11V34.5h.35a.44.44,0,0,1,.29.09.37.37,0,0,1,0,.48Zm0-.24a.24.24,0,0,0-.07-.17.28.28,0,0,0-.2-.06h-.24v.46h.24C22.85,35.06,22.94,35,22.94,34.83Z"/><path class="cls-5" d="M23.48,34.78a.36.36,0,0,1,.19,0v.12h0a.3.3,0,0,0-.2.06.32.32,0,0,0-.08.23v.5h-.11v-.9h.11v.16A.37.37,0,0,1,23.48,34.78Z"/><path class="cls-5" d="M23.84,35A.41.41,0,0,1,24,34.8a.41.41,0,0,1,.58.15v-.2h.11v.9h-.11v-.2a.43.43,0,0,1-.14.16.43.43,0,0,1-.44,0,.38.38,0,0,1-.16-.17.6.6,0,0,1,0-.48Zm.69,0a.34.34,0,0,0-.12-.12.34.34,0,0,0-.17,0,.47.47,0,0,0-.17,0A.3.3,0,0,0,24,35a.38.38,0,0,0,0,.19.45.45,0,0,0,0,.2.34.34,0,0,0,.12.12.31.31,0,0,0,.34,0,.3.3,0,0,0,.12-.13.36.36,0,0,0,0-.19A.41.41,0,0,0,24.53,35Z"/><path class="cls-5" d="M25,35a.39.39,0,0,1,.15-.16.43.43,0,0,1,.44,0,.4.4,0,0,1,.14.15v-.52h.11v1.22h-.11v-.2a.43.43,0,0,1-.14.16.38.38,0,0,1-.22.06.4.4,0,0,1-.22-.06.31.31,0,0,1-.15-.17A.51.51,0,0,1,25,35Zm.68,0a.34.34,0,0,0-.12-.12.34.34,0,0,0-.17,0,.47.47,0,0,0-.17,0,.3.3,0,0,0-.12.13.38.38,0,0,0,0,.19.45.45,0,0,0,0,.2.34.34,0,0,0,.12.12.31.31,0,0,0,.34,0,.3.3,0,0,0,.12-.13.36.36,0,0,0,.05-.19A.41.41,0,0,0,25.64,35Z"/><path class="cls-5" d="M26.23,35.61a.41.41,0,0,1-.16-.16A.49.49,0,0,1,26,35.2a.48.48,0,0,1,.06-.24.41.41,0,0,1,.16-.16.46.46,0,0,1,.23-.06.44.44,0,0,1,.23.06.41.41,0,0,1,.16.16.48.48,0,0,1,.06.24.49.49,0,0,1-.06.25.41.41,0,0,1-.16.16.46.46,0,0,1-.23.06A.44.44,0,0,1,26.23,35.61Zm.39-.08a.4.4,0,0,0,.13-.13.4.4,0,0,0,0-.2.42.42,0,0,0,0-.2.3.3,0,0,0-.13-.12.34.34,0,0,0-.32,0,.37.37,0,0,0-.13.12.42.42,0,0,0,0,.2.4.4,0,0,0,0,.2.3.3,0,0,0,.12.13.47.47,0,0,0,.17,0A.42.42,0,0,0,26.62,35.53Z"/><path class="cls-5" d="M28.49,34.5l-.44,1.15h-.13l-.44-1.15h.13l.37,1,.38-1Z"/><path class="cls-5" d="M29.47,35.25h-.75a.42.42,0,0,0,.05.17.25.25,0,0,0,.12.11.29.29,0,0,0,.16,0,.33.33,0,0,0,.19-.06.24.24,0,0,0,.1-.14h.12a.34.34,0,0,1-.14.21.4.4,0,0,1-.27.09.44.44,0,0,1-.23-.06.41.41,0,0,1-.16-.16.49.49,0,0,1-.05-.25.47.47,0,0,1,.05-.24.35.35,0,0,1,.16-.16.41.41,0,0,1,.23-.06.4.4,0,0,1,.22.06.31.31,0,0,1,.15.15.46.46,0,0,1,0,.21ZM29.31,35a.22.22,0,0,0-.11-.1.29.29,0,0,0-.16,0,.31.31,0,0,0-.32.31h.63A.25.25,0,0,0,29.31,35Z"/><path class="cls-5" d="M29.91,34.78a.42.42,0,0,1,.2,0v.12h0a.24.24,0,0,0-.27.29v.5h-.12v-.9h.12v.16A.28.28,0,0,1,29.91,34.78Z"/><path class="cls-5" d="M30.28,35a.46.46,0,0,1,.15-.16.43.43,0,0,1,.22-.06.44.44,0,0,1,.23.06A.37.37,0,0,1,31,35v-.2h.12v.9H31v-.2a.36.36,0,0,1-.14.16.38.38,0,0,1-.22.06.43.43,0,0,1-.22-.06.42.42,0,0,1-.15-.17.6.6,0,0,1,0-.48ZM31,35a.34.34,0,0,0-.12-.12.37.37,0,0,0-.17,0,.43.43,0,0,0-.17,0,.22.22,0,0,0-.12.13.38.38,0,0,0-.05.19.46.46,0,0,0,.05.2.23.23,0,0,0,.12.12.31.31,0,0,0,.17,0,.37.37,0,0,0,.17,0,.3.3,0,0,0,.12-.13.36.36,0,0,0,0-.19A.41.41,0,0,0,31,35Z"/><path class="cls-5" d="M32.07,34.84a.37.37,0,0,1,.11.29v.52h-.12v-.51a.29.29,0,0,0-.07-.22.24.24,0,0,0-.2-.08.29.29,0,0,0-.21.08.35.35,0,0,0-.08.24v.49h-.11v-.9h.11v.16a.27.27,0,0,1,.13-.13.34.34,0,0,1,.18,0A.33.33,0,0,1,32.07,34.84Z"/><path class="cls-5" d="M32.43,34.56a.09.09,0,0,1,0-.06.06.06,0,0,1,0-.06.09.09,0,0,1,.06,0l.06,0a.08.08,0,0,1,0,.06.14.14,0,0,1,0,.06.1.1,0,0,1-.12,0Zm.12.19v.9h-.12v-.9Z"/><path class="cls-5" d="M33.62,35.25h-.75a.42.42,0,0,0,.05.17.25.25,0,0,0,.12.11.29.29,0,0,0,.16,0,.33.33,0,0,0,.19-.06.24.24,0,0,0,.1-.14h.12a.34.34,0,0,1-.14.21.4.4,0,0,1-.27.09.44.44,0,0,1-.23-.06.41.41,0,0,1-.16-.16.49.49,0,0,1-.05-.25.47.47,0,0,1,.05-.24A.35.35,0,0,1,33,34.8a.44.44,0,0,1,.23-.06.4.4,0,0,1,.22.06.28.28,0,0,1,.15.15.46.46,0,0,1,0,.21ZM33.46,35a.22.22,0,0,0-.11-.1.29.29,0,0,0-.16,0,.31.31,0,0,0-.32.31h.63A.25.25,0,0,0,33.46,35Z"/><path class="cls-5" d="M34.43,34.8a.4.4,0,0,1,.14.15v-.2h.11v.93a.46.46,0,0,1,0,.21.36.36,0,0,1-.15.15.42.42,0,0,1-.22.05A.47.47,0,0,1,34,36a.37.37,0,0,1-.14-.22h.11a.29.29,0,0,0,.12.15.39.39,0,0,0,.2.05.41.41,0,0,0,.16,0,.38.38,0,0,0,.11-.11.47.47,0,0,0,0-.17v-.23a.43.43,0,0,1-.14.16.43.43,0,0,1-.44,0,.38.38,0,0,1-.16-.17.6.6,0,0,1,0-.48A.41.41,0,0,1,34,34.8a.43.43,0,0,1,.44,0Zm.09.21a.34.34,0,0,0-.12-.12.34.34,0,0,0-.17,0,.47.47,0,0,0-.17,0,.3.3,0,0,0-.12.13.38.38,0,0,0,0,.19.45.45,0,0,0,0,.2.34.34,0,0,0,.12.12.31.31,0,0,0,.34,0,.3.3,0,0,0,.12-.13.36.36,0,0,0,0-.19A.41.41,0,0,0,34.52,35Z"/><path class="cls-5" d="M35.11,35.61a.41.41,0,0,1-.16-.16.49.49,0,0,1-.06-.25A.48.48,0,0,1,35,35a.41.41,0,0,1,.16-.16.46.46,0,0,1,.23-.06.44.44,0,0,1,.23.06.41.41,0,0,1,.16.16.48.48,0,0,1,.06.24.49.49,0,0,1-.06.25.41.41,0,0,1-.16.16.46.46,0,0,1-.23.06A.44.44,0,0,1,35.11,35.61Zm.39-.08a.3.3,0,0,0,.12-.13.31.31,0,0,0,.05-.2.42.42,0,0,0,0-.2.49.49,0,0,0-.13-.12.29.29,0,0,0-.16,0,.33.33,0,0,0-.17,0,.34.34,0,0,0-.12.12.42.42,0,0,0,0,.2.4.4,0,0,0,0,.2.3.3,0,0,0,.12.13.47.47,0,0,0,.17,0A.42.42,0,0,0,35.5,35.53Z"/><path class="cls-1" d="M12.07,39.72a.67.67,0,0,1,.45-.14.66.66,0,0,1,.32.07.42.42,0,0,1,.21.18.44.44,0,0,1,.07.26.45.45,0,0,1-.09.28.46.46,0,0,1-.21.16h0a.42.42,0,0,1,.25.18.53.53,0,0,1,.08.32.52.52,0,0,1-.28.48.85.85,0,0,1-.82-.08.57.57,0,0,1-.2-.43h.3a.28.28,0,0,0,.11.23.42.42,0,0,0,.52,0,.3.3,0,0,0,.09-.23.29.29,0,0,0-.12-.26.64.64,0,0,0-.37-.08h-.07v-.25h.07a.66.66,0,0,0,.33-.08.23.23,0,0,0,.12-.22.25.25,0,0,0-.09-.2.37.37,0,0,0-.46,0,.27.27,0,0,0-.1.19h-.3A.49.49,0,0,1,12.07,39.72Z"/><path class="cls-1" d="M13.44,39.9v-.28H14v2h-.3V39.9Z"/><path class="cls-1" d="M15.65,39.86l-.74,1.72H14.6l.75-1.69h-1v-.26h1.29Z"/><path class="cls-1" d="M16.86,39.89a.4.4,0,0,0-.53.1,1,1,0,0,0-.11.54.39.39,0,0,1,.2-.18.73.73,0,0,1,.29-.07.62.62,0,0,1,.31.08.5.5,0,0,1,.21.22.75.75,0,0,1,.08.35.72.72,0,0,1-.07.33.54.54,0,0,1-.22.23.65.65,0,0,1-.35.09.69.69,0,0,1-.43-.12.61.61,0,0,1-.22-.35,1.75,1.75,0,0,1-.07-.55c0-.66.23-1,.7-1a.59.59,0,0,1,.42.14.62.62,0,0,1,.18.36H17A.32.32,0,0,0,16.86,39.89Zm-.5.75a.36.36,0,0,0-.11.28.44.44,0,0,0,.11.3.39.39,0,0,0,.29.1.35.35,0,0,0,.27-.1.37.37,0,0,0,.1-.28.39.39,0,0,0-.1-.29.35.35,0,0,0-.28-.11A.4.4,0,0,0,16.36,40.64Z"/><path class="cls-1" d="M18.58,39.89a.4.4,0,0,0-.53.1,1,1,0,0,0-.11.54.39.39,0,0,1,.2-.18.73.73,0,0,1,.29-.07.62.62,0,0,1,.31.08.5.5,0,0,1,.21.22.65.65,0,0,1,.08.35.72.72,0,0,1-.07.33.49.49,0,0,1-.22.23.65.65,0,0,1-.35.09.69.69,0,0,1-.43-.12.61.61,0,0,1-.22-.35,2.11,2.11,0,0,1-.07-.55c0-.66.24-1,.7-1a.56.56,0,0,1,.42.14.62.62,0,0,1,.18.36h-.28A.32.32,0,0,0,18.58,39.89Zm-.49.75a.34.34,0,0,0-.12.28.44.44,0,0,0,.11.3.39.39,0,0,0,.29.1.33.33,0,0,0,.27-.1.37.37,0,0,0,.1-.28.39.39,0,0,0-.1-.29.35.35,0,0,0-.28-.11A.36.36,0,0,0,18.09,40.64Z"/><path class="cls-1" d="M20.3,39.89a.4.4,0,0,0-.53.1,1,1,0,0,0-.11.54.44.44,0,0,1,.2-.18.73.73,0,0,1,.29-.07.62.62,0,0,1,.31.08.52.52,0,0,1,.22.22.75.75,0,0,1,.07.35.72.72,0,0,1-.07.33.49.49,0,0,1-.22.23.65.65,0,0,1-.35.09.69.69,0,0,1-.43-.12.61.61,0,0,1-.22-.35,2.15,2.15,0,0,1-.06-.55c0-.66.23-1,.69-1a.56.56,0,0,1,.42.14.62.62,0,0,1,.18.36h-.28A.32.32,0,0,0,20.3,39.89Zm-.49.75a.34.34,0,0,0-.12.28.44.44,0,0,0,.11.3.4.4,0,0,0,.3.1.33.33,0,0,0,.26-.1.37.37,0,0,0,.1-.28.44.44,0,0,0-.09-.29.38.38,0,0,0-.29-.11A.38.38,0,0,0,19.81,40.64Z"/><path class="cls-1" d="M21.25,41.16l.4-.36a1.66,1.66,0,0,0,.25-.3.57.57,0,0,0,.1-.31.37.37,0,0,0-.07-.25.3.3,0,0,0-.24-.1.34.34,0,0,0-.25.1.4.4,0,0,0-.09.27h-.3a.61.61,0,0,1,.19-.46.6.6,0,0,1,.44-.17.66.66,0,0,1,.46.16.58.58,0,0,1,.17.43.86.86,0,0,1-.1.38,1.83,1.83,0,0,1-.24.31,3.64,3.64,0,0,1-.34.33l-.12.11h.85v.25h-1.3v-.22Z"/><path class="cls-1" d="M22.78,39.85a.6.6,0,0,1,.54-.26.58.58,0,0,1,.54.26,1.36,1.36,0,0,1,.16.73,1.39,1.39,0,0,1-.16.73.56.56,0,0,1-.54.26.58.58,0,0,1-.54-.26,1.5,1.5,0,0,1-.15-.73A1.47,1.47,0,0,1,22.78,39.85Zm.91.36a.52.52,0,0,0-.11-.25.34.34,0,0,0-.26-.09.33.33,0,0,0-.25.09.44.44,0,0,0-.11.25,1.9,1.9,0,0,0,0,.37A3.57,3.57,0,0,0,23,41a.45.45,0,0,0,.12.25.33.33,0,0,0,.25.09.34.34,0,0,0,.26-.09.39.39,0,0,0,.11-.25,2.3,2.3,0,0,0,0-.74Z"/><path class="cls-1" d="M25.61,39.89h-.9v.53a.43.43,0,0,1,.16-.13.69.69,0,0,1,.24,0,.7.7,0,0,1,.37.1.58.58,0,0,1,.2.24.87.87,0,0,1,.06.32.82.82,0,0,1-.08.35.56.56,0,0,1-.22.24.76.76,0,0,1-.38.09.72.72,0,0,1-.47-.15.62.62,0,0,1-.21-.38h.3a.34.34,0,0,0,.13.2.42.42,0,0,0,.26.07.33.33,0,0,0,.28-.11.45.45,0,0,0,.1-.31.38.38,0,0,0-.1-.29.36.36,0,0,0-.28-.11.38.38,0,0,0-.22.07.3.3,0,0,0-.13.18h-.29V39.62h1.18Z"/><path class="cls-1" d="M26.23,41.16l.4-.36a1.66,1.66,0,0,0,.25-.3.57.57,0,0,0,.1-.31.33.33,0,0,0-.08-.25.27.27,0,0,0-.24-.1.33.33,0,0,0-.24.1.4.4,0,0,0-.09.27H26a.61.61,0,0,1,.19-.46.6.6,0,0,1,.44-.17.66.66,0,0,1,.46.16.57.57,0,0,1,.16.43.85.85,0,0,1-.09.38,1.83,1.83,0,0,1-.24.31,3.64,3.64,0,0,1-.34.33l-.12.11h.85v.25H26v-.22Z"/><circle class="cls-1" cx="37.1" cy="40.53" r="1.57"/><path class="cls-3" d="M36.62,39.77h.08c.07,0,.09.06.11.11v0l0,.14a.52.52,0,0,0,0,.11.11.11,0,0,1,0,.12l0,0-.14.06s0,0,0,0a2.56,2.56,0,0,0,.11.24l.06.11v0a1,1,0,0,0,.08.11.1.1,0,0,0,0,0L37,41l.06.06s.06,0,.11,0h0l0,0a.2.2,0,0,1,.09,0,.13.13,0,0,1,.12,0l0,0,.09.07.06.05.07.08a.08.08,0,0,1,0,0,.11.11,0,0,1,0,.11l0,0a.31.31,0,0,1-.11.09l-.08,0h-.16a.54.54,0,0,1-.25-.09l-.09,0,0,0A1.41,1.41,0,0,1,36.6,41l0-.06a.21.21,0,0,1,0-.06,1.23,1.23,0,0,1-.12-.26.49.49,0,0,1,0-.11.62.62,0,0,1,0-.23v-.16a.3.3,0,0,1,0-.1.38.38,0,0,1,.09-.13h0A.44.44,0,0,1,36.62,39.77Z"/><path class="cls-3" d="M37.92,40.5v.16s0,.07,0,.1,0,.05-.08.05-.06,0-.07-.05,0-.06,0-.1V40.5a.29.29,0,0,0,0-.09.65.65,0,0,0-.11-.22.58.58,0,0,0-.19-.16h0L37.3,40h0a.09.09,0,0,1-.06-.06c0-.08,0-.12.13-.11l.1,0a.71.71,0,0,1,.26.16l0,0a1.1,1.1,0,0,1,.17.25l0,.12S37.91,40.47,37.92,40.5Z"/><path class="cls-3" d="M37.58,40.78a.07.07,0,0,1-.06,0,.06.06,0,0,1,0-.06s0,0,0,0a.23.23,0,0,0,0-.14.39.39,0,0,0-.28-.3.1.1,0,0,1-.09-.08.07.07,0,0,1,.06-.09.15.15,0,0,1,.13,0l.12.06h0s.07.06.09.1,0,0,0,0a.24.24,0,0,1,.06.11.54.54,0,0,1,0,.31.14.14,0,0,1,0,.06A0,0,0,0,1,37.58,40.78Z"/><path class="cls-3" d="M37.06,40.44l0,0a.09.09,0,0,1,0-.07s0,0,.07,0h0a.34.34,0,0,1,.14.09h0a.39.39,0,0,1,.08.14l0,.08s0,0,0,.07,0,.09-.11.08h0s-.06,0-.06-.06v-.05a.18.18,0,0,0-.12-.19S37.07,40.46,37.06,40.44Z"/><path class="cls-1" d="M39.78,39.59a.73.73,0,0,1,.45-.14.63.63,0,0,1,.32.07.46.46,0,0,1,.28.44.45.45,0,0,1-.09.28.46.46,0,0,1-.21.16h0a.49.49,0,0,1,.25.17.67.67,0,0,1,.08.33.53.53,0,0,1-.07.28.55.55,0,0,1-.21.19.74.74,0,0,1-.34.07.72.72,0,0,1-.47-.15.53.53,0,0,1-.2-.42h.29a.34.34,0,0,0,.11.23.38.38,0,0,0,.27.09.33.33,0,0,0,.25-.09.32.32,0,0,0,.09-.23.3.3,0,0,0-.12-.27.7.7,0,0,0-.37-.08H40v-.25h.08a.56.56,0,0,0,.32-.07.23.23,0,0,0,.12-.22.28.28,0,0,0-.08-.2.36.36,0,0,0-.24-.08.32.32,0,0,0-.23.08.27.27,0,0,0-.1.19h-.3A.56.56,0,0,1,39.78,39.59Z"/><path class="cls-1" d="M42.41,39.73l-.74,1.71h-.3l.75-1.68h-1v-.25h1.28Z"/><path class="cls-1" d="M42.64,41v-.23l.89-1.29h.37v1.25h.25V41H43.9v.4h-.3V41Zm1-1.21-.63.94h.63Z"/><path class="cls-1" d="M45.34,39.76a.34.34,0,0,0-.22-.06.36.36,0,0,0-.31.16,1,1,0,0,0-.11.54.44.44,0,0,1,.2-.18.59.59,0,0,1,.29-.07.62.62,0,0,1,.31.08.5.5,0,0,1,.21.22.76.76,0,0,1,0,.68.66.66,0,0,1-.21.23.78.78,0,0,1-.35.08.69.69,0,0,1-.43-.12A.62.62,0,0,1,44.5,41a2.18,2.18,0,0,1-.06-.56c0-.65.23-1,.69-1a.64.64,0,0,1,.42.14.62.62,0,0,1,.18.36h-.28A.36.36,0,0,0,45.34,39.76Zm-.49.75a.32.32,0,0,0-.12.28.38.38,0,0,0,.4.4.35.35,0,0,0,.27-.11.41.41,0,0,0,.1-.27.44.44,0,0,0-.1-.29.32.32,0,0,0-.28-.11A.36.36,0,0,0,44.85,40.51Z"/><path class="cls-1" d="M46.16,40a.6.6,0,0,1,.07-.27.52.52,0,0,1,.22-.19.91.91,0,0,1,.35-.07.87.87,0,0,1,.35.07.52.52,0,0,1,.22.19.5.5,0,0,1,.07.27.46.46,0,0,1-.07.26.47.47,0,0,1-.2.17.43.43,0,0,1,.23.19.48.48,0,0,1,.09.29.54.54,0,0,1-.09.31.55.55,0,0,1-.24.21,1,1,0,0,1-.36.07,1,1,0,0,1-.35-.07.58.58,0,0,1-.25-.21.54.54,0,0,1-.09-.31.48.48,0,0,1,.09-.29.5.5,0,0,1,.24-.19A.44.44,0,0,1,46.16,40Zm.36.65a.3.3,0,0,0-.12.25.31.31,0,0,0,.11.25.47.47,0,0,0,.58,0,.32.32,0,0,0,.1-.25.28.28,0,0,0-.1-.24.46.46,0,0,0-.29-.09A.49.49,0,0,0,46.52,40.64Zm.54-.84a.35.35,0,0,0-.26-.08.34.34,0,0,0-.25.08.29.29,0,0,0-.09.23.26.26,0,0,0,.09.21.37.37,0,0,0,.25.09.35.35,0,0,0,.25-.09.26.26,0,0,0,.1-.22A.28.28,0,0,0,47.06,39.8Z"/><path class="cls-1" d="M49.07,39.76h-.9v.53a.48.48,0,0,1,.17-.13.59.59,0,0,1,.23,0,.67.67,0,0,1,.37.1.52.52,0,0,1,.2.24.81.81,0,0,1,.06.31.78.78,0,0,1-.08.35.56.56,0,0,1-.22.24.72.72,0,0,1-.37.09.75.75,0,0,1-.47-.14.58.58,0,0,1-.21-.38h.3a.29.29,0,0,0,.13.19.39.39,0,0,0,.25.08.32.32,0,0,0,.28-.12.42.42,0,0,0,.1-.3.4.4,0,0,0-.1-.3.4.4,0,0,0-.28-.1.32.32,0,0,0-.22.07.37.37,0,0,0-.13.17h-.29V39.49h1.18Z"/><path class="cls-1" d="M49.57,40a.5.5,0,0,1,.07-.27.55.55,0,0,1,.21-.19,1,1,0,0,1,.36-.07,1,1,0,0,1,.35.07.49.49,0,0,1,.21.19.5.5,0,0,1,.08.27.48.48,0,0,1-.28.43.5.5,0,0,1,.24.19.48.48,0,0,1,.09.29.54.54,0,0,1-.09.31.58.58,0,0,1-.25.21,1,1,0,0,1-.35.07,1,1,0,0,1-.36-.07.55.55,0,0,1-.24-.21.54.54,0,0,1-.09-.31.48.48,0,0,1,.09-.29.43.43,0,0,1,.23-.19A.45.45,0,0,1,49.57,40Zm.35.65a.33.33,0,0,0-.11.25.28.28,0,0,0,.11.25.42.42,0,0,0,.29.1.41.41,0,0,0,.28-.1.33.33,0,0,0,.11-.25.29.29,0,0,0-.11-.24.43.43,0,0,0-.28-.09A.5.5,0,0,0,49.92,40.64Zm.54-.84a.34.34,0,0,0-.25-.08.37.37,0,0,0-.26.08.29.29,0,0,0-.09.23.24.24,0,0,0,.1.21.35.35,0,0,0,.25.09.37.37,0,0,0,.25-.09.29.29,0,0,0,0-.44Z"/></g></g></svg>